<?xml version="1.0" standalone="no"?>
<!DOCTYPE svg PUBLIC "-//W3C//DTD SVG 20010904//EN"
 "http://www.w3.org/TR/2001/REC-SVG-20010904/DTD/svg10.dtd">
<svg version="1.0" xmlns="http://www.w3.org/2000/svg"
 width="436.000000pt" height="877.000000pt" viewBox="0 0 436.000000 877.000000"
 preserveAspectRatio="xMidYMid meet">

<g transform="translate(0.000000,877.000000) scale(0.100000,-0.100000)"
fill="#000000" stroke="none">
<path d="M0 7668 l0 -1103 773 772 c843 843 807 811 893 783 32 -10 254 -227
1222 -1194 836 -835 1189 -1193 1203 -1223 16 -33 19 -53 14 -85 -6 -41 -97
-133 -2056 -2093 l-2049 -2050 0 -738 0 -737 2180 0 2180 0 0 4385 0 4385
-2180 0 -2180 0 0 -1102z"/>
<path d="M1651 8016 c-9 -11 -9 -19 1 -35 11 -19 14 -19 30 -4 10 9 18 23 17
32 0 10 -3 8 -9 -6 -10 -25 -25 -30 -36 -11 -4 6 1 17 11 25 11 7 14 13 8 13
-6 0 -16 -6 -22 -14z"/>
<path d="M1715 7930 c-10 -11 -16 -22 -14 -24 2 -2 12 7 22 20 22 29 17 32 -8
4z"/>
<path d="M1745 7900 c-16 -17 -16 -20 -3 -15 9 4 19 13 22 21 7 19 2 18 -19
-6z"/>
<path d="M1766 7881 c-10 -11 -16 -28 -13 -38 4 -16 5 -15 6 3 1 25 20 44 43
44 26 0 22 -17 -9 -47 -23 -21 -24 -24 -6 -14 26 13 47 47 38 61 -10 16 -41
11 -59 -9z"/>
<path d="M1396 7611 c-56 -56 -86 -93 -81 -101 5 -8 21 2 51 31 l43 42 46 -48
47 -48 -41 -41 c-32 -33 -39 -44 -29 -54 10 -10 31 6 100 75 48 48 88 93 88
100 0 23 -25 14 -60 -22 l-34 -35 -43 42 c-24 23 -43 47 -43 53 0 6 16 26 35
45 30 29 37 50 17 50 -4 0 -47 -40 -96 -89z"/>
<path d="M1552 7430 c-83 -51 -52 -170 45 -170 95 0 124 140 37 176 -42 18
-43 18 -82 -6z m73 -22 c35 -16 43 -53 18 -86 -28 -38 -76 -42 -98 -8 -20 30
-13 58 22 86 30 24 26 23 58 8z"/>
<path d="M1142 7371 c7 -25 36 -37 50 -23 11 11 9 12 -6 6 -13 -5 -24 -1 -34
12 -8 10 -12 13 -10 5z"/>
<path d="M1246 7312 l-19 -27 26 24 c28 26 32 31 20 31 -5 0 -17 -13 -27 -28z"/>
<path d="M1682 7267 c-49 -49 -60 -65 -50 -75 10 -10 22 -2 59 34 39 38 52 45
72 40 47 -11 44 -43 -9 -97 -38 -38 -45 -52 -36 -61 9 -9 21 -3 55 30 43 42
73 52 95 30 21 -21 13 -43 -33 -88 -33 -33 -42 -47 -34 -56 8 -10 19 -5 49 24
20 20 45 49 54 63 23 36 8 73 -37 90 -24 8 -36 20 -43 43 -6 22 -18 34 -40 41
-17 6 -29 15 -27 22 11 32 -20 16 -75 -40z"/>
<path d="M1309 7263 l-34 -38 38 34 c20 19 37 36 37 38 0 8 -8 0 -41 -34z"/>
<path d="M1460 7100 c0 -5 5 -10 10 -10 6 0 10 5 10 10 0 6 -4 10 -10 10 -5 0
-10 -4 -10 -10z"/>
<path d="M1899 7051 c-57 -57 -30 -141 49 -157 25 -5 32 -3 32 10 0 9 -8 16
-18 16 -32 0 -62 29 -62 60 0 47 19 45 71 -6 47 -46 49 -47 64 -29 23 31 19
82 -10 110 -35 36 -88 34 -126 -4z m105 -17 c16 -15 22 -64 9 -64 -10 0 -73
62 -73 72 0 14 48 8 64 -8z"/>
<path d="M1571 7007 c-13 -21 -12 -21 5 -5 10 10 16 20 13 22 -3 3 -11 -5 -18
-17z"/>
<path d="M1600 6906 c7 -7 13 -7 20 0 6 6 3 10 -10 10 -13 0 -16 -4 -10 -10z"/>
<path d="M1644 6898 l-19 -23 23 19 c21 18 27 26 19 26 -2 0 -12 -10 -23 -22z"/>
<path d="M1699 6844 c-16 -19 -1 -48 27 -51 15 -2 14 -1 -3 7 -13 5 -23 16
-23 25 0 9 10 20 23 25 15 6 17 9 6 9 -9 1 -22 -6 -30 -15z"/>
<path d="M1764 6787 c-11 -12 -12 -17 -4 -11 8 6 22 13 30 16 9 3 10 7 3 11
-6 4 -19 -3 -29 -16z"/>
<path d="M1896 6661 c-10 -11 -16 -26 -13 -33 4 -10 6 -10 6 1 1 8 8 23 18 33
9 10 14 18 11 18 -3 0 -13 -9 -22 -19z"/>
<path d="M1924 6618 l-19 -23 23 19 c12 11 22 21 22 23 0 8 -8 2 -26 -19z"/>
<path d="M1980 6620 c-9 -6 -10 -10 -3 -10 6 0 15 5 18 10 8 12 4 12 -15 0z"/>
<path d="M1945 6579 c-4 -6 -5 -12 -2 -15 2 -3 7 2 10 11 7 17 1 20 -8 4z"/>
<path d="M1995 6570 c-3 -6 1 -7 9 -4 18 7 21 14 7 14 -6 0 -13 -4 -16 -10z"/>
<path d="M1482 6267 l-52 -53 30 -29 c16 -16 32 -26 35 -23 3 2 -4 13 -15 23
-11 10 -20 23 -20 29 0 6 21 32 47 58 26 26 43 48 37 48 -5 0 -33 -24 -62 -53z"/>
<path d="M1602 6241 c2 -7 7 -12 11 -12 12 1 9 15 -3 20 -7 2 -11 -2 -8 -8z"/>
<path d="M1540 6175 c-18 -19 -31 -38 -27 -41 5 -5 77 62 77 72 0 12 -20 -1
-50 -31z"/>
<path d="M1582 6130 c-11 -27 -17 -52 -12 -55 11 -7 113 39 104 47 -3 4 -24
-2 -45 -13 -43 -22 -46 -18 -24 35 8 20 11 36 6 36 -4 0 -18 -22 -29 -50z"/>
<path d="M632 6057 l-112 -112 80 -80 81 -80 114 116 c63 64 115 122 115 129
0 20 -127 140 -147 140 -10 0 -69 -51 -131 -113z m146 -124 l-98 -98 -55 55
-55 54 97 98 98 98 55 -55 55 -55 -97 -97z"/>
<path d="M734 5969 c-10 -17 13 -36 27 -22 12 12 4 33 -11 33 -5 0 -12 -5 -16
-11z"/>
<path d="M1716 6132 c-3 -6 -1 -14 5 -17 15 -10 25 3 12 16 -7 7 -13 7 -17 1z"/>
<path d="M1655 6060 c-22 -22 -35 -40 -29 -40 13 0 79 68 73 75 -3 2 -23 -13
-44 -35z"/>
<path d="M1687 6029 c-36 -41 -35 -60 1 -26 54 51 98 20 47 -33 -16 -17 -25
-33 -21 -37 11 -11 68 56 64 75 -2 9 -13 21 -26 27 -12 5 -22 13 -22 17 0 16
-16 7 -43 -23z"/>
<path d="M1771 5946 c-28 -29 -23 -71 9 -81 24 -8 17 -25 -10 -25 -11 0 -26
12 -34 28 -14 25 -15 25 -16 5 0 -21 33 -53 56 -53 7 0 33 20 59 44 l47 44
-28 31 c-33 37 -53 39 -83 7z m69 -11 c10 -12 9 -20 -4 -40 -9 -14 -22 -25
-29 -25 -18 0 -37 21 -37 40 0 36 47 53 70 25z"/>
<path d="M3739 5913 l-24 -28 28 24 c25 23 32 31 24 31 -2 0 -14 -12 -28 -27z"/>
<path d="M85 5900 l-29 -30 29 -30 c27 -28 30 -29 47 -13 23 21 36 9 19 -18
-15 -25 -9 -36 9 -14 7 8 17 15 23 15 5 0 2 -9 -8 -20 -17 -19 -17 -21 0 -40
17 -19 19 -19 37 -3 18 16 20 16 39 -4 l21 -21 -26 5 c-21 4 -26 1 -26 -13 0
-11 12 -27 25 -37 20 -14 28 -15 44 -5 28 17 38 2 16 -22 -16 -18 -16 -20 -2
-20 10 0 17 -8 17 -19 0 -10 7 -22 16 -25 25 -10 30 2 8 18 -18 14 -18 15 0
22 11 4 21 2 26 -7 5 -7 12 -10 16 -6 9 9 -15 37 -32 37 -8 0 -14 7 -14 16 0
9 -8 23 -17 30 -15 11 -22 9 -42 -9 l-24 -22 16 25 c23 33 23 34 -22 76 -22
20 -37 42 -35 49 4 10 -1 12 -15 8 -14 -3 -21 -1 -21 8 0 8 -9 20 -19 26 -16
10 -22 8 -37 -8 -17 -19 -17 -19 -32 2 -16 23 -9 37 11 21 18 -15 30 -3 15 15
-14 17 -2 31 14 15 20 -20 32 -13 13 8 -23 26 -26 26 -60 -10z m120 -130 c-20
-22 -31 -20 -22 5 4 8 14 15 23 15 16 0 16 -2 -1 -20z m50 -60 c3 -5 1 -10 -4
-10 -6 0 -11 5 -11 10 0 6 2 10 4 10 3 0 8 -4 11 -10z"/>
<path d="M3770 5885 c-13 -14 -22 -27 -19 -29 2 -2 14 10 27 25 29 36 24 38
-8 4z"/>
<path d="M1897 5819 c-21 -20 -34 -40 -29 -43 5 -3 20 6 33 20 18 20 30 24 52
20 17 -4 26 -2 22 4 -3 6 -13 10 -21 10 -8 0 -13 4 -9 9 3 5 2 11 -2 14 -5 2
-25 -13 -46 -34z"/>
<path d="M3790 5792 c0 -11 57 -62 68 -62 4 0 23 16 42 35 l34 35 -72 0 c-40
0 -72 -4 -72 -8z"/>
<path d="M1952 5774 c-41 -28 -19 -94 32 -94 48 0 73 62 38 93 -23 21 -41 21
-70 1z m63 -39 c0 -27 -3 -30 -30 -30 -21 0 -31 5 -33 18 -6 33 6 49 35 45 24
-3 28 -8 28 -33z"/>
<path d="M3942 5697 l-32 -33 20 -19 c21 -19 21 -18 57 17 23 23 34 42 30 52
-10 26 -41 19 -75 -17z"/>
<path d="M2029 5676 c-16 -35 -4 -74 25 -82 53 -13 91 37 62 81 -23 34 -72 35
-87 1z m78 -12 c14 -37 -41 -71 -66 -40 -9 11 -10 20 -1 35 13 25 58 28 67 5z"/>
<path d="M2120 5595 c-41 -42 -32 -60 10 -20 17 17 35 25 44 22 23 -9 20 -27
-11 -59 -35 -37 -21 -49 17 -13 17 17 35 25 44 22 25 -10 19 -43 -11 -65 -16
-11 -25 -24 -20 -28 4 -4 21 6 38 21 34 34 35 65 2 80 -13 5 -23 15 -23 21 0
9 -44 54 -53 54 -2 0 -18 -16 -37 -35z"/>
<path d="M377 5593 c-13 -13 -7 -51 9 -57 24 -9 32 3 11 15 -9 6 -17 15 -17
21 0 6 8 4 18 -5 25 -23 32 -21 32 8 0 20 -5 25 -23 25 -13 0 -27 -3 -30 -7z"/>
<path d="M447 5523 c-4 -3 -7 -17 -7 -29 0 -17 7 -25 25 -30 16 -4 25 -13 25
-25 0 -24 27 -36 49 -22 25 16 20 56 -8 63 -21 5 -22 7 -7 19 8 7 13 17 10 23
-3 5 -12 4 -20 -3 -10 -8 -14 -8 -14 0 0 12 -42 15 -53 4z m39 -14 c10 -17
-13 -36 -27 -22 -12 12 -4 33 11 33 5 0 12 -5 16 -11z m54 -65 c0 -14 -21 -19
-33 -7 -9 9 13 34 24 27 5 -3 9 -12 9 -20z"/>
<path d="M3550 5505 c0 -8 7 -15 15 -15 8 0 15 7 15 15 0 8 -7 15 -15 15 -8 0
-15 -7 -15 -15z"/>
<path d="M3510 5465 c0 -8 7 -15 15 -15 8 0 15 7 15 15 0 8 -7 15 -15 15 -8 0
-15 -7 -15 -15z"/>
<path d="M3470 5425 c0 -8 7 -15 15 -15 8 0 15 7 15 15 0 8 -7 15 -15 15 -8 0
-15 -7 -15 -15z"/>
<path d="M551 5416 c-17 -20 -4 -56 18 -56 28 0 47 28 34 48 -14 23 -37 26
-52 8z m37 -23 c-4 -22 -22 -20 -26 1 -2 10 3 16 13 16 10 0 15 -7 13 -17z"/>
<path d="M606 5364 c-22 -22 -20 -41 3 -20 11 10 25 14 37 9 17 -6 17 -5 5 10
-17 21 -25 21 -45 1z"/>
<path d="M1955 4920 c-4 -6 -15 -8 -26 -5 -25 8 -24 -9 3 -45 21 -29 21 -30 3
-50 -23 -25 -47 -26 -69 -1 -21 24 -46 17 -39 -10 3 -11 0 -19 -7 -19 -6 0
-10 -6 -7 -12 2 -8 22 -13 48 -13 41 0 44 -2 47 -28 4 -35 -13 -57 -44 -57
-15 0 -24 -6 -24 -15 0 -8 9 -15 20 -15 11 0 20 -7 20 -15 0 -8 7 -15 15 -15
8 0 15 8 15 17 0 27 28 51 55 45 29 -5 44 -44 26 -66 -8 -10 -8 -16 3 -25 11
-9 16 -9 23 1 4 7 17 13 27 13 26 0 32 22 8 29 -27 9 -35 46 -15 68 21 24 42
23 69 -3 24 -23 47 -18 37 7 -3 9 0 20 8 25 22 13 -4 34 -26 21 -45 -25 -85
30 -50 68 10 11 25 19 34 18 8 -2 17 5 19 15 2 10 -3 17 -11 17 -8 0 -17 7
-21 15 -9 24 -36 18 -36 -9 0 -32 -22 -48 -54 -40 -29 7 -42 35 -27 62 14 27
-9 47 -24 22z m48 -119 c57 -22 27 -105 -31 -85 -33 11 -41 48 -16 75 20 22
16 21 47 10z"/>
<path d="M396 4846 c-38 -19 -64 -36 -58 -40 7 -4 20 -2 30 3 29 15 68 -29 53
-57 -6 -12 -7 -23 -2 -26 8 -5 71 122 71 144 0 16 -20 11 -94 -24z m59 -26
c-16 -31 -17 -31 -36 -14 -20 18 -20 18 13 35 18 9 34 16 36 14 2 -2 -4 -17
-13 -35z"/>
<path d="M492 4757 c-29 -29 -50 -56 -46 -60 6 -6 114 94 114 106 0 17 -19 3
-68 -46z"/>
<path d="M521 4726 c-29 -30 -49 -56 -44 -59 5 -3 33 18 62 47 29 30 49 56 44
59 -5 3 -33 -18 -62 -47z"/>
<path d="M618 4683 c-10 -2 -18 -10 -18 -16 0 -6 -11 -23 -25 -37 -25 -26 -26
-60 -3 -60 6 0 8 6 5 14 -8 20 16 49 44 52 35 4 35 4 20 13 -12 8 -12 12 -2
25 14 16 10 17 -21 9z"/>
<path d="M690 4644 c0 -8 5 -12 10 -9 6 3 10 10 10 16 0 5 -4 9 -10 9 -5 0
-10 -7 -10 -16z"/>
<path d="M1560 4595 c-19 -19 -29 -35 -24 -35 6 0 15 5 22 12 8 8 15 8 27 -2
14 -12 14 -15 -1 -31 -14 -15 -14 -19 -3 -19 8 0 27 16 42 35 26 33 26 50 -1
23 -8 -8 -15 -8 -27 2 -14 12 -14 15 1 31 31 34 -1 20 -36 -16z"/>
<path d="M627 4592 c-40 -42 -33 -62 8 -22 19 19 35 38 35 42 0 15 -16 8 -43
-20z"/>
<path d="M675 4570 c-27 -27 -46 -53 -42 -57 8 -7 107 85 107 99 0 17 -18 6
-65 -42z"/>
<path d="M694 4527 c-22 -19 -26 -29 -20 -51 7 -27 42 -49 61 -38 5 3 -3 10
-18 15 -19 6 -27 15 -27 33 0 31 7 30 41 -2 15 -14 32 -23 38 -20 19 12 12 54
-11 70 -29 21 -32 20 -64 -7z m65 -27 c3 -25 3 -25 -18 -6 -26 23 -27 39 -3
34 9 -2 19 -14 21 -28z"/>
<path d="M1609 4524 c-16 -19 -1 -48 27 -52 18 -3 18 -2 2 11 -10 8 -18 18
-18 22 0 5 9 0 20 -10 18 -16 20 -16 26 -1 15 40 -29 64 -57 30z m46 -4 c3 -5
1 -10 -4 -10 -6 0 -11 5 -11 10 0 6 2 10 4 10 3 0 8 -4 11 -10z"/>
<path d="M1668 4480 c-22 -21 -23 -34 -3 -50 13 -10 19 -10 35 5 25 22 25 41
3 53 -13 7 -23 4 -35 -8z m32 -7 c0 -17 -19 -37 -27 -29 -4 5 -2 11 5 13 6 3
10 9 6 14 -3 5 0 9 5 9 6 0 11 -3 11 -7z"/>
<path d="M791 4456 c-9 -11 -9 -20 -2 -35 6 -11 11 -24 11 -30 0 -14 -30 -14
-31 -1 -1 6 -2 14 -3 19 -3 23 -16 22 -16 -1 0 -30 22 -51 47 -46 19 4 23 37
8 71 -11 26 20 22 33 -5 10 -22 11 -22 11 -2 2 38 -36 57 -58 30z"/>
<path d="M1725 4433 c-27 -30 -30 -39 -15 -48 6 -3 10 1 10 10 0 9 9 19 19 22
19 5 37 43 20 43 -4 0 -20 -12 -34 -27z"/>
<path d="M1739 4394 c-16 -19 -1 -48 27 -52 18 -3 18 -2 2 11 -10 8 -18 18
-18 22 0 5 9 0 20 -10 18 -16 20 -16 26 -1 15 40 -29 64 -57 30z m46 -4 c3 -5
1 -10 -4 -10 -6 0 -11 5 -11 10 0 6 2 10 4 10 3 0 8 -4 11 -10z"/>
<path d="M1790 4345 c-13 -14 -18 -25 -12 -25 6 0 14 5 17 10 3 6 18 10 32 10
21 0 24 2 13 15 -17 20 -23 19 -50 -10z"/>
<path d="M167 3322 c-34 -35 -36 -54 -2 -22 l25 24 -6 -32 c-7 -32 -6 -32 22
-22 l29 11 -24 -25 c-14 -14 -20 -26 -15 -26 14 0 69 58 62 65 -3 3 -18 1 -33
-5 -27 -10 -27 -10 -21 25 8 42 -1 44 -37 7z"/>
<path d="M228 3239 c-23 -13 -23 -36 1 -48 14 -8 23 -6 36 9 31 34 4 63 -37
39z m22 -29 c0 -5 -4 -10 -10 -10 -5 0 -10 5 -10 10 0 6 5 10 10 10 6 0 10 -4
10 -10z"/>
<path d="M315 3220 c3 -5 8 -10 11 -10 2 0 4 5 4 10 0 6 -5 10 -11 10 -5 0 -7
-4 -4 -10z"/>
<path d="M275 3190 c-27 -30 -12 -34 15 -5 13 14 19 25 13 25 -5 0 -18 -9 -28
-20z"/>
<path d="M297 3172 c-24 -27 -21 -35 6 -17 29 19 43 8 20 -17 -19 -22 -10 -36
12 -18 18 15 20 41 3 58 -16 16 -22 15 -41 -6z"/>
<path d="M360 3091 c-7 -15 -6 -23 6 -35 14 -15 14 -16 0 -16 -9 0 -16 7 -16
15 0 8 -4 15 -10 15 -18 0 -10 -29 11 -41 19 -9 26 -7 52 19 26 26 28 33 17
46 -17 22 -47 20 -60 -3z m45 -12 c0 -7 -8 -15 -17 -17 -18 -3 -25 18 -11 32
10 10 28 1 28 -15z"/>
<path d="M418 3049 c-24 -14 -23 -36 3 -49 26 -14 51 4 47 34 -3 24 -25 30
-50 15z m22 -29 c0 -5 -4 -10 -10 -10 -5 0 -10 5 -10 10 0 6 5 10 10 10 6 0
10 -4 10 -10z"/>
<path d="M480 3008 c-11 -12 -20 -31 -19 -42 0 -20 1 -20 9 2 5 12 16 22 24
22 7 0 16 9 19 20 7 26 -7 25 -33 -2z"/>
<path d="M494 2966 c-10 -25 0 -51 21 -54 19 -3 19 -2 1 12 -17 14 -17 16 -3
31 10 9 18 11 22 5 3 -5 1 -10 -6 -10 -10 0 -10 -3 -1 -12 19 -19 40 6 22 27
-16 19 -49 20 -56 1z"/>
<path d="M0 2862 c0 -6 6 -12 13 -15 9 -3 9 -9 -1 -27 -18 -29 -10 -35 13 -9
14 15 17 24 9 36 -12 20 -34 29 -34 15z"/>
<path d="M35 2806 c-27 -20 -15 -51 20 -51 23 0 31 5 33 22 4 29 -28 47 -53
29z m35 -20 c0 -18 -16 -29 -30 -21 -13 8 -1 35 16 35 8 0 14 -6 14 -14z"/>
<path d="M95 2760 c-3 -6 -4 -20 0 -33 6 -22 6 -22 -10 -2 l-17 20 4 -20 c2
-12 11 -20 23 -20 15 0 20 6 18 25 -1 14 1 19 3 13 3 -7 10 -13 15 -13 6 0 5
8 -1 20 -12 22 -25 26 -35 10z"/>
<path d="M137 2714 c-30 -35 -27 -46 5 -17 16 14 18 15 18 0 0 -9 -4 -19 -10
-22 -13 -8 -13 -35 1 -35 5 0 8 4 5 8 -3 5 7 20 22 33 27 24 27 24 5 27 -22 3
-33 22 -13 22 6 0 10 5 10 10 0 18 -14 9 -43 -26z"/>
<path d="M190 2653 c-6 -17 -21 -35 -33 -41 -14 -7 -16 -11 -7 -11 8 0 33 8
55 19 33 16 35 19 12 15 -26 -5 -27 -4 -17 16 7 11 9 23 6 26 -3 4 -11 -7 -16
-24z"/>
</g>
</svg>
