<?xml version="1.0" standalone="no"?>
<!DOCTYPE svg PUBLIC "-//W3C//DTD SVG 20010904//EN"
 "http://www.w3.org/TR/2001/REC-SVG-20010904/DTD/svg10.dtd">
<svg version="1.0" xmlns="http://www.w3.org/2000/svg"
 width="437.000000pt" height="883.000000pt" viewBox="0 0 437.000000 883.000000"
 preserveAspectRatio="xMidYMid meet">

<g transform="translate(0.000000,883.000000) scale(0.100000,-0.100000)"
fill="#000000" stroke="none">
<path d="M1093 8823 c604 -2 1590 -2 2190 0 601 1 107 2 -1098 2 -1204 0
-1696 -1 -1092 -2z"/>
<path d="M2239 8616 c-118 -33 -105 -21 -1196 -1110 l-1043 -1041 0 -440 0
-440 2175 -2175 c1196 -1196 2178 -2184 2184 -2195 7 -14 10 19 10 115 l1 135
-733 735 c-403 404 -1329 1332 -2057 2063 -869 870 -1331 1340 -1342 1365 -22
47 -22 68 0 114 11 23 447 468 1204 1227 1309 1312 1221 1232 1312 1197 32
-12 208 -183 829 -804 l787 -787 0 119 0 119 -147 148 c-128 130 -145 150
-133 164 12 14 -11 41 -193 222 -182 183 -208 205 -222 193 -14 -12 -74 45
-523 492 -535 533 -556 551 -677 583 -70 18 -172 18 -236 1z"/>
<path d="M2621 8067 c-6 -15 1 -28 28 -54 l35 -34 20 21 20 20 -32 33 c-37 38
-61 43 -71 14z"/>
<path d="M2550 7923 l0 -77 40 39 40 39 -37 38 c-20 21 -38 38 -40 38 -2 0 -3
-35 -3 -77z"/>
<path d="M2440 7866 c0 -2 8 -10 18 -17 15 -13 16 -12 3 4 -13 16 -21 21 -21
13z"/>
<path d="M2835 7640 c-4 -6 -3 -16 3 -22 6 -6 12 -6 17 2 4 6 3 16 -3 22 -6 6
-12 6 -17 -2z"/>
<path d="M2870 7595 c0 -8 7 -15 15 -15 8 0 15 7 15 15 0 8 -7 15 -15 15 -8 0
-15 -7 -15 -15z"/>
<path d="M2910 7555 c0 -8 7 -15 15 -15 8 0 15 7 15 15 0 8 -7 15 -15 15 -8 0
-15 -7 -15 -15z"/>
<path d="M2808 6319 c-10 -5 -18 -19 -18 -29 0 -13 -7 -20 -20 -20 -11 0 -20
-4 -20 -9 0 -5 -6 -16 -14 -24 -13 -12 -9 -19 25 -53 21 -21 39 -33 39 -28 0
6 -11 21 -25 34 -28 27 -31 42 -11 59 11 10 22 6 50 -20 42 -36 47 -30 11 13
-29 35 -30 41 -10 58 13 11 21 8 50 -20 22 -21 35 -28 35 -19 0 7 -16 26 -34
42 -40 31 -36 30 -58 16z"/>
<path d="M3596 6176 c6 -41 5 -44 -21 -50 -33 -8 -55 8 -55 40 0 17 -6 24 -20
24 -11 0 -20 -7 -20 -15 0 -8 -7 -15 -15 -15 -8 0 -15 -9 -15 -21 0 -15 5 -19
18 -15 27 9 55 -25 47 -57 -8 -29 -39 -41 -66 -24 -22 14 -34 4 -24 -20 5 -10
7 -23 6 -30 -3 -22 21 -25 40 -4 24 26 41 27 62 3 23 -25 21 -48 -4 -66 -22
-15 -17 -41 7 -32 7 3 16 1 19 -4 4 -6 13 -10 21 -10 11 0 13 9 8 40 -6 37 -4
40 21 50 22 8 31 7 46 -6 11 -10 19 -25 19 -36 0 -10 7 -18 15 -18 8 0 15 7
15 15 0 8 7 15 15 15 8 0 15 7 15 15 0 8 -8 15 -18 15 -11 0 -26 8 -36 19 -13
15 -14 24 -6 46 10 25 13 27 50 21 31 -5 40 -3 40 8 0 8 -4 17 -10 21 -5 3 -7
12 -4 19 9 24 -17 29 -32 7 -19 -26 -46 -27 -68 -2 -20 22 -15 56 9 65 24 9
19 39 -5 33 -11 -3 -23 -1 -26 4 -3 5 -12 9 -19 9 -11 0 -13 -10 -9 -44z m29
-96 c41 -45 -24 -106 -67 -62 -23 22 -16 68 10 75 32 9 39 7 57 -13z"/>
<path d="M2666 6174 c-33 -33 -7 -94 41 -94 23 0 53 29 53 51 0 48 -62 76 -94
43z m70 -28 c8 -32 -2 -46 -31 -46 -31 0 -52 35 -34 56 19 23 58 18 65 -10z"/>
<path d="M1324 6110 c-28 -11 -54 -48 -54 -78 0 -51 48 -102 96 -102 33 0 73
31 84 65 12 35 6 60 -11 50 -5 -4 -9 -14 -9 -24 0 -23 -36 -61 -58 -61 -9 0
-24 5 -32 10 -12 8 -6 18 33 57 26 27 47 52 47 56 0 7 -55 37 -67 36 -4 0 -18
-4 -29 -9z m50 -27 c7 -7 -52 -73 -66 -73 -4 0 -8 11 -8 24 0 35 53 70 74 49z"/>
<path d="M2570 6079 c-16 -29 -4 -68 25 -81 52 -23 100 46 59 86 -23 23 -71
20 -84 -5z m74 -11 c27 -39 -18 -80 -52 -46 -23 23 -7 68 24 68 7 0 20 -10 28
-22z"/>
<path d="M1771 6074 c0 -11 3 -14 6 -6 3 7 2 16 -1 19 -3 4 -6 -2 -5 -13z"/>
<path d="M1822 6066 c7 -8 15 -12 17 -11 5 6 -10 25 -20 25 -5 0 -4 -6 3 -14z"/>
<path d="M1747 6028 c15 -15 31 -28 36 -28 5 0 -2 9 -17 21 -14 11 -24 24 -22
28 3 4 -2 8 -10 8 -10 0 -6 -9 13 -29z"/>
<path d="M2520 6026 c0 -8 -6 -16 -12 -19 -14 -5 48 -77 66 -77 5 0 -3 13 -18
29 -22 23 -27 36 -22 55 4 15 2 26 -4 26 -5 0 -10 -6 -10 -14z"/>
<path d="M1165 5955 c-14 -13 -25 -33 -25 -44 0 -14 -8 -21 -27 -23 -20 -2
-33 -13 -44 -35 -9 -18 -19 -30 -22 -26 -4 3 -9 -1 -12 -9 -9 -22 108 -141
123 -126 8 8 -1 24 -33 59 -48 51 -51 59 -35 90 17 30 40 23 92 -28 37 -37 51
-44 60 -35 9 9 3 21 -30 55 -48 49 -56 89 -21 108 19 10 27 5 74 -41 43 -42
54 -49 63 -37 10 11 1 24 -42 66 -61 57 -85 62 -121 26z"/>
<path d="M1635 5950 c-3 -6 1 -7 9 -4 18 7 21 14 7 14 -6 0 -13 -4 -16 -10z"/>
<path d="M1720 5950 c-9 -6 -10 -10 -3 -10 6 0 15 5 18 10 8 12 4 12 -15 0z"/>
<path d="M2430 5931 c0 -5 -9 -12 -19 -16 -50 -16 -26 -95 29 -95 18 0 34 8
44 22 14 19 16 19 22 5 9 -25 -3 -47 -26 -47 -11 0 -20 -4 -20 -10 0 -17 29
-11 50 10 29 29 25 45 -21 95 -40 44 -59 55 -59 36z m32 -38 c10 -9 18 -22 18
-29 0 -18 -35 -35 -54 -28 -21 8 -30 42 -16 59 16 19 29 19 52 -2z"/>
<path d="M1580 5903 c0 -5 13 -17 28 -27 l27 -19 -24 26 c-26 28 -31 32 -31
20z"/>
<path d="M1637 5898 c2 -5 13 -8 23 -8 10 0 21 3 23 8 3 4 -8 7 -23 7 -15 0
-26 -3 -23 -7z"/>
<path d="M3992 5897 c-8 -9 -10 -22 -6 -28 4 -8 3 -9 -5 -5 -6 4 -18 2 -26 -4
-36 -30 3 -83 40 -56 11 8 16 20 12 29 -4 11 -2 14 9 10 16 -6 19 8 5 23 -5 5
-11 18 -13 28 -3 17 -4 18 -16 3z m-6 -84 c-10 -10 -19 5 -10 18 6 11 8 11 12
0 2 -7 1 -15 -2 -18z"/>
<path d="M453 5874 c-6 -15 32 -64 50 -64 5 0 -2 9 -17 21 -28 22 -35 49 -12
49 8 0 24 -12 35 -26 12 -15 21 -22 21 -17 0 13 -44 53 -58 53 -7 0 -15 -7
-19 -16z"/>
<path d="M406 5831 c-4 -5 2 -7 13 -4 12 3 24 -3 35 -18 9 -13 16 -19 16 -13
0 14 -33 44 -48 44 -6 0 -13 -4 -16 -9z"/>
<path d="M2313 5823 c-4 -10 -11 -21 -17 -25 -11 -8 50 -78 68 -78 5 0 -2 13
-17 28 -51 54 -20 98 33 47 39 -37 52 -24 15 15 -32 33 -72 39 -82 13z"/>
<path d="M3890 5819 c0 -16 53 -57 67 -52 14 6 12 15 -4 15 -13 0 -33 20 -28
28 3 4 -4 10 -15 13 -11 3 -20 1 -20 -4z"/>
<path d="M400 5804 c0 -14 33 -44 48 -44 6 0 13 4 16 9 4 5 -2 7 -13 4 -12 -3
-24 3 -35 18 -9 13 -16 19 -16 13z"/>
<path d="M2220 5790 c0 -5 5 -10 10 -10 6 0 10 5 10 10 0 6 -4 10 -10 10 -5 0
-10 -4 -10 -10z"/>
<path d="M3864 5765 c-3 -8 -3 -19 1 -26 5 -7 1 -9 -12 -5 -24 8 -46 -15 -41
-41 5 -25 61 -25 66 0 2 9 -1 17 -7 17 -6 0 -11 -7 -11 -15 0 -8 -4 -15 -10
-15 -5 0 -10 4 -10 9 0 16 26 30 47 25 28 -8 51 30 32 52 -15 18 -48 18 -55
-1z m46 -25 c0 -5 -4 -10 -10 -10 -5 0 -10 5 -10 10 0 6 5 10 10 10 6 0 10 -4
10 -10z"/>
<path d="M323 5744 c-3 -8 -1 -20 5 -26 8 -8 9 -5 5 11 -7 26 12 28 41 4 21
-18 21 -18 2 5 -22 26 -44 29 -53 6z"/>
<path d="M2285 5720 c41 -42 45 -45 45 -32 0 12 -60 72 -73 72 -6 0 7 -18 28
-40z"/>
<path d="M937 5730 c-53 -42 -38 -128 28 -155 30 -13 39 -13 69 -1 19 8 39 23
45 34 48 89 -63 184 -142 122z m103 -30 c33 -33 26 -76 -18 -99 -19 -10 -28
-10 -47 3 -44 29 -52 65 -22 104 15 19 65 14 87 -8z"/>
<path d="M1420 5736 c0 -2 7 -7 16 -10 8 -3 12 -2 9 4 -6 10 -25 14 -25 6z"/>
<path d="M2228 5735 c-4 -4 2 -25 13 -46 11 -22 18 -39 15 -39 -2 0 -20 7 -39
15 -41 17 -47 18 -47 8 0 -9 78 -43 98 -43 16 0 15 6 -11 63 -12 27 -25 46
-29 42z"/>
<path d="M3760 5702 c0 -4 5 -13 10 -18 8 -8 6 -15 -5 -24 -14 -12 -18 -11
-25 0 -5 8 -12 11 -16 7 -5 -4 6 -22 24 -39 17 -18 35 -29 39 -25 3 4 1 13 -5
19 -17 17 5 43 25 27 27 -23 26 2 -2 31 -28 30 -45 38 -45 22z"/>
<path d="M777 5684 c-12 -13 -8 -23 29 -60 l37 -36 -46 -46 -47 -46 -40 39
c-31 31 -43 36 -52 27 -10 -10 7 -32 80 -104 72 -73 94 -90 104 -80 10 10 3
21 -30 55 l-42 43 43 42 c23 23 48 42 55 42 6 0 19 -11 28 -25 20 -31 53 -50
65 -38 5 5 -31 48 -84 101 -51 51 -96 89 -100 86z"/>
<path d="M2106 5681 c-4 -5 -2 -12 3 -15 5 -4 12 -2 15 3 4 5 2 12 -3 15 -5 4
-12 2 -15 -3z"/>
<path d="M1344 5633 c11 -13 16 -31 13 -43 -3 -11 -1 -18 4 -14 16 10 9 41
-13 60 l-23 19 19 -22z"/>
<path d="M2140 5642 c0 -14 69 -76 77 -69 3 4 -9 23 -27 42 -33 34 -50 43 -50
27z"/>
<path d="M2030 5602 c0 -4 24 -31 53 -60 l53 -52 29 30 c34 35 26 54 -9 21
l-24 -23 -45 46 c-43 45 -57 54 -57 38z"/>
<path d="M1290 5596 c0 -2 8 -10 18 -17 15 -13 16 -12 3 4 -13 16 -21 21 -21
13z"/>
<path d="M1240 5530 c0 -5 5 -10 10 -10 6 0 10 5 10 10 0 6 -4 10 -10 10 -5 0
-10 -4 -10 -10z"/>
<path d="M1080 5375 c19 -19 36 -35 39 -35 3 0 -10 16 -29 35 -19 19 -36 35
-39 35 -3 0 10 -16 29 -35z"/>
<path d="M1121 5396 c-9 -11 -9 -16 1 -22 7 -4 10 -4 6 1 -4 4 -3 14 3 22 6 7
9 13 6 13 -2 0 -10 -6 -16 -14z"/>
<path d="M1060 5356 c0 -2 8 -10 18 -17 15 -13 16 -12 3 4 -13 16 -21 21 -21
13z"/>
<path d="M1029 5318 c14 -16 32 -28 40 -27 14 0 14 1 1 6 -8 3 -26 15 -40 27
l-25 21 24 -27z"/>
<path d="M923 5274 c-3 -8 3 -23 15 -34 19 -18 20 -18 25 -1 3 15 0 17 -16 13
-17 -4 -19 -1 -15 16 7 25 0 30 -9 6z"/>
<path d="M2244 4908 c-39 -37 -64 -69 -64 -82 0 -14 40 -62 113 -134 l112
-112 80 80 80 80 -115 115 c-63 63 -121 115 -128 115 -8 0 -43 -28 -78 -62z
m176 -73 l94 -95 -54 -55 -54 -55 -98 97 -98 97 52 53 c29 29 55 53 58 53 3 0
48 -43 100 -95z"/>
<path d="M2374 4819 c-10 -17 13 -36 27 -22 12 12 4 33 -11 33 -5 0 -12 -5
-16 -11z"/>
<path d="M3902 4904 c-41 -29 -16 -78 28 -54 26 14 40 12 40 -5 0 -14 -12 -19
-32 -16 -5 0 -8 -3 -8 -9 0 -19 39 -10 50 11 24 43 -4 59 -62 34 -13 -5 -18
-2 -18 10 0 9 9 19 20 22 11 3 20 9 20 14 0 13 -13 11 -38 -7z"/>
<path d="M3815 4816 c-17 -26 -11 -50 19 -75 22 -18 65 -5 75 22 12 31 1 44
-13 15 -6 -12 -22 -24 -34 -26 -29 -4 -28 6 4 39 14 15 23 32 20 38 -13 20
-55 12 -71 -13z m38 -18 c-24 -23 -40 -20 -30 7 4 8 17 15 29 15 l22 0 -21
-22z"/>
<path d="M3730 4800 c0 -20 97 -116 107 -107 4 4 -19 33 -50 65 -33 33 -57 50
-57 42z"/>
<path d="M3690 4760 c0 -5 7 -10 16 -10 8 0 12 5 9 10 -3 6 -10 10 -16 10 -5
0 -9 -4 -9 -10z"/>
<path d="M3730 4734 c0 -18 56 -77 68 -73 8 3 -3 20 -28 44 -22 21 -40 35 -40
29z"/>
<path d="M2976 4704 c-7 -17 19 -54 37 -54 6 0 3 8 -7 19 -9 10 -14 25 -10 35
3 9 2 16 -4 16 -5 0 -13 -7 -16 -16z"/>
<path d="M3664 4694 c3 -9 6 -20 6 -25 0 -5 5 -9 11 -9 6 0 24 -11 40 -25 28
-23 59 -25 59 -3 0 6 -6 8 -14 5 -16 -6 -58 35 -54 53 2 7 -9 13 -25 15 -22 3
-27 0 -23 -11z"/>
<path d="M2930 4656 c-27 -33 18 -72 48 -42 13 13 14 20 6 34 -15 23 -38 26
-54 8z m44 -27 c-8 -14 -34 -11 -34 4 0 8 3 17 7 20 9 9 34 -13 27 -24z"/>
<path d="M3570 4642 c0 -14 106 -113 113 -105 4 4 -16 31 -45 60 -50 50 -68
63 -68 45z"/>
<path d="M2883 4613 c-7 -2 -13 -14 -13 -25 0 -20 -1 -20 -18 -5 -21 19 -38
11 -21 -10 9 -10 8 -13 0 -13 -8 0 -11 -11 -9 -27 2 -21 9 -29 26 -31 23 -3
55 25 46 39 -2 4 5 9 16 12 26 7 36 33 20 52 -13 15 -25 17 -47 8z m37 -26 c0
-8 -3 -17 -7 -20 -9 -9 -34 13 -27 24 8 14 34 11 34 -4z m-54 -48 c10 -17 -13
-36 -27 -22 -12 12 -4 33 11 33 5 0 12 -5 16 -11z"/>
<path d="M3540 4612 c0 -14 106 -113 113 -105 4 4 -16 31 -45 60 -50 50 -68
63 -68 45z"/>
<path d="M3470 4545 c0 -18 65 -153 72 -149 4 3 3 15 -3 26 -9 17 -7 25 14 45
20 21 28 23 45 14 11 -6 23 -7 26 -2 3 5 -26 23 -64 40 -69 30 -90 36 -90 26z
m61 -31 c30 -15 30 -16 13 -35 -9 -10 -18 -18 -19 -17 -10 12 -34 68 -30 68 3
0 20 -7 36 -16z"/>
<path d="M2761 4490 c-7 -4 -11 -18 -9 -31 4 -30 52 -40 62 -13 9 23 -3 33
-15 11 -6 -9 -15 -17 -21 -17 -6 0 -4 8 5 18 10 10 17 21 17 24 0 11 -27 16
-39 8z"/>
<path d="M2712 4438 c-7 -7 -12 -20 -12 -31 0 -10 -5 -15 -11 -12 -5 4 -19 -1
-30 -11 -19 -17 -19 -18 3 -42 l23 -25 -28 18 -28 18 -42 -40 c-23 -22 -48
-39 -55 -36 -8 3 -10 -1 -6 -11 4 -11 -3 -24 -20 -37 l-27 -21 20 -22 20 -22
-20 -12 c-24 -16 -37 -8 -21 11 15 18 3 30 -15 15 -19 -15 -29 -2 -13 17 20
24 6 28 -15 5 -18 -20 -18 -21 13 -52 l32 -32 30 29 c28 27 29 30 13 47 -21
23 -9 36 18 19 25 -15 36 -9 14 9 -8 7 -15 17 -15 23 0 5 9 2 20 -8 19 -17 21
-17 40 0 19 17 19 20 4 36 -9 10 -13 23 -9 28 9 15 26 14 23 -1 -5 -24 37 -18
55 7 14 20 15 28 5 44 -17 28 -2 38 22 16 18 -16 25 -14 21 8 0 4 8 7 18 7 10
0 22 7 25 16 9 24 -2 31 -17 10 -12 -16 -14 -16 -26 -2 -11 13 -11 17 3 22 9
3 16 10 16 15 0 13 -14 11 -28 -3z m-62 -128 c0 -5 -5 -10 -11 -10 -5 0 -7 5
-4 10 3 6 8 10 11 10 2 0 4 -4 4 -10z m-55 -68 c-9 -9 -35 8 -35 24 0 16 2 16
20 -1 11 -10 18 -20 15 -23z"/>
<path d="M3491 3646 c-36 -37 -61 -70 -59 -80 1 -8 52 -65 113 -126 l109 -111
80 81 81 80 -110 110 c-68 68 -117 110 -130 110 -12 0 -47 -27 -84 -64z m217
-213 l-57 -57 -95 95 -95 94 57 58 57 57 95 -95 95 -95 -57 -57z"/>
<path d="M3631 3567 c-9 -11 -8 -17 3 -26 10 -9 15 -8 19 2 9 23 -8 41 -22 24z"/>
<path d="M4226 3443 c-4 -10 1 -24 13 -37 26 -25 40 -13 17 13 -10 11 -15 25
-11 30 3 6 2 11 -3 11 -6 0 -13 -8 -16 -17z"/>
<path d="M4180 3406 c-7 -9 -10 -22 -7 -30 4 -10 -2 -16 -21 -18 -35 -4 -43
-42 -12 -58 25 -14 50 2 50 31 0 12 7 19 20 19 25 0 37 27 23 49 -14 22 -37
25 -53 7z m45 -26 c0 -22 -29 -18 -33 3 -3 14 1 18 15 15 10 -2 18 -10 18 -18z
m-56 -43 c12 -15 5 -27 -16 -27 -7 0 -13 9 -13 20 0 23 13 26 29 7z"/>
<path d="M4077 3329 c8 -8 9 -16 1 -29 -24 -39 19 -75 53 -44 19 17 19 18 -13
51 -17 18 -36 33 -42 33 -6 0 -5 -5 1 -11z m41 -52 c2 -10 -3 -17 -12 -17 -18
0 -29 16 -21 31 9 14 29 6 33 -14z"/>
<path d="M4007 3233 c-4 -3 -7 -14 -7 -24 0 -11 -9 -19 -22 -21 -31 -4 -36
-43 -8 -58 24 -13 50 1 50 26 0 8 6 14 14 14 18 0 41 28 31 38 -4 4 -10 1 -12
-5 -3 -7 -9 -13 -15 -13 -6 0 -4 8 5 18 10 10 14 22 10 25 -8 9 -38 9 -46 0z
m23 -13 c0 -5 -5 -10 -11 -10 -5 0 -7 5 -4 10 3 6 8 10 11 10 2 0 4 -4 4 -10z
m-23 -60 c-6 -11 -17 -20 -24 -20 -20 0 -15 38 5 43 26 6 33 -2 19 -23z"/>
<path d="M3912 3132 l-22 -19 25 -23 c14 -13 27 -21 30 -18 3 3 -1 11 -10 18
-15 12 -21 40 -8 40 3 0 15 -7 25 -17 27 -24 32 -10 5 15 -23 22 -24 22 -45 4z"/>
<path d="M3832 3055 c-21 -22 -38 -32 -49 -28 -12 5 -14 1 -8 -15 3 -13 2 -22
-4 -22 -6 0 -15 -9 -21 -21 -9 -16 -8 -24 4 -38 15 -16 15 -19 -3 -35 -22 -20
-40 -4 -21 19 14 17 -1 20 -17 4 -16 -16 -28 8 -12 27 20 24 4 26 -19 1 l-22
-23 35 -34 36 -35 29 32 c25 27 27 33 15 43 -15 13 -21 40 -8 40 3 0 15 -7 25
-17 25 -23 35 -8 12 18 l-19 22 25 -16 c24 -16 27 -15 42 3 14 16 15 20 2 31
-19 16 -18 25 6 49 l21 21 -7 -25 c-8 -31 12 -43 37 -20 18 16 18 18 3 36 -24
26 -44 22 -82 -17z m68 -5 c0 -5 -5 -10 -11 -10 -5 0 -7 5 -4 10 3 6 8 10 11
10 2 0 4 -4 4 -10z m-56 -62 c-8 -12 -34 11 -34 30 0 13 3 12 20 -3 11 -10 17
-22 14 -27z"/>
<path d="M4331 2694 c0 -11 3 -14 6 -6 3 7 2 16 -1 19 -3 4 -6 -2 -5 -13z"/>
<path d="M4340 2661 c0 -6 4 -13 10 -16 6 -3 7 1 4 9 -7 18 -14 21 -14 7z"/>
<path d="M2667 1614 c-16 -16 -6 -35 16 -32 12 2 22 10 22 18 0 16 -26 25 -38
14z"/>
<path d="M1321 1592 c-86 -43 -97 -202 -19 -256 34 -24 50 -19 23 8 -46 46
-55 139 -19 208 19 36 49 51 88 44 22 -4 27 -3 16 4 -22 14 -51 12 -89 -8z"/>
<path d="M1460 1589 c0 -6 -7 -8 -16 -5 -14 5 -15 4 -5 -8 7 -8 16 -27 21 -43
7 -25 8 -22 9 20 1 26 -1 47 -4 47 -3 0 -5 -5 -5 -11z"/>
<path d="M1950 1470 c0 -107 2 -122 20 -140 19 -19 40 -27 40 -14 0 3 -7 12
-16 21 -11 12 -15 36 -14 102 2 143 1 151 -15 151 -12 0 -15 -20 -15 -120z"/>
<path d="M1524 1514 c12 -11 16 -36 16 -92 0 -86 4 -96 40 -107 24 -7 24 -7 8
12 -14 16 -18 38 -18 111 l0 92 -31 0 c-28 0 -29 -1 -15 -16z"/>
<path d="M1644 1514 c26 -25 22 -134 -6 -170 l-22 -29 22 19 c19 17 22 17 22
3 0 -12 9 -17 27 -17 21 0 24 3 15 12 -8 8 -12 46 -12 105 l0 93 -31 0 c-28 0
-29 -1 -15 -16z"/>
<path d="M1778 1519 c-11 -6 -18 -22 -18 -40 0 -24 9 -36 45 -61 56 -40 66
-65 34 -91 l-24 -20 25 8 c30 8 50 32 50 57 0 18 -12 32 -79 87 -30 24 -32 30
-22 49 13 25 13 25 -11 11z"/>
<path d="M2114 1515 c-30 -20 -48 -69 -41 -111 7 -44 32 -84 53 -84 14 0 13 2
0 22 -24 34 -21 129 5 162 23 29 15 34 -17 11z"/>
<path d="M2195 1506 c26 -40 23 -141 -5 -171 l-22 -24 21 6 c77 20 83 164 10
204 -20 10 -20 10 -4 -15z"/>
<path d="M2306 1503 c16 -32 19 -135 4 -164 -9 -17 -7 -19 17 -19 l28 0 -2 87
c-1 49 -2 96 -3 106 0 12 -8 17 -29 17 -29 0 -30 0 -15 -27z"/>
<path d="M2386 1521 c-4 -5 3 -7 14 -4 15 4 22 -2 30 -22 13 -34 13 -131 0
-156 -9 -17 -7 -19 17 -19 l28 0 0 82 c0 68 -4 87 -19 106 -20 22 -60 30 -70
13z"/>
<path d="M2506 1522 c-3 -5 5 -8 17 -8 21 1 22 -2 22 -97 0 -97 0 -97 25 -97
l25 0 -5 88 c-3 54 -10 96 -19 106 -14 17 -56 22 -65 8z"/>
<path d="M2653 1519 c14 -8 17 -25 17 -99 0 -61 -4 -90 -12 -93 -7 -3 5 -6 27
-6 30 -1 36 2 27 11 -8 8 -12 46 -12 105 l0 93 -32 0 c-27 -1 -30 -2 -15 -11z"/>
<path d="M2771 1498 c0 -18 3 -26 6 -18 3 8 12 23 21 33 14 15 13 17 -6 17
-18 0 -22 -6 -21 -32z"/>
<path d="M2826 1431 c-31 -54 -56 -102 -56 -105 0 -3 6 -6 14 -6 14 0 126 178
126 199 0 6 -6 11 -14 11 -8 0 -40 -45 -70 -99z"/>
<path d="M3004 1518 c-51 -24 -66 -129 -25 -172 42 -45 107 -41 132 6 l11 23
-21 -22 c-49 -52 -111 -9 -111 77 0 33 6 55 21 74 11 14 19 26 17 25 -2 0 -13
-5 -24 -11z"/>
<path d="M3063 1512 c10 -10 17 -28 17 -40 0 -16 6 -22 21 -22 16 0 19 4 14
23 -7 24 -41 57 -58 57 -5 0 -3 -8 6 -18z"/>
<path d="M1859 1501 c5 -9 11 -23 14 -31 3 -8 6 -1 6 16 1 20 -4 31 -13 31
-10 0 -12 -5 -7 -16z"/>
<path d="M1460 1390 c0 -12 -11 -32 -25 -45 -13 -14 -21 -25 -17 -25 5 0 14 6
20 12 10 10 15 10 22 -2 7 -11 10 -1 10 33 0 26 -2 47 -5 47 -3 0 -5 -9 -5
-20z"/>
<path d="M1761 1364 c-1 -29 22 -54 37 -39 3 3 0 5 -6 5 -6 0 -16 15 -21 33
l-9 32 -1 -31z"/>
<path d="M2900 1368 c0 -6 -7 -20 -17 -30 -15 -17 -15 -18 5 -18 18 0 22 6 22
30 0 17 -2 30 -5 30 -3 0 -5 -5 -5 -12z"/>
<path d="M2031 1337 c-13 -21 -12 -21 5 -5 10 10 16 20 13 22 -3 3 -11 -5 -18
-17z"/>
<path d="M1750 1121 c0 -28 -2 -31 -24 -25 -19 4 -28 0 -41 -20 -32 -48 1
-100 55 -89 24 4 25 7 23 79 -1 72 -13 121 -13 55z m-5 -81 c0 -31 -3 -35 -25
-35 -19 0 -26 6 -28 23 -5 36 5 54 30 50 19 -2 23 -9 23 -38z"/>
<path d="M2472 1138 c-7 -7 -12 -17 -12 -24 0 -7 -6 -15 -12 -17 -10 -4 -10
-6 0 -6 8 -1 12 -18 12 -51 0 -27 5 -50 10 -50 6 0 10 22 10 49 0 30 5 51 13
54 10 4 10 6 0 6 -18 1 -16 31 2 31 8 0 15 5 15 10 0 14 -23 13 -38 -2z"/>
<path d="M3132 1073 c-2 -66 1 -83 12 -83 8 0 21 -3 29 -6 21 -8 47 23 47 56
0 37 -26 63 -56 56 -20 -5 -23 -2 -27 26 -2 18 -5 -4 -5 -49z m63 -33 c0 -31
-3 -35 -25 -35 -19 0 -26 6 -28 23 -5 36 5 54 30 50 19 -2 23 -9 23 -38z"/>
<path d="M3728 1123 c-14 -31 -12 -133 3 -133 5 0 9 22 9 49 0 30 5 51 13 54
10 4 10 6 0 6 -18 1 -16 31 2 31 8 0 15 5 15 10 0 21 -30 9 -42 -17z"/>
<path d="M3913 1070 c0 -47 2 -66 4 -42 2 23 2 61 0 85 -2 23 -4 4 -4 -43z"/>
<path d="M402 1063 l1 -78 6 60 6 60 24 -57 c13 -32 26 -58 30 -58 4 0 18 26
32 58 l24 57 6 -60 6 -60 1 78 c1 42 -2 77 -6 77 -5 0 -21 -28 -36 -62 l-27
-63 -26 63 c-14 34 -29 62 -34 62 -5 0 -8 -35 -7 -77z"/>
<path d="M2010 1130 c0 -5 5 -10 10 -10 6 0 10 5 10 10 0 6 -4 10 -10 10 -5 0
-10 -4 -10 -10z"/>
<path d="M3660 1130 c0 -5 5 -10 10 -10 6 0 10 5 10 10 0 6 -4 10 -10 10 -5 0
-10 -4 -10 -10z"/>
<path d="M3592 1105 c-7 -9 -8 -15 -2 -15 5 0 10 -22 10 -49 0 -51 13 -72 33
-52 8 8 8 11 -1 11 -8 0 -12 17 -12 45 0 25 5 45 11 45 6 0 4 7 -5 15 -18 18
-18 18 -34 0z"/>
<path d="M590 1085 c-14 -17 0 -21 17 -4 13 13 33 4 33 -16 0 -7 -12 -15 -27
-17 -22 -2 -29 -9 -31 -29 -4 -30 12 -39 51 -32 24 5 27 10 27 47 0 60 -39 88
-70 51z m53 -51 c11 -11 -5 -34 -23 -34 -22 0 -34 15 -25 30 7 11 38 14 48 4z"/>
<path d="M694 1091 c-8 -9 -4 -101 5 -101 6 0 11 19 13 43 2 35 7 43 26 45 20
3 22 -1 22 -42 0 -25 5 -46 10 -46 14 0 12 86 -2 98 -12 10 -65 12 -74 3z"/>
<path d="M824 1084 c-19 -15 -19 -16 1 -9 11 4 22 7 25 7 38 3 42 -29 4 -34
-36 -4 -54 -32 -33 -53 10 -11 25 -13 47 -9 29 6 32 10 32 45 0 59 -36 85 -76
53z m54 -61 c-4 -22 -48 -31 -48 -10 0 19 10 27 32 27 13 0 18 -6 16 -17z"/>
<path d="M939 1084 c-18 -21 -13 -76 7 -91 10 -7 27 -10 37 -7 14 4 18 2 15
-7 -3 -8 -19 -14 -37 -14 -28 0 -30 -1 -14 -12 42 -32 73 5 73 87 l0 56 -35 1
c-19 1 -40 -5 -46 -13z m56 -44 c0 -29 -4 -36 -22 -38 -17 -3 -24 3 -29 22 -9
37 2 58 28 54 19 -2 23 -9 23 -38z"/>
<path d="M1054 1075 c-30 -46 7 -105 56 -90 30 10 24 20 -12 20 -23 0 -34 5
-36 18 -3 14 4 17 37 17 45 0 48 5 25 38 -20 29 -50 28 -70 -3z m64 -12 c2 -9
-7 -13 -27 -13 -30 0 -39 9 -24 24 11 10 46 3 51 -11z"/>
<path d="M1223 1041 c21 -58 21 -60 3 -80 -11 -12 -14 -21 -9 -21 17 0 32 24
53 85 22 65 24 79 11 70 -5 -3 -12 -19 -16 -35 -9 -40 -21 -38 -35 5 -6 19
-15 35 -20 35 -5 0 1 -27 13 -59z"/>
<path d="M1327 1082 c-25 -28 -21 -69 7 -87 49 -33 96 28 62 80 -19 30 -46 32
-69 7z m58 -42 c0 -31 -3 -35 -25 -35 -19 0 -26 6 -28 23 -5 36 5 54 30 50 19
-2 23 -9 23 -38z"/>
<path d="M1442 1049 c-2 -62 5 -71 51 -62 26 5 27 8 26 62 -1 31 -4 43 -6 26
-8 -67 -13 -76 -36 -73 -18 2 -23 11 -28 53 l-6 50 -1 -56z"/>
<path d="M1550 1044 c0 -30 5 -54 10 -54 6 0 10 18 10 40 0 27 5 43 15 46 23
9 18 22 -10 22 -24 0 -25 -4 -25 -54z"/>
<path d="M1805 1076 c-31 -47 6 -107 55 -91 30 10 24 20 -12 20 -23 0 -34 5
-36 17 -3 13 5 17 37 20 40 3 40 4 28 28 -17 35 -52 38 -72 6z m65 -17 c0 -5
-13 -9 -30 -9 -33 0 -39 14 -13 29 18 10 43 -2 43 -20z"/>
<path d="M1906 1078 c12 -39 34 -88 40 -88 5 0 26 48 38 88 4 12 3 22 -2 22
-5 0 -15 -19 -22 -42 l-13 -43 -13 30 c-7 17 -13 36 -14 43 0 6 -5 12 -11 12
-6 0 -8 -9 -3 -22z"/>
<path d="M2017 1093 c-11 -10 -8 -103 3 -103 6 0 10 25 10 55 0 56 -1 60 -13
48z"/>
<path d="M2076 1084 c-41 -41 4 -121 53 -94 12 6 21 15 21 20 0 6 -8 5 -19 -1
-28 -18 -51 -4 -51 31 0 35 23 49 51 31 21 -13 26 -2 7 17 -17 17 -44 15 -62
-4z"/>
<path d="M2187 1082 c-39 -42 -2 -109 51 -95 32 8 27 18 -10 18 -23 0 -34 5
-36 18 -3 14 4 17 32 17 28 0 36 4 36 18 0 41 -45 55 -73 24z m61 -19 c2 -9
-7 -13 -27 -13 -30 0 -39 9 -24 24 11 10 46 3 51 -11z"/>
<path d="M2302 1088 c-21 -21 -13 -37 24 -53 19 -8 33 -19 29 -25 -8 -13 -42
-13 -50 0 -9 15 -25 12 -19 -4 13 -33 84 -24 84 10 0 9 -13 21 -30 27 -42 16
-41 42 1 33 27 -5 30 -4 19 9 -15 18 -42 19 -58 3z"/>
<path d="M2532 1040 c1 -52 2 -52 5 -11 3 32 9 44 24 48 27 8 24 21 -6 19 -24
-1 -25 -4 -23 -56z"/>
<path d="M2606 1078 c-22 -30 -20 -54 5 -79 21 -21 56 -19 71 5 14 20 8 63
-10 79 -25 23 -48 21 -66 -5z m59 -38 c0 -31 -3 -35 -25 -35 -19 0 -26 6 -28
23 -5 36 5 54 30 50 19 -2 23 -9 23 -38z"/>
<path d="M2721 1040 c1 -30 3 -44 6 -30 10 65 13 71 36 68 18 -2 23 -11 26
-48 l5 -45 5 45 c5 40 9 45 31 45 22 0 26 -5 31 -45 l6 -45 1 52 c2 44 -1 53
-18 58 -12 4 -27 2 -35 -5 -9 -7 -15 -8 -20 -1 -3 6 -22 10 -41 8 l-34 -2 1
-55z"/>
<path d="M2970 1085 c-14 -17 0 -21 17 -4 13 13 33 4 33 -17 0 -8 -10 -14 -25
-14 -33 0 -51 -33 -29 -55 9 -9 23 -14 31 -11 8 3 21 6 29 6 18 0 20 80 2 98
-16 16 -43 15 -58 -3z m50 -65 c0 -21 -33 -29 -45 -10 -9 15 4 30 26 30 12 0
19 -7 19 -20z"/>
<path d="M3255 1076 c-31 -47 3 -103 53 -89 32 8 27 18 -10 18 -23 0 -34 5
-36 17 -3 13 5 17 37 20 40 3 40 4 28 28 -17 35 -52 38 -72 6z m65 -16 c0 -6
-13 -10 -30 -10 -32 0 -37 9 -18 28 12 12 48 -1 48 -18z"/>
<path d="M3370 1085 c-15 -18 1 -20 18 -3 8 8 15 8 27 -2 23 -19 18 -28 -17
-32 -27 -2 -34 -8 -36 -29 -4 -30 10 -38 53 -32 29 4 30 6 27 46 -3 23 -9 48
-14 55 -14 16 -43 15 -58 -3z m58 -62 c-4 -20 -35 -30 -50 -15 -15 15 0 32 28
32 19 0 25 -5 22 -17z"/>
<path d="M3482 1049 c-2 -62 5 -71 51 -62 25 5 27 9 27 60 0 33 -4 52 -10 48
-5 -3 -10 -26 -10 -51 0 -41 -2 -45 -22 -42 -19 2 -24 11 -29 53 l-6 50 -1
-56z"/>
<path d="M3667 1093 c-11 -10 -8 -103 3 -103 6 0 10 25 10 55 0 56 -1 60 -13
48z"/>
<path d="M3791 1054 c-1 -59 13 -78 53 -68 24 6 26 10 24 63 l-1 56 -6 -50
c-5 -42 -10 -51 -28 -53 -23 -3 -28 6 -36 73 -2 18 -5 9 -6 -21z"/>
<path d="M3961 1003 c0 -6 -4 -20 -7 -30 -5 -14 -4 -15 5 -7 7 7 11 20 8 30
-3 11 -5 14 -6 7z"/>
<path d="M1880 874 c0 -20 -4 -25 -16 -20 -30 12 -54 -12 -54 -54 0 -45 19
-61 63 -53 27 5 27 7 27 79 0 43 -4 74 -10 74 -5 0 -10 -12 -10 -26z m-5 -74
c0 -29 -4 -36 -23 -38 -26 -4 -37 17 -28 54 5 19 12 25 29 22 18 -2 22 -9 22
-38z"/>
<path d="M2700 890 c0 -5 5 -10 10 -10 6 0 10 5 10 10 0 6 -4 10 -10 10 -5 0
-10 -4 -10 -10z"/>
<path d="M2970 826 c0 -72 1 -74 27 -79 36 -7 53 1 64 29 16 45 -18 92 -56 78
-11 -5 -15 1 -15 20 0 14 -4 26 -10 26 -6 0 -10 -31 -10 -74z m75 -6 c10 -33
-4 -62 -28 -58 -22 3 -34 35 -23 64 8 21 44 17 51 -6z"/>
<path d="M3090 825 c0 -43 4 -75 10 -75 6 0 10 32 10 75 0 43 -4 75 -10 75 -6
0 -10 -32 -10 -75z"/>
<path d="M2323 865 c-8 -9 -9 -16 -3 -20 6 -3 10 -26 10 -50 0 -25 5 -45 13
-48 11 -4 13 27 7 126 0 11 -14 8 -27 -8z"/>
<path d="M1097 842 c-18 -19 -22 -59 -9 -78 13 -20 47 -25 68 -10 18 13 17 14
-16 13 -25 -2 -35 2 -38 16 -3 14 4 17 32 17 40 0 47 17 20 44 -20 21 -37 20
-57 -2z m53 -17 c0 -9 -9 -15 -25 -15 -16 0 -25 6 -25 15 0 9 9 15 25 15 16 0
25 -6 25 -15z"/>
<path d="M1218 853 c-31 -8 -19 -23 12 -16 42 8 40 -20 -2 -32 -60 -18 -38
-70 25 -58 24 5 27 9 27 49 0 33 -5 46 -19 54 -11 5 -21 9 -23 9 -2 -1 -11 -3
-20 -6z m40 -70 c-4 -22 -48 -31 -48 -10 0 19 10 27 32 27 13 0 18 -6 16 -17z"/>
<path d="M1328 849 c-28 -16 -21 -37 18 -54 19 -8 33 -19 29 -25 -8 -14 -38
-13 -53 2 -9 9 -12 9 -12 0 0 -17 34 -32 58 -25 33 8 28 42 -8 56 -16 6 -30
17 -30 24 0 16 32 17 48 1 9 -9 12 -9 12 0 0 6 -9 16 -19 22 -23 12 -22 12
-43 -1z"/>
<path d="M1415 843 c35 -86 38 -104 20 -123 -10 -11 -13 -20 -8 -20 18 0 32
24 52 90 20 64 21 98 1 44 -6 -16 -13 -36 -16 -44 -4 -10 -11 0 -21 28 -8 23
-19 42 -25 42 -6 0 -7 -8 -3 -17z"/>
<path d="M1598 853 c-31 -8 -19 -23 12 -16 42 8 40 -20 -2 -32 -60 -18 -38
-70 25 -58 24 5 27 9 27 49 0 33 -5 46 -19 54 -11 5 -21 9 -23 9 -2 -1 -11 -3
-20 -6z m40 -70 c-4 -22 -48 -31 -48 -10 0 19 10 27 32 27 13 0 18 -6 16 -17z"/>
<path d="M1690 803 c0 -63 18 -71 22 -10 2 35 7 43 26 45 20 3 22 -1 22 -42 0
-25 5 -46 10 -46 15 0 12 87 -2 97 -7 4 -28 8 -45 8 l-33 0 0 -52z"/>
<path d="M1996 844 c-17 -17 -21 -61 -7 -83 5 -7 21 -13 36 -13 29 0 53 17 40
29 -4 5 -10 2 -12 -4 -8 -21 -51 -15 -58 7 -10 32 4 60 30 60 13 0 25 -6 28
-12 2 -7 8 -9 13 -5 10 9 -22 37 -42 37 -7 0 -20 -7 -28 -16z"/>
<path d="M2098 854 c-5 -4 -8 -24 -8 -45 0 -41 24 -74 47 -65 8 3 21 6 29 6
10 0 14 14 14 56 0 34 -4 53 -10 49 -5 -3 -10 -26 -10 -51 0 -41 -2 -45 -22
-42 -19 2 -24 11 -28 51 -3 27 -8 45 -12 41z"/>
<path d="M2228 849 c-28 -16 -21 -37 18 -54 19 -8 33 -19 29 -25 -8 -14 -38
-13 -53 2 -9 9 -12 9 -12 0 0 -17 36 -33 57 -25 41 15 37 48 -8 58 -16 4 -29
13 -29 21 0 17 31 19 48 2 9 -9 12 -9 12 0 0 6 -9 16 -19 22 -23 12 -22 12
-43 -1z"/>
<path d="M2405 846 c-20 -15 -25 -70 -7 -88 15 -15 63 -13 73 3 14 22 10 66
-7 83 -19 20 -35 20 -59 2z m59 -28 c14 -23 -3 -52 -32 -56 -23 -4 -37 26 -27
59 8 24 43 23 59 -3z"/>
<path d="M2510 803 c0 -29 5 -53 10 -53 6 0 10 20 10 45 0 41 2 45 25 45 23 0
25 -4 25 -45 0 -25 5 -45 10 -45 6 0 10 20 10 45 0 41 2 45 25 45 23 0 25 -4
25 -45 0 -25 5 -45 10 -45 6 0 10 18 10 39 0 45 -23 76 -49 65 -9 -3 -20 -6
-26 -5 -5 0 -27 2 -47 4 l-38 3 0 -53z"/>
<path d="M2700 805 c0 -30 5 -55 10 -55 6 0 10 25 10 55 0 30 -4 55 -10 55 -5
0 -10 -25 -10 -55z"/>
<path d="M2750 851 c0 -5 11 -11 25 -13 l25 -3 -25 -37 c-14 -20 -25 -39 -25
-42 0 -4 19 -5 43 -5 41 2 41 2 9 8 l-33 6 30 40 c17 22 31 43 31 48 0 4 -18
7 -40 7 -22 0 -40 -4 -40 -9z"/>
<path d="M2878 853 c-31 -8 -19 -23 12 -16 42 8 40 -20 -2 -32 -60 -18 -38
-70 25 -58 24 5 27 9 27 49 0 33 -5 46 -19 54 -11 5 -21 9 -23 9 -2 -1 -11 -3
-20 -6z m40 -70 c-4 -22 -48 -31 -48 -10 0 19 10 27 32 27 13 0 18 -6 16 -17z"/>
<path d="M3162 844 c-49 -34 -6 -123 47 -94 29 15 26 18 -11 16 -23 -1 -33 4
-36 17 -3 14 4 17 32 17 29 0 36 4 36 20 0 10 -9 24 -19 30 -25 13 -22 13 -49
-6z m48 -19 c0 -9 -9 -15 -25 -15 -24 0 -32 10 -18 23 12 13 43 7 43 -8z"/>
<path d="M2464 662 c-22 -14 -30 -48 -26 -99 5 -64 22 -71 22 -9 0 26 5 47 13
50 10 5 10 7 0 12 -18 8 -16 34 2 34 8 0 15 5 15 10 0 12 -11 13 -26 2z"/>
<path d="M2010 650 c0 -5 5 -10 10 -10 6 0 10 5 10 10 0 6 -4 10 -10 10 -5 0
-10 -4 -10 -10z"/>
<path d="M2177 626 c-3 -8 -3 -17 1 -21 3 -3 5 -20 4 -38 -3 -34 21 -78 35
-63 4 5 2 11 -4 13 -15 6 -17 79 -3 88 6 4 5 12 -4 21 -18 18 -22 18 -29 0z"/>
<path d="M1548 614 c-13 -12 -9 -79 5 -97 9 -13 20 -16 45 -11 31 6 32 8 32
60 0 30 -4 54 -10 54 -5 0 -10 -22 -10 -50 0 -46 -2 -50 -24 -50 -23 0 -25 4
-28 51 -2 28 -6 47 -10 43z"/>
<path d="M1678 609 c-28 -16 -21 -39 17 -55 20 -8 33 -19 30 -24 -9 -14 -38
-12 -54 3 -11 10 -13 9 -9 -2 7 -25 36 -37 56 -25 30 19 27 44 -7 57 -17 6
-31 17 -31 24 0 16 32 17 48 1 9 -9 12 -9 12 0 0 6 -9 16 -19 22 -23 12 -22
12 -43 -1z"/>
<path d="M1786 604 c-24 -23 -21 -81 4 -94 21 -11 60 -5 60 9 0 5 -12 6 -26 3
-16 -3 -30 1 -35 9 -15 24 -10 29 31 29 28 0 40 4 40 14 0 18 -27 46 -45 46
-7 0 -21 -7 -29 -16z m52 -21 c2 -9 -7 -13 -27 -13 -23 0 -29 4 -24 16 6 17
44 15 51 -3z"/>
<path d="M1885 611 c-10 -9 -5 -101 5 -101 6 0 10 18 10 40 0 27 5 43 15 46 8
4 15 9 15 13 0 7 -38 9 -45 2z"/>
<path d="M2010 566 c0 -31 5 -56 10 -56 6 0 10 22 10 49 0 28 -4 53 -10 56 -6
4 -10 -15 -10 -49z"/>
<path d="M2060 563 c0 -29 5 -53 10 -53 6 0 10 21 10 46 0 41 2 45 23 42 18
-2 23 -10 25 -45 4 -53 22 -57 22 -5 0 51 -12 65 -54 67 l-36 1 0 -53z"/>
<path d="M2260 600 c-11 -11 -20 -29 -20 -40 0 -20 32 -60 49 -60 15 0 41 12
41 19 0 3 -15 6 -32 6 -23 0 -34 5 -36 18 -3 14 4 17 37 17 34 0 39 3 34 18
-6 18 -32 42 -45 42 -4 0 -17 -9 -28 -20z m58 -17 c2 -9 -7 -13 -27 -13 -30 0
-39 9 -24 24 11 10 46 3 51 -11z"/>
<path d="M2360 563 c0 -29 5 -53 10 -53 6 0 10 18 10 40 0 27 5 43 15 46 23 9
18 19 -10 19 -23 0 -25 -3 -25 -52z"/>
<path d="M2524 606 c-18 -13 -17 -14 15 -13 19 1 36 -3 38 -10 3 -8 -5 -13
-20 -13 -48 0 -70 -49 -30 -64 8 -3 25 -3 39 0 21 5 24 12 24 48 0 61 -26 81
-66 52z m54 -63 c-4 -21 -36 -29 -51 -14 -9 9 -8 14 3 21 25 16 52 12 48 -7z"/>
<path d="M2637 602 c-23 -25 -21 -65 3 -87 17 -15 24 -16 45 -7 14 6 25 16 25
22 0 6 -7 6 -19 -1 -30 -20 -53 -4 -49 33 3 35 33 52 49 27 4 -7 12 -10 16 -5
9 8 -24 36 -42 36 -7 0 -19 -8 -28 -18z"/>
<path d="M2750 600 c-41 -41 -9 -109 45 -96 35 9 31 21 -7 21 -23 0 -34 5 -36
18 -3 14 4 17 32 17 29 0 36 4 36 20 0 10 -9 24 -19 30 -26 13 -28 13 -51 -10z
m58 -17 c2 -9 -7 -13 -27 -13 -30 0 -39 9 -24 24 11 10 46 3 51 -11z"/>
<path d="M0 10 c0 -7 735 -10 2185 -10 1450 0 2185 3 2185 10 0 7 -735 10
-2185 10 -1450 0 -2185 -3 -2185 -10z"/>
</g>
</svg>
