<?xml version="1.0" standalone="no"?>
<!DOCTYPE svg PUBLIC "-//W3C//DTD SVG 20010904//EN"
 "http://www.w3.org/TR/2001/REC-SVG-20010904/DTD/svg10.dtd">
<svg version="1.0" xmlns="http://www.w3.org/2000/svg"
 width="633.000000pt" height="635.000000pt" viewBox="0 0 633.000000 635.000000"
 preserveAspectRatio="xMidYMid meet">

<g transform="translate(0.000000,635.000000) scale(0.100000,-0.100000)"
fill="#000000" stroke="none">
<path d="M0 6340 c0 -7 1062 -10 3165 -10 2103 0 3165 3 3165 10 0 7 -1062 10
-3165 10 -2103 0 -3165 -3 -3165 -10z"/>
<path d="M2026 5470 c-38 -12 -74 -46 -80 -79 -3 -14 -13 -143 -21 -286 -9
-143 -18 -287 -20 -320 -15 -195 -34 -520 -30 -524 3 -2 7 -2 9 0 3 4 16 174
36 504 28 450 43 631 51 647 27 50 -53 48 1689 48 1513 0 1624 -1 1651 -17 36
-21 52 -67 45 -130 -3 -26 -8 -100 -11 -163 -3 -63 -8 -135 -10 -160 -3 -25
-12 -155 -20 -290 -8 -135 -26 -420 -40 -635 -30 -463 -47 -746 -75 -1185 -11
-179 -22 -350 -25 -380 -3 -30 -7 -102 -10 -160 -3 -58 -12 -202 -20 -320 -8
-118 -22 -334 -30 -480 -8 -146 -20 -282 -26 -303 -20 -73 118 -67 -1632 -67
-1046 0 -1578 -3 -1582 -10 -4 -7 529 -10 1612 -10 1543 0 1621 1 1653 18 56
30 67 65 74 225 4 78 15 270 26 427 33 497 32 460 7 460 -16 0 -18 -3 -8 -9
18 -12 -3 -24 -28 -16 -22 7 -37 38 -22 43 6 2 11 14 11 26 0 29 18 46 49 46
19 0 22 3 13 12 -17 17 -16 51 2 45 15 -6 21 40 31 238 3 61 12 202 20 315 8
113 17 255 20 315 3 61 12 207 20 325 8 118 24 366 35 550 12 184 30 459 41
610 24 341 24 313 -2 305 -19 -6 -21 -4 -16 14 3 14 0 21 -9 21 -10 0 -11 -6
-4 -25 8 -20 6 -29 -11 -46 -25 -25 -47 -15 -23 12 14 16 15 21 4 35 -11 12
-11 17 -1 23 6 4 11 12 10 17 -4 23 3 34 21 34 22 0 27 -15 8 -23 -7 -3 -1 -6
13 -6 25 -1 27 2 33 62 17 171 7 225 -48 255 -29 16 -148 17 -1691 19 -913 1
-1673 -3 -1689 -7z m3164 -3250 c0 -5 -4 -10 -10 -10 -5 0 -10 5 -10 10 0 6 5
10 10 10 6 0 10 -4 10 -10z"/>
<path d="M1640 5280 c0 -11 5 -20 10 -20 6 0 10 9 10 20 0 11 -4 20 -10 20 -5
0 -10 -9 -10 -20z"/>
<path d="M1690 5230 c0 -5 9 -10 21 -10 11 0 17 5 14 10 -3 6 -13 10 -21 10
-8 0 -14 -4 -14 -10z"/>
<path d="M1577 5219 c8 -8 16 -8 30 0 16 9 14 10 -11 11 -22 0 -27 -3 -19 -11z"/>
<path d="M1646 5182 c-2 -4 -1 -14 5 -22 7 -12 9 -10 9 8 0 23 -5 28 -14 14z"/>
<path d="M1402 5088 c-34 -34 6 -90 48 -68 35 19 20 80 -20 80 -9 0 -21 -5
-28 -12z m54 -19 c3 -6 -1 -18 -10 -27 -15 -15 -17 -15 -32 0 -19 19 -11 38
16 38 10 0 22 -5 26 -11z"/>
<path d="M3260 5040 c-12 -22 0 -55 22 -63 39 -13 74 37 48 68 -18 21 -57 19
-70 -5z"/>
<path d="M3853 5050 c-12 -5 -26 -18 -32 -29 -9 -16 -41 -436 -41 -532 0 -23
-5 -27 -41 -32 -23 -3 -51 -15 -62 -26 l-21 -20 23 -123 c13 -68 25 -125 27
-127 15 -16 14 23 -4 121 -22 127 -18 144 31 153 61 11 1115 1 1127 -11 6 -6
20 -58 30 -115 10 -57 31 -168 45 -247 21 -113 24 -146 15 -157 -10 -12 -77
-15 -414 -17 -259 -2 -401 -7 -401 -13 0 -6 137 -11 385 -13 462 -3 451 -5
462 93 3 33 13 197 22 365 26 489 27 527 16 509 -8 -14 -20 -177 -46 -657 -4
-68 -10 -118 -15 -110 -4 7 -21 89 -38 182 -17 92 -35 174 -41 181 -6 8 -8 51
-4 121 8 131 -4 134 -16 4 -5 -51 -10 -93 -12 -93 -2 -1 -212 -1 -468 1 l-465
3 8 137 c8 118 12 140 30 160 l20 22 394 0 394 0 -6 -54 -7 -54 66 -4 c42 -2
66 1 66 8 0 5 -23 36 -51 67 l-51 58 -409 -3 c-408 -3 -408 -3 -431 -25 -20
-20 -23 -39 -33 -165 l-10 -143 -47 -3 c-27 -2 -48 1 -48 5 0 4 7 121 15 258
8 138 15 256 15 263 0 6 9 21 20 32 19 19 33 20 273 20 299 0 294 1 299 -88
l3 -57 283 -5 c256 -5 284 -7 293 -22 10 -18 29 -25 29 -10 0 5 -9 18 -20 30
-20 22 -26 22 -295 22 l-275 0 0 49 c0 33 -6 56 -19 72 l-19 24 -264 2 c-144
1 -273 -2 -285 -7z m996 -364 c-3 -3 -22 -3 -42 1 -32 5 -37 9 -37 33 0 42 11
43 49 6 19 -20 33 -38 30 -40z"/>
<path d="M2538 5013 c7 -3 16 -2 19 1 4 3 -2 6 -13 5 -11 0 -14 -3 -6 -6z"/>
<path d="M2475 4990 c-3 -6 1 -7 9 -4 18 7 21 14 7 14 -6 0 -13 -4 -16 -10z"/>
<path d="M3423 4660 c-16 -18 -31 -20 -173 -22 l-155 -2 154 -3 c142 -3 156
-5 169 -24 22 -31 66 -22 70 14 6 52 -33 74 -65 37z"/>
<path d="M3530 4450 c-16 -16 -36 -20 -112 -23 l-93 -3 95 -2 c83 -2 97 -5
108 -22 14 -22 42 -26 60 -8 18 18 14 56 -7 68 -26 13 -28 13 -51 -10z"/>
<path d="M3298 4413 c7 -3 16 -2 19 1 4 3 -2 6 -13 5 -11 0 -14 -3 -6 -6z"/>
<path d="M3315 4195 c-44 -36 -87 -71 -95 -79 -26 -24 -184 -132 -220 -152
-19 -10 -41 -23 -48 -29 -8 -5 -102 -55 -210 -110 -148 -75 -200 -106 -209
-126 -10 -21 -8 -57 12 -200 14 -95 25 -176 25 -178 0 -3 4 -1 10 5 6 6 1 68
-14 174 -19 129 -21 170 -12 189 8 18 64 51 201 121 267 135 368 199 551 351
124 102 129 102 231 8 158 -144 335 -266 566 -388 64 -35 122 -72 128 -82 8
-16 -12 -116 -91 -452 -113 -481 -117 -491 -236 -644 -116 -149 -442 -461
-519 -497 -52 -25 -124 -21 -170 10 -79 53 -314 326 -422 491 -93 142 -130
232 -154 373 -11 69 -23 127 -25 129 -13 13 -12 -17 1 -112 16 -113 46 -207
96 -293 17 -30 28 -58 25 -63 -3 -5 0 -11 8 -14 8 -3 33 -33 55 -66 117 -172
355 -437 425 -473 36 -18 51 -20 134 -14 67 5 106 13 135 28 l42 22 -35 7
c-19 3 -28 7 -20 9 8 1 19 2 23 1 5 -1 11 8 14 19 6 24 19 26 31 5 6 -13 30 4
118 83 201 182 378 383 435 494 19 38 19 38 87 40 l67 2 -63 3 c-44 3 -62 8
-59 16 2 7 23 92 47 190 l42 177 66 2 67 2 -62 3 c-72 4 -71 4 -49 92 8 31 24
94 35 141 11 47 29 124 41 172 28 115 23 130 -54 172 -355 193 -424 239 -629
420 l-97 86 -73 0 -72 0 -80 -65z"/>
<path d="M1802 4195 c-14 -11 -33 -14 -54 -10 -28 5 -38 2 -60 -22 -14 -15
-30 -43 -35 -62 -9 -33 -19 -44 -55 -55 -25 -7 -34 -54 -17 -85 8 -14 34 -38
57 -54 35 -23 42 -34 42 -60 0 -18 -9 -47 -20 -64 -17 -28 -26 -33 -58 -33
-48 0 -145 -25 -201 -52 -54 -26 -166 -130 -227 -212 -143 -190 -209 -439
-183 -685 7 -70 16 -109 25 -114 22 -13 17 -28 -22 -64 l-37 -33 6 -81 c6 -90
23 -123 51 -99 10 8 16 29 16 55 0 35 5 48 28 67 53 47 66 68 64 104 -2 20 2
50 7 67 5 18 17 80 26 139 23 153 70 283 132 366 76 102 93 -34 38 -311 -14
-70 -25 -129 -25 -132 0 -3 9 -5 19 -5 27 0 33 -13 21 -44 -9 -25 -8 -26 25
-26 18 0 45 -4 59 -10 29 -11 32 -38 20 -159 l-7 -62 -59 -30 c-45 -23 -63
-27 -77 -19 -20 10 -26 -5 -47 -135 -12 -73 -80 -371 -101 -445 -29 -101 -101
-314 -131 -386 l-28 -71 28 0 c33 0 76 -36 80 -67 3 -19 6 -18 39 14 134 130
288 400 375 659 45 136 46 162 2 281 -34 94 -49 163 -36 171 17 10 28 1 28
-21 0 -11 14 -61 31 -112 35 -105 58 -220 59 -292 0 -45 1 -48 23 -42 12 3 28
6 35 6 6 0 12 7 12 16 0 20 28 43 53 44 9 0 17 6 17 14 0 19 38 46 55 39 10
-3 12 2 8 16 -4 14 1 23 13 28 11 4 25 14 32 22 11 14 16 12 42 -19 31 -36 37
-50 20 -50 -5 0 -19 -9 -31 -21 -16 -16 -24 -18 -32 -10 -9 9 -8 14 3 21 12 7
10 9 -7 7 -18 -1 -20 -4 -12 -20 13 -24 -13 -67 -41 -67 -11 0 -20 -7 -20 -15
0 -8 -9 -20 -19 -27 -15 -9 -17 -15 -9 -26 15 -18 -7 -41 -23 -25 -9 9 -19 6
-39 -9 -16 -11 -32 -18 -38 -14 -17 10 -22 -50 -12 -156 13 -157 16 -644 3
-660 -6 -7 -18 -47 -26 -88 -16 -75 -16 -75 7 -98 32 -33 146 -47 285 -35 116
9 133 19 116 70 -8 23 -32 39 -127 85 -116 57 -118 58 -118 92 0 19 6 36 14
39 7 3 16 18 18 34 3 15 21 105 41 198 64 302 120 746 95 754 -23 8 -80 70
-76 83 3 7 16 12 30 10 18 -2 30 4 42 22 24 37 22 225 -5 390 -15 90 -18 131
-10 134 6 2 20 11 32 21 21 17 21 17 4 151 -15 129 -13 274 5 285 4 2 29 -21
55 -52 59 -68 127 -103 202 -103 78 0 264 63 314 106 11 10 24 11 49 4 19 -5
41 -8 50 -5 9 2 25 -11 41 -34 48 -68 163 -101 246 -70 36 13 98 74 114 110
l11 29 110 0 c95 0 113 -3 135 -20 22 -17 26 -28 27 -83 1 -55 3 -62 21 -62
17 0 21 8 25 58 5 50 10 61 37 82 17 14 34 36 37 50 9 34 -18 92 -48 106 -29
14 -89 4 -106 -16 -10 -12 -38 -15 -125 -15 l-113 0 -7 28 c-8 40 -57 96 -101
117 -51 24 -140 22 -191 -4 -45 -23 -90 -71 -99 -106 -7 -30 -78 -46 -189 -45
-171 2 -232 44 -330 225 -57 105 -89 148 -132 177 -34 24 -59 33 -145 52 -22
5 -28 12 -28 34 0 38 25 70 58 74 23 3 28 8 30 37 2 19 15 48 28 64 30 36 28
71 -3 75 -27 4 -27 8 -8 42 50 87 -44 190 -123 135z m138 -210 c0 -8 -4 -15
-10 -15 -5 0 -10 7 -10 15 0 8 5 15 10 15 6 0 10 -7 10 -15z m-32 -20 c6 -14
8 -25 3 -25 -5 0 -11 -18 -15 -40 -5 -34 -10 -40 -31 -40 -48 0 -81 -89 -50
-136 20 -31 18 -33 -32 -45 -58 -13 -130 -11 -171 7 l-37 15 44 22 c49 25 81
73 81 123 0 27 4 32 30 38 19 3 34 15 41 30 8 16 17 22 30 19 10 -3 19 0 19 6
0 6 -6 11 -14 11 -13 0 -29 24 -21 32 2 2 28 5 58 6 49 2 55 0 65 -23z m1022
-550 c37 -19 68 -56 83 -100 l14 -40 141 3 c157 2 195 -6 190 -41 -3 -22 -5
-22 -169 -25 l-167 -2 -6 -25 c-8 -32 -61 -92 -97 -111 -37 -19 -123 -18 -165
2 -19 9 -46 30 -60 47 l-26 31 24 18 c12 10 30 15 38 11 43 -17 69 -15 94 10
34 34 34 76 1 107 -34 32 -82 31 -110 -2 -26 -30 -65 -46 -65 -26 1 28 39 95
69 121 30 25 42 30 96 40 29 5 86 -4 115 -18z m-116 -131 c22 -21 20 -50 -4
-74 -37 -37 -88 -18 -68 26 8 17 8 27 0 37 -7 8 -9 17 -5 20 12 13 62 7 77 -9z
m-181 -25 c5 -17 11 -20 29 -15 61 17 68 18 68 8 0 -23 -53 -72 -84 -78 -50
-9 -120 18 -124 48 -5 44 100 79 111 37z m-1539 -581 c20 -62 18 -68 -34 -120
-45 -46 -50 -56 -50 -95 0 -94 -32 -25 -34 74 -1 34 5 48 32 75 17 19 32 41
32 49 0 9 3 19 7 22 11 12 43 8 47 -5z m727 -28 c9 0 20 -167 13 -196 -5 -19
-23 -33 -67 -55 -33 -16 -73 -29 -87 -29 -34 0 -118 63 -124 93 -11 53 -14
175 -4 185 8 8 162 9 269 2z m29 -480 c0 -5 -7 -10 -15 -10 -8 0 -15 5 -15 10
0 6 7 10 15 10 8 0 15 -4 15 -10z m-654 -657 c22 -29 17 -53 -10 -53 -14 0
-28 5 -32 12 -4 6 -3 8 3 5 6 -4 13 2 16 13 5 19 0 21 -30 20 -5 -1 -7 -12 -5
-25 3 -19 -1 -25 -16 -25 -18 0 -22 21 -14 63 4 15 75 7 88 -10z m554 -433 c0
-46 -14 -57 -57 -43 -18 6 -29 18 -31 32 -6 39 5 51 48 51 l40 0 0 -40z m-31
-191 c30 -6 105 -9 168 -7 69 2 112 -1 110 -7 -7 -19 -76 -27 -204 -23 -101 3
-137 8 -157 21 -35 23 -34 41 2 33 15 -3 51 -11 81 -17z"/>
<path d="M1583 2551 c6 -93 14 -111 61 -136 32 -17 40 -18 73 -6 81 28 83 32
83 130 l0 89 -111 1 -112 1 6 -79z"/>
<path d="M1160 4127 c0 -8 7 -17 15 -21 8 -3 15 -2 15 3 0 5 -7 14 -15 21 -12
10 -15 10 -15 -3z"/>
<path d="M1240 4125 c-7 -9 -11 -18 -8 -20 3 -3 11 1 18 10 7 9 11 18 8 20 -3
3 -11 -1 -18 -10z"/>
<path d="M1160 4045 c-7 -8 -8 -15 -2 -15 5 0 15 7 22 15 7 8 8 15 2 15 -5 0
-15 -7 -22 -15z"/>
<path d="M1232 4049 c2 -7 10 -15 17 -17 8 -3 12 1 9 9 -2 7 -10 15 -17 17 -8
3 -12 -1 -9 -9z"/>
<path d="M3300 3859 c-87 -35 -140 -122 -140 -231 0 -71 14 -98 50 -98 34 0
50 28 50 86 0 92 31 140 102 158 34 8 85 -12 117 -48 20 -21 26 -41 31 -99 4
-49 9 -66 14 -54 11 24 3 105 -15 142 -47 99 -198 99 -252 0 -6 -11 -13 -51
-16 -90 -6 -67 -7 -70 -31 -70 -24 0 -25 3 -28 65 -2 42 3 79 13 107 34 87
146 147 231 124 89 -25 152 -93 162 -176 5 -50 22 -62 22 -16 0 72 -67 164
-142 195 -42 18 -130 20 -168 5z"/>
<path d="M4536 3634 c-32 -32 -6 -81 37 -70 34 8 44 41 21 67 -21 23 -37 24
-58 3z"/>
<path d="M3598 3610 c-4 -8 -6 -24 -6 -35 1 -11 1 -41 0 -67 -2 -46 -3 -48
-32 -48 -20 0 -30 5 -30 15 0 8 -5 15 -11 15 -6 0 -9 -7 -5 -15 5 -13 -22 -15
-204 -15 -133 0 -210 -4 -210 -10 0 -6 96 -10 267 -10 218 1 269 -2 281 -14
12 -12 13 -37 3 -167 -14 -179 -20 -208 -60 -271 -79 -124 -246 -171 -379
-107 -26 13 -68 45 -94 73 -59 60 -64 43 -7 -19 46 -50 122 -90 189 -100 25
-3 82 -2 127 4 133 17 221 73 271 175 33 65 60 352 37 395 -15 31 -24 35 -87
47 l-37 6 -3 82 c-2 44 -6 74 -10 66z"/>
<path d="M3510 3530 c0 -11 5 -20 10 -20 6 0 10 9 10 20 0 11 -4 20 -10 20 -5
0 -10 -9 -10 -20z"/>
<path d="M3051 3436 c-7 -8 -11 -30 -9 -48 l4 -33 8 30 c5 17 16 38 24 48 14
15 13 17 0 17 -9 0 -21 -6 -27 -14z"/>
<path d="M4907 3323 c-12 -11 -8 -60 6 -71 35 -29 86 28 57 63 -13 15 -51 20
-63 8z"/>
<path d="M3030 3092 c0 -29 21 -82 32 -82 6 0 7 8 3 18 -3 9 -9 29 -12 45 -7
33 -23 46 -23 19z"/>
<path d="M4690 2805 c-14 -8 -20 -14 -14 -15 5 0 19 7 30 15 24 18 16 19 -16
0z"/>
<path d="M4378 2783 c50 -2 134 -2 185 0 50 1 9 3 -93 3 -102 0 -143 -2 -92
-3z"/>
<path d="M1325 2660 c-7 -11 -35 -160 -35 -184 0 -38 27 -48 71 -25 21 10 40
22 42 26 3 5 8 47 12 94 l7 87 -47 4 c-26 2 -48 1 -50 -2z"/>
<path d="M2390 2650 c8 -5 20 -10 25 -10 6 0 3 5 -5 10 -8 5 -19 10 -25 10 -5
0 -3 -5 5 -10z"/>
<path d="M2438 2633 c7 -3 16 -2 19 1 4 3 -2 6 -13 5 -11 0 -14 -3 -6 -6z"/>
<path d="M2553 2633 c32 -2 81 -2 110 0 29 2 3 3 -58 3 -60 0 -84 -1 -52 -3z"/>
<path d="M4658 2425 c-18 -39 -55 -44 -82 -11 -28 36 -56 27 -56 -20 0 -42
-27 -60 -65 -42 -21 9 -29 9 -41 -4 -15 -14 -14 -18 1 -41 25 -39 12 -67 -31
-67 -31 0 -34 -3 -34 -28 0 -21 7 -32 25 -40 33 -15 33 -54 0 -76 -21 -14 -23
-20 -14 -39 7 -16 19 -22 41 -22 41 0 57 -25 38 -60 -12 -22 -12 -28 3 -42 15
-15 18 -15 43 1 37 25 74 8 74 -33 0 -43 35 -49 56 -9 13 25 20 29 44 26 25
-4 27 -2 19 13 -5 10 -9 20 -9 23 0 12 28 6 39 -8 11 -13 15 -12 32 5 10 10
26 19 34 19 8 0 15 5 15 10 0 6 14 24 30 42 17 17 30 34 30 37 0 4 16 13 35
20 42 15 47 46 10 63 -32 15 -33 50 -1 75 20 15 22 22 15 42 -8 20 -14 22 -39
17 -26 -5 -32 -2 -41 18 -8 17 -8 29 1 45 9 17 9 26 -1 37 -15 18 -28 18 -51
-3 -26 -24 -68 -1 -68 38 0 15 -7 29 -16 33 -23 9 -23 8 -36 -19z m60 -135
c107 -66 94 -231 -22 -275 -95 -37 -190 9 -216 104 -12 46 -5 82 26 129 40 61
146 82 212 42z"/>
<path d="M5234 2336 c-6 -17 2 -36 17 -36 12 0 12 37 -1 45 -6 3 -13 -1 -16
-9z"/>
<path d="M3883 2243 c-19 -4 -23 -11 -23 -45 0 -65 -38 -85 -90 -46 l-30 22
-25 -24 -25 -23 21 -34 c19 -30 20 -38 9 -59 -11 -20 -21 -24 -57 -24 -37 0
-45 -4 -53 -26 -15 -37 -13 -40 25 -63 28 -16 35 -27 35 -51 0 -25 -6 -32 -36
-45 -31 -13 -35 -18 -32 -47 3 -31 6 -33 45 -39 46 -6 45 -5 61 -34 8 -15 5
-28 -11 -57 l-22 -37 21 -21 c20 -21 22 -21 57 -4 32 15 40 16 62 4 21 -11 25
-21 25 -56 0 -38 3 -43 29 -52 28 -10 31 -8 50 24 17 28 26 34 54 34 28 0 36
-5 50 -35 16 -34 30 -41 61 -29 11 4 16 19 16 45 0 30 5 42 26 55 24 16 27 16
63 -4 38 -22 39 -22 62 -3 l23 19 -18 40 c-18 39 -18 43 -2 67 15 23 22 26 56
20 36 -6 38 -5 49 26 6 18 11 33 11 35 0 1 -16 11 -35 23 -27 15 -35 27 -35
48 0 22 8 33 35 47 56 31 46 86 -16 86 -30 0 -42 5 -56 26 -12 19 -14 30 -6
42 5 10 16 27 23 38 11 19 10 24 -8 44 l-22 23 -35 -19 c-33 -17 -38 -18 -63
-3 -23 13 -27 20 -24 53 4 41 -7 56 -43 56 -12 0 -27 -12 -37 -30 -14 -24 -24
-30 -52 -30 -30 0 -37 5 -52 35 -9 19 -21 34 -28 34 -6 -1 -21 -4 -33 -6z
m194 -198 c56 -28 94 -76 113 -141 10 -34 9 -51 -4 -98 -55 -188 -309 -209
-392 -32 -29 62 -30 107 -3 166 27 60 45 79 104 106 65 31 118 30 182 -1z"/>
<path d="M1920 2160 c11 -20 30 -28 30 -12 0 11 -22 32 -32 32 -5 0 -4 -9 2
-20z"/>
<path d="M1848 2103 c7 -3 16 -2 19 1 4 3 -2 6 -13 5 -11 0 -14 -3 -6 -6z"/>
<path d="M1773 2045 c-7 -20 2 -29 21 -22 9 4 13 13 10 22 -8 19 -23 19 -31 0z"/>
<path d="M1707 1994 c-14 -14 -7 -35 11 -32 9 2 17 10 17 17 0 16 -18 25 -28
15z"/>
<path d="M4827 1986 c-7 -16 1 -26 20 -26 7 0 13 9 13 20 0 23 -25 27 -33 6z"/>
<path d="M1670 1934 c0 -8 5 -12 10 -9 6 4 8 11 5 16 -9 14 -15 11 -15 -7z"/>
<path d="M4705 1880 c3 -5 8 -10 11 -10 2 0 4 5 4 10 0 6 -5 10 -11 10 -5 0
-7 -4 -4 -10z"/>
<path d="M966 1327 c-10 -15 -23 -27 -30 -27 -6 0 -31 -18 -55 -38 -39 -34
-44 -44 -49 -90 -6 -67 20 -172 62 -248 26 -46 41 -62 70 -73 33 -12 41 -12
71 2 20 10 37 26 40 39 3 13 2 90 -3 172 -5 111 -4 156 5 179 18 42 16 46 -10
16 l-22 -26 -36 38 c-22 24 -32 42 -26 48 5 5 7 15 5 22 -3 9 -11 4 -22 -14z
m-16 -106 c5 -11 10 -39 10 -63 0 -62 16 -111 46 -139 33 -30 54 -71 53 -101
0 -23 0 -23 -11 2 -7 14 -29 46 -49 71 -31 38 -40 59 -49 115 -18 110 -18 112
-47 122 l-28 10 32 1 c22 1 36 -5 43 -18z m-46 -14 c12 -9 20 -35 26 -85 11
-81 19 -100 65 -155 37 -43 48 -82 29 -98 -22 -18 -72 0 -100 37 -54 70 -95
269 -62 302 15 15 20 15 42 -1z"/>
</g>
</svg>
