<?xml version="1.0" standalone="no"?>
<!DOCTYPE svg PUBLIC "-//W3C//DTD SVG 20010904//EN"
 "http://www.w3.org/TR/2001/REC-SVG-20010904/DTD/svg10.dtd">
<svg version="1.0" xmlns="http://www.w3.org/2000/svg"
 width="666.000000pt" height="667.000000pt" viewBox="0 0 666.000000 667.000000"
 preserveAspectRatio="xMidYMid meet">

<g transform="translate(0.000000,667.000000) scale(0.100000,-0.100000)"
fill="#000000" stroke="none">
<path d="M3195 5771 l-950 -6 -38 -24 c-21 -12 -47 -42 -60 -65 -21 -39 -22
-54 -25 -381 -2 -235 0 -335 7 -325 7 9 11 131 11 330 0 285 2 319 19 356 22
48 60 80 111 94 25 7 424 9 1162 8 l1124 -3 41 -27 c22 -14 48 -43 58 -64 17
-37 17 -80 3 -1129 -10 -715 -12 -1094 -6 -1102 6 -7 15 -10 22 -6 7 4 7 1 -1
-8 -9 -11 -13 -95 -13 -318 l-1 -303 -38 5 c-21 2 -57 17 -81 33 l-42 28 6 56
c18 165 18 234 -2 290 -14 41 -24 55 -38 55 -12 0 -20 -8 -22 -23 -5 -30 -18
-20 -41 33 -14 32 -26 45 -40 45 -29 0 -32 -12 -20 -71 9 -40 22 -64 56 -100
l45 -48 -48 -111 c-58 -139 -64 -182 -32 -230 32 -46 113 -102 206 -141 80
-33 94 -44 87 -69 -2 -8 -7 -258 -10 -555 -8 -735 -10 -766 -29 -806 -20 -42
-45 -72 -71 -87 -16 -9 -11 -11 30 -6 76 8 152 52 140 82 -2 7 0 10 5 7 5 -3
12 7 16 22 3 15 7 35 9 43 2 8 5 205 7 438 3 410 2 424 -16 438 -24 17 -14 18
17 2 12 -6 28 -14 36 -17 10 -5 14 -40 16 -146 2 -91 10 -179 24 -250 12 -60
26 -173 31 -250 10 -144 36 -318 51 -346 11 -21 -13 -43 -89 -84 -65 -35 -82
-57 -66 -82 9 -15 34 -19 140 -26 148 -9 170 -6 177 25 9 36 -8 107 -31 131
-19 20 -20 27 -11 67 14 59 16 250 5 375 -6 71 -5 122 4 174 l12 73 32 -80
c18 -44 55 -110 83 -148 27 -38 65 -91 83 -118 18 -26 62 -80 98 -118 l66 -70
-3 -128 c-2 -81 1 -136 8 -149 15 -28 53 -27 88 3 32 27 123 193 123 224 0 19
-56 66 -114 97 -12 6 -26 34 -37 72 -26 95 -61 161 -121 234 -54 65 -55 69
-62 145 -3 44 -20 140 -36 214 -24 111 -26 137 -15 145 7 6 16 43 20 88 l7 77
38 0 c46 0 85 39 97 98 10 46 10 163 1 222 l-7 45 67 0 c91 0 155 32 196 99
26 41 30 58 30 115 0 56 -5 76 -30 121 l-31 54 46 16 c38 12 47 21 55 48 23
81 -73 232 -148 232 -38 0 -101 -43 -224 -154 -92 -84 -108 -85 -174 -14 -26
29 -48 56 -48 60 0 4 -19 17 -42 29 -79 40 -172 7 -209 -75 -15 -35 -17 -56
-11 -145 7 -99 9 -104 37 -127 16 -13 27 -25 24 -28 -2 -2 -43 -8 -91 -12
l-86 -7 4 34 c2 19 6 187 8 374 3 187 8 410 11 495 3 85 7 445 10 800 3 355 8
729 11 832 3 103 3 210 -1 238 -11 82 -70 128 -200 156 -46 10 -369 11 -1410
5z m1486 -71 c6 -16 15 -30 20 -30 5 0 9 -8 9 -17 -1 -17 -50 52 -50 70 0 17
12 5 21 -23z m96 -72 c-3 -7 -5 -2 -5 12 0 14 2 19 5 13 2 -7 2 -19 0 -25z
m-80 -385 c-3 -10 -5 -4 -5 12 0 17 2 24 5 18 2 -7 2 -21 0 -30z m0 -351 c-1
-53 -3 -7 -3 103 0 110 2 154 3 97 2 -57 2 -147 0 -200z m0 -164 c-3 -8 -6 -5
-6 6 -1 11 2 17 5 13 3 -3 4 -12 1 -19z m-10 -190 c-2 -24 -4 -7 -4 37 0 44 2
63 4 43 2 -21 2 -57 0 -80z m0 -370 c-1 -51 -3 -10 -3 92 0 102 2 143 3 93 2
-51 2 -135 0 -185z m20 70 c-3 -8 -6 -5 -6 6 -1 11 2 17 5 13 3 -3 4 -12 1
-19z m0 -100 c-3 -8 -6 -5 -6 6 -1 11 2 17 5 13 3 -3 4 -12 1 -19z m-20 -135
c-3 -10 -5 -4 -5 12 0 17 2 24 5 18 2 -7 2 -21 0 -30z m-10 -485 c-2 -13 -4
-3 -4 22 0 25 2 35 4 23 2 -13 2 -33 0 -45z m0 -60 c-3 -7 -5 -2 -5 12 0 14 2
19 5 13 2 -7 2 -19 0 -25z m20 -90 c-3 -8 -6 -5 -6 6 -1 11 2 17 5 13 3 -3 4
-12 1 -19z m-306 -112 c25 -58 64 -76 72 -33 3 21 4 20 17 -8 20 -48 24 -129
10 -243 l-13 -106 39 -33 c23 -21 62 -41 96 -50 53 -15 59 -19 68 -52 24 -95
32 -132 28 -136 -8 -8 -108 29 -192 71 -95 47 -156 108 -156 156 0 18 22 89
50 157 53 132 53 136 5 181 -32 30 -50 63 -58 108 -9 47 11 40 34 -12z m684
-173 c5 -12 17 -24 27 -26 28 -8 22 -44 -10 -61 -15 -8 -34 -25 -41 -39 -13
-24 -77 -67 -102 -67 -7 0 -21 7 -31 17 -14 13 -18 31 -18 88 0 80 11 102 55
108 68 10 110 3 120 -20z m-11 -217 c5 -32 14 -49 33 -61 36 -24 17 -37 -64
-42 -51 -4 -78 -1 -108 12 l-40 17 35 12 c29 10 36 18 38 44 2 22 9 32 20 32
9 0 28 9 42 19 13 11 27 18 31 15 4 -2 10 -24 13 -48z m-387 -23 c-2 -16 -4
-5 -4 22 0 28 2 40 4 28 2 -13 2 -35 0 -50z m70 21 c-3 -3 -12 -4 -19 -1 -8 3
-5 6 6 6 11 1 17 -2 13 -5z m137 -62 c-5 -24 -1 -30 23 -41 74 -34 222 -18
233 26 l5 22 58 -20 c57 -19 130 -59 141 -77 3 -5 -7 -43 -23 -84 -15 -41 -33
-97 -40 -124 -16 -64 -26 -74 -72 -74 -62 0 -114 27 -164 85 -43 51 -45 55
-45 118 0 88 -10 97 -105 97 -107 0 -105 3 -105 -199 0 -116 4 -171 12 -179 7
-7 44 -12 95 -12 79 0 84 1 95 25 6 14 17 25 24 25 7 0 48 -22 92 -48 44 -27
94 -54 111 -62 28 -11 31 -17 31 -54 0 -22 -3 -57 -6 -77 l-6 -37 -74 -12
c-123 -21 -321 -1 -383 39 -10 6 -16 56 -23 192 -7 137 -16 212 -35 294 -40
170 -40 163 -7 176 24 9 93 21 161 28 8 1 11 -8 7 -27z m507 -231 c15 -75 6
-201 -18 -249 -18 -33 -25 -37 -62 -40 -47 -4 -121 26 -208 84 -29 19 -74 42
-101 49 -63 20 -110 50 -124 80 -16 37 -4 41 46 17 61 -31 80 -29 71 6 -6 24
0 20 47 -29 56 -58 104 -79 182 -79 41 0 58 20 76 90 6 25 20 71 32 104 19 52
23 57 34 41 7 -10 18 -43 25 -74z m-674 -93 c-3 -7 -5 -2 -5 12 0 14 2 19 5
13 2 -7 2 -19 0 -25z m-20 -415 c-3 -10 -5 -4 -5 12 0 17 2 24 5 18 2 -7 2
-21 0 -30z m331 -10 c-10 -2 -28 -2 -40 0 -13 2 -5 4 17 4 22 1 32 -1 23 -4z
m-331 -90 c-3 -10 -5 -2 -5 17 0 19 2 27 5 18 2 -10 2 -26 0 -35z m330 -17 c1
-1 -16 -1 -38 -1 -34 0 -38 1 -23 12 15 11 36 7 61 -11z m213 -5 c0 -6 -4 -13
-10 -16 -5 -3 -10 1 -10 9 0 9 5 16 10 16 6 0 10 -4 10 -9z m4 -57 c3 -8 2
-12 -4 -9 -6 3 -10 10 -10 16 0 14 7 11 14 -7z m-397 -26 c-3 -7 -5 -2 -5 12
0 14 2 19 5 13 2 -7 2 -19 0 -25z m210 0 c-3 -7 -5 -2 -5 12 0 14 2 19 5 13 2
-7 2 -19 0 -25z m-180 -60 c-3 -8 -6 -5 -6 6 -1 11 2 17 5 13 3 -3 4 -12 1
-19z m134 -35 c-9 -16 -10 -16 -11 -1 0 9 3 25 7 35 7 16 8 17 11 1 2 -10 -1
-25 -7 -35z m-154 15 c-3 -8 -6 -5 -6 6 -1 11 2 17 5 13 3 -3 4 -12 1 -19z
m272 -101 c0 -21 -1 -21 -9 -2 -12 28 -12 37 0 30 6 -3 10 -16 9 -28z m138 1
c-3 -8 -6 -5 -6 6 -1 11 2 17 5 13 3 -3 4 -12 1 -19z m-270 -40 c-3 -8 -6 -5
-6 6 -1 11 2 17 5 13 3 -3 4 -12 1 -19z m160 -25 c-3 -10 -5 -4 -5 12 0 17 2
24 5 18 2 -7 2 -21 0 -30z m-280 -5 c-3 -8 -6 -5 -6 6 -1 11 2 17 5 13 3 -3 4
-12 1 -19z m15 -47 c2 -17 1 -28 -4 -25 -8 5 -12 54 -4 54 2 0 6 -13 8 -29z
m446 4 c-3 -3 -9 2 -12 12 -6 14 -5 15 5 6 7 -7 10 -15 7 -18z m-103 -57 l16
-33 -20 25 c-20 24 -26 40 -16 40 2 0 12 -15 20 -32z m97 -80 c-8 -8 -9 -4 -5
13 4 13 8 18 11 10 2 -7 -1 -18 -6 -23z m83 22 c3 -5 1 -10 -4 -10 -6 0 -11 5
-11 10 0 6 2 10 4 10 3 0 8 -4 11 -10z m-408 -22 c-3 -8 -6 -5 -6 6 -1 11 2
17 5 13 3 -3 4 -12 1 -19z m373 -4 c0 -8 -5 -12 -10 -9 -6 4 -8 11 -5 16 9 14
15 11 15 -7z m117 -178 c-6 -16 -48 -22 -60 -9 -4 3 3 17 15 30 19 20 24 22
36 9 8 -8 12 -22 9 -30z m76 -21 c20 -14 37 -30 37 -36 0 -6 -17 -45 -37 -87
-44 -87 -93 -145 -120 -140 -16 3 -18 16 -18 123 l0 120 32 3 c20 2 37 11 43
23 14 24 18 24 63 -6z m-566 -27 c-3 -8 -6 -5 -6 6 -1 11 2 17 5 13 3 -3 4
-12 1 -19z m-57 -17 c0 -6 -4 -13 -10 -16 -5 -3 -10 1 -10 9 0 9 5 16 10 16 6
0 10 -4 10 -9z m-349 -64 c-10 -9 -11 -8 -5 6 3 10 9 15 12 12 3 -3 0 -11 -7
-18z m399 -21 c0 -22 -17 -28 -40 -14 -28 18 -25 28 10 28 19 0 30 -5 30 -14z
m-40 -38 c16 -10 24 -10 41 0 15 10 24 10 34 2 17 -14 30 -99 17 -112 -6 -6
-62 -7 -146 -2 -118 6 -137 9 -134 23 2 9 22 26 46 39 l42 23 31 -22 c21 -14
34 -18 41 -11 7 7 0 16 -21 28 -27 16 -28 19 -13 30 22 17 37 17 62 2z"/>
<path d="M5463 1142 c-13 -2 -23 -8 -23 -13 0 -12 57 -12 64 0 7 11 -13 18
-41 13z"/>
<path d="M2333 5354 c-33 -14 -2 -69 34 -62 27 5 25 62 -2 65 -11 1 -26 -1
-32 -3z"/>
<path d="M2480 5335 c0 -14 -4 -24 -10 -20 -5 3 -7 12 -3 20 6 17 -12 21 -22
5 -9 -14 3 -47 20 -54 8 -3 24 3 37 14 l23 19 -22 21 -23 21 0 -26z"/>
<path d="M2574 5335 c-11 -26 3 -44 33 -42 49 4 40 56 -10 57 -10 0 -20 -7
-23 -15z"/>
<path d="M3340 4983 c-14 -9 -65 -51 -115 -93 -186 -156 -376 -276 -660 -414
-198 -97 -235 -124 -235 -174 0 -34 50 -396 56 -401 15 -16 13 31 -12 207 -22
154 -25 206 -17 224 8 18 68 52 224 130 303 150 455 248 686 439 126 106 132
106 250 -2 206 -189 377 -308 658 -455 79 -41 149 -82 156 -91 21 -25 15 -74
-40 -298 -27 -115 -80 -334 -115 -485 -80 -336 -107 -393 -279 -593 -147 -170
-476 -476 -558 -518 -62 -31 -151 -24 -206 16 -79 59 -326 340 -443 504 -152
214 -220 371 -224 517 -3 76 -29 174 -46 174 -4 0 -11 -17 -15 -37 -3 -21 -15
-55 -26 -76 -10 -21 -19 -45 -19 -54 0 -26 -58 -10 -146 42 -30 18 -33 18 -58
2 -21 -14 -26 -25 -26 -60 0 -62 28 -99 101 -136 110 -55 175 -37 201 55 l11
39 13 -54 c47 -182 204 -430 452 -712 137 -156 221 -234 268 -249 50 -17 224
-6 267 17 40 20 60 35 169 131 75 64 86 78 75 91 -10 14 -10 14 4 4 13 -11 20
-8 42 15 15 16 24 32 20 37 -5 4 -2 5 5 0 17 -9 213 192 205 211 -2 6 0 15 6
19 7 3 8 0 5 -9 -3 -9 -1 -16 4 -16 6 0 13 8 17 18 3 9 26 40 50 67 47 53 51
60 35 70 -5 3 -10 12 -10 18 0 7 7 4 14 -5 12 -17 14 -17 32 3 16 17 16 22 4
31 -12 8 -12 9 3 4 15 -5 17 -2 13 17 -3 12 -3 16 0 10 7 -16 24 -17 24 -3 0
6 12 28 26 50 14 21 23 44 19 49 -3 6 -3 11 2 11 15 0 36 63 36 107 0 29 3 39
9 31 7 -9 8 -4 5 15 -2 15 -2 25 1 22 4 -3 12 20 18 52 7 32 20 90 30 128 9
39 17 82 17 97 0 15 4 25 8 22 8 -5 13 21 12 69 0 9 4 17 9 17 4 0 8 10 8 23
0 12 16 82 35 156 19 74 35 147 35 162 0 15 4 30 9 34 13 7 25 109 17 140 -5
21 -11 25 -28 19 -14 -4 -18 -2 -14 5 4 6 0 11 -8 11 -9 0 -16 3 -16 8 -1 11
-42 38 -70 46 -19 6 -21 5 -10 -3 10 -7 11 -11 3 -11 -7 0 -17 9 -24 21 -8 17
-17 20 -40 15 -16 -3 -31 -1 -35 6 -4 7 -3 8 4 4 7 -4 12 -2 12 4 0 7 -9 14
-20 17 -11 3 -18 9 -15 12 7 13 -66 42 -89 36 -16 -5 -18 -4 -6 4 12 8 10 12
-10 21 -14 6 -50 28 -80 49 -37 26 -57 35 -62 27 -8 -11 -9 -8 -12 16 0 7 -17
22 -36 35 -19 12 -50 35 -68 50 -19 15 -39 28 -45 28 -7 0 -14 5 -17 11 -10
23 -102 94 -112 88 -6 -4 -8 -3 -5 3 3 5 -19 34 -49 64 -45 44 -56 51 -64 39
-8 -13 -10 -13 -10 1 0 12 -14 18 -61 23 -89 9 -102 8 -129 -11z m188 -48 c-3
-3 -9 2 -12 12 -6 14 -5 15 5 6 7 -7 10 -15 7 -18z m72 -65 c0 -5 -2 -10 -4
-10 -3 0 -8 5 -11 10 -3 6 -1 10 4 10 6 0 11 -4 11 -10z m40 -30 c0 -5 -2 -10
-4 -10 -3 0 -8 5 -11 10 -3 6 -1 10 4 10 6 0 11 -4 11 -10z m90 -40 c0 -5 -4
-10 -10 -10 -5 0 -10 5 -10 10 0 6 5 10 10 10 6 0 10 -4 10 -10z m105 -110 c3
-5 1 -10 -4 -10 -6 0 -11 5 -11 10 0 6 2 10 4 10 3 0 8 -4 11 -10z m50 -10 c3
-6 -1 -7 -9 -4 -18 7 -21 14 -7 14 6 0 13 -4 16 -10z m-4 -27 c13 -16 12 -17
-3 -4 -10 7 -18 15 -18 17 0 8 8 3 21 -13z m84 -53 c3 -6 -1 -7 -9 -4 -18 7
-21 14 -7 14 6 0 13 -4 16 -10z m65 -10 c8 -5 11 -10 5 -10 -5 0 -17 5 -25 10
-8 5 -10 10 -5 10 6 0 17 -5 25 -10z m110 -80 c-12 -8 -12 -10 -1 -10 8 0 12
-2 9 -5 -3 -3 -13 -2 -22 1 -14 5 -15 9 -4 15 7 5 18 9 23 9 6 0 3 -5 -5 -10z
m224 -122 c-3 -4 -10 -8 -15 -8 -6 0 -7 5 -4 10 3 6 1 10 -4 10 -6 0 -11 5
-11 10 0 6 8 5 19 -2 11 -7 17 -16 15 -20z m-27 -280 c-3 -7 -5 -2 -5 12 0 14
2 19 5 13 2 -7 2 -19 0 -25z m-16 -79 c-5 -13 -10 -19 -10 -12 -1 15 10 45 15
40 3 -2 0 -15 -5 -28z m-14 -61 c-3 -7 -5 -2 -5 12 0 14 2 19 5 13 2 -7 2 -19
0 -25z m13 -44 c0 -14 -4 -23 -9 -20 -5 3 -7 15 -4 26 7 28 13 25 13 -6z m-33
-56 c-3 -7 -5 -2 -5 12 0 14 2 19 5 13 2 -7 2 -19 0 -25z m-37 -154 c0 -14 -4
-23 -9 -20 -5 3 -7 15 -4 26 7 28 13 25 13 -6z m-28 -116 c-7 -7 -12 -8 -12
-2 0 6 3 14 7 17 3 4 9 5 12 2 2 -3 -1 -11 -7 -17z m-1968 -98 c72 -34 116
-47 116 -32 0 6 5 23 10 37 15 41 40 15 40 -41 0 -56 -26 -110 -60 -124 -36
-15 -127 19 -175 64 -29 27 -35 41 -35 73 0 64 13 67 104 23z m1913 -122 c-3
-8 -6 -5 -6 6 -1 11 2 17 5 13 3 -3 4 -12 1 -19z m-16 -55 c-12 -20 -14 -14
-5 12 4 9 9 14 11 11 3 -2 0 -13 -6 -23z m-100 -220 c-8 -15 -10 -15 -11 -2 0
17 10 32 18 25 2 -3 -1 -13 -7 -23z m-35 -45 c-18 -26 -22 -17 -5 14 6 11 13
17 16 15 3 -3 -2 -16 -11 -29z m-54 -60 c-7 -7 -12 -8 -12 -2 0 6 3 14 7 17 3
4 9 5 12 2 2 -3 -1 -11 -7 -17z m8 -22 c0 -11 -19 -15 -25 -6 -3 5 1 10 9 10
9 0 16 -2 16 -4z m-80 -110 c0 -3 -4 -8 -10 -11 -5 -3 -10 -1 -10 4 0 6 5 11
10 11 6 0 10 -2 10 -4z m-87 -101 c-3 -9 -8 -14 -10 -11 -3 3 -2 9 2 15 9 16
15 13 8 -4z m-199 -151 c3 -8 2 -12 -4 -9 -6 3 -10 10 -10 16 0 14 7 11 14 -7z
m-187 -159 c-4 -8 -11 -15 -17 -15 -6 0 -6 7 2 20 14 22 24 19 15 -5z"/>
<path d="M1372 4858 c-21 -21 -14 -66 13 -84 52 -34 111 31 70 76 -20 22 -65
26 -83 8z m69 -24 c9 -11 10 -20 2 -32 -13 -22 -43 -22 -56 -1 -24 38 25 68
54 33z"/>
<path d="M1660 4753 c-20 -25 -21 -36 -16 -97 4 -39 1 -94 -5 -127 -9 -45 -9
-62 0 -73 10 -11 10 -33 0 -98 -17 -119 -15 -118 -107 -118 -161 0 -245 -41
-373 -179 -163 -174 -271 -382 -255 -494 3 -23 7 -62 10 -87 5 -55 31 -128 53
-152 22 -24 78 -23 120 3 19 12 36 20 38 18 1 -2 -9 -61 -23 -131 -32 -153
-33 -150 72 -213 16 -9 15 -16 -4 -95 -60 -237 -85 -574 -76 -1000 7 -338 29
-663 45 -668 14 -5 14 -79 1 -87 -18 -11 -58 -99 -74 -162 -22 -83 -21 -120 3
-133 22 -11 190 -14 207 -2 26 17 31 51 26 179 -4 108 -7 133 -19 133 -10 0
-13 6 -9 16 3 9 6 22 6 30 0 8 6 14 14 14 22 0 24 8 42 131 17 125 48 278 125
614 50 219 135 567 146 595 6 16 33 -54 59 -150 48 -180 170 -776 223 -1095
16 -91 25 -123 40 -135 26 -20 29 -76 7 -119 -11 -20 -20 -66 -23 -111 -8
-105 -8 -105 163 -113 236 -12 309 -9 334 11 31 25 18 63 -36 110 -45 41 -187
115 -242 127 -30 6 -32 9 -32 51 0 30 5 46 15 50 13 5 15 44 15 265 0 352 -19
657 -75 1217 -14 134 -25 250 -25 258 0 7 15 20 34 28 27 11 36 22 41 48 10
51 -7 153 -25 154 -8 1 -70 2 -138 3 -103 1 -124 4 -129 17 -7 18 134 601 150
622 7 9 60 12 203 12 107 0 194 2 194 6 0 10 -63 118 -102 177 -95 141 -191
203 -331 214 -68 6 -97 21 -97 49 0 8 10 14 24 14 33 0 46 19 53 80 5 43 10
53 31 61 23 9 24 12 18 63 l-7 54 41 -5 c51 -7 60 3 60 67 -1 58 -20 83 -66
86 -21 2 -51 15 -71 31 -19 15 -46 35 -59 43 -23 14 -27 13 -44 -8 l-19 -22
-37 25 c-47 32 -67 32 -94 -2z m259 -142 c9 -6 14 -35 17 -88 3 -76 2 -81 -20
-91 -29 -13 -102 3 -110 24 -3 8 -3 48 1 89 l6 75 46 0 c25 0 52 -4 60 -9z
m-149 -40 c15 -29 12 -41 -9 -41 -24 0 -43 23 -35 44 8 22 31 20 44 -3z m-50
-186 c5 -59 6 -60 47 -80 28 -13 42 -27 43 -39 0 -26 38 -66 62 -66 33 0 19
-28 -25 -49 -56 -27 -122 -36 -172 -22 -41 11 -125 60 -125 73 0 4 17 12 38
18 48 12 57 31 73 143 11 80 14 88 33 85 18 -3 22 -12 26 -63z m-127 -511 c96
-18 112 -37 34 -42 -40 -3 -49 -7 -61 -31 -17 -32 -54 -51 -99 -51 -28 0 -38
-9 -77 -64 -165 -234 -328 -380 -395 -356 -27 9 -69 131 -60 172 12 50 94 114
311 239 69 39 144 89 167 110 48 44 59 45 180 23z m304 -800 c-3 -3 -12 -4
-19 -1 -8 3 -5 6 6 6 11 1 17 -2 13 -5z m73 -14 c8 -5 11 -10 5 -10 -5 0 -17
5 -25 10 -8 5 -10 10 -5 10 6 0 17 -5 25 -10z m17 -92 c-2 -13 -4 -5 -4 17 -1
22 1 32 4 23 2 -10 2 -28 0 -40z m-107 12 c0 -4 -6 -12 -12 -18 -10 -8 -13 -5
-13 13 0 14 5 21 13 18 6 -3 12 -9 12 -13z m-557 -7 c-7 -2 -19 -2 -25 0 -7 3
-2 5 12 5 14 0 19 -2 13 -5z m75 0 c-10 -2 -28 -2 -40 0 -13 2 -5 4 17 4 22 1
32 -1 23 -4z m542 -28 c0 -5 -5 -3 -10 5 -5 8 -10 20 -10 25 0 6 5 3 10 -5 5
-8 10 -19 10 -25z m-527 8 c-7 -2 -21 -2 -30 0 -10 3 -4 5 12 5 17 0 24 -2 18
-5z m-33 -20 c-1 -13 -30 -48 -30 -36 0 7 5 15 10 18 6 4 8 11 5 16 -4 5 -1 9
4 9 6 0 11 -3 11 -7z m-48 -45 c-7 -7 -12 -8 -12 -2 0 14 12 26 19 19 2 -3 -1
-11 -7 -17z m103 2 c-3 -5 -11 -10 -16 -10 -6 0 -7 5 -4 10 3 6 11 10 16 10 6
0 7 -4 4 -10z m529 -35 c11 -8 16 -15 10 -15 -5 0 -18 7 -28 15 -11 8 -16 15
-10 15 5 0 18 -7 28 -15z m43 -37 c-3 -8 -6 -5 -6 6 -1 11 2 17 5 13 3 -3 4
-12 1 -19z m-807 -2 c0 -3 -4 -8 -10 -11 -5 -3 -10 -1 -10 4 0 6 5 11 10 11 6
0 10 -2 10 -4z m757 -18 c-3 -8 -6 -5 -6 6 -1 11 2 17 5 13 3 -3 4 -12 1 -19z
m-284 -35 c-7 -2 -19 -2 -25 0 -7 3 -2 5 12 5 14 0 19 -2 13 -5z m-66 -55 c-3
-8 -6 -5 -6 6 -1 11 2 17 5 13 3 -3 4 -12 1 -19z m410 0 c-3 -8 -6 -5 -6 6 -1
11 2 17 5 13 3 -3 4 -12 1 -19z m-353 -27 c3 -5 -1 -11 -9 -14 -9 -4 -12 -1
-8 9 6 16 10 17 17 5z m-517 -108 c-3 -10 -5 -4 -5 12 0 17 2 24 5 18 2 -7 2
-21 0 -30z m410 -65 c-3 -8 -6 -5 -6 6 -1 11 2 17 5 13 3 -3 4 -12 1 -19z
m502 -132 c4 -42 4 -73 0 -68 -8 8 -21 157 -13 149 3 -3 9 -39 13 -81z m-932
-198 c-2 -24 -4 -7 -4 37 0 44 2 63 4 43 2 -21 2 -57 0 -80z m626 62 c3 -11 1
-20 -4 -20 -5 0 -9 9 -9 20 0 11 2 20 4 20 2 0 6 -9 9 -20z m-336 -82 c-3 -8
-6 -5 -6 6 -1 11 2 17 5 13 3 -3 4 -12 1 -19z m50 -10 c-3 -8 -6 -5 -6 6 -1
11 2 17 5 13 3 -3 4 -12 1 -19z m-340 -235 c-1 -43 -3 -10 -3 72 0 83 2 118 3
78 2 -40 2 -107 0 -150z m329 171 c-4 -9 -9 -15 -11 -12 -3 3 -3 13 1 22 4 9
9 15 11 12 3 -3 3 -13 -1 -22z m621 -31 c-3 -10 -5 -2 -5 17 0 19 2 27 5 18 2
-10 2 -26 0 -35z m-637 -45 c0 -5 -4 -8 -10 -8 -5 0 -10 10 -10 23 0 18 2 19
10 7 5 -8 10 -18 10 -22z m647 -100 c-2 -13 -4 -3 -4 22 0 25 2 35 4 23 2 -13
2 -33 0 -45z m-667 17 c0 -14 -2 -25 -4 -25 -2 0 -6 11 -8 25 -3 14 -1 25 3
25 5 0 9 -11 9 -25z m637 -47 c-3 -8 -6 -5 -6 6 -1 11 2 17 5 13 3 -3 4 -12 1
-19z m-218 -41 c0 -27 -2 -29 -9 -12 -12 28 -12 57 0 50 6 -3 10 -21 9 -38z
m-457 -72 c-2 -14 -6 -25 -8 -25 -2 0 -4 11 -4 25 0 14 4 25 9 25 4 0 6 -11 3
-25z m-25 -77 c-3 -8 -6 -5 -6 6 -1 11 2 17 5 13 3 -3 4 -12 1 -19z m520 -50
c-3 -8 -6 -5 -6 6 -1 11 2 17 5 13 3 -3 4 -12 1 -19z m-540 -90 c-3 -8 -6 -5
-6 6 -1 11 2 17 5 13 3 -3 4 -12 1 -19z m-190 -120 c-2 -13 -4 -5 -4 17 -1 22
1 32 4 23 2 -10 2 -28 0 -40z m20 -30 c-3 -8 -6 -5 -6 6 -1 11 2 17 5 13 3 -3
4 -12 1 -19z m930 -135 c-3 -10 -5 -2 -5 17 0 19 2 27 5 18 2 -10 2 -26 0 -35z
m-927 9 c0 -15 -2 -15 -10 -2 -13 20 -13 33 0 25 6 -3 10 -14 10 -23z m90 18
c0 -5 -2 -10 -4 -10 -3 0 -8 5 -11 10 -3 6 -1 10 4 10 6 0 11 -4 11 -10z m-20
-20 c0 -5 -4 -10 -10 -10 -5 0 -10 5 -10 10 0 6 5 10 10 10 6 0 10 -4 10 -10z
m20 -59 c0 -40 -11 -51 -51 -51 -38 0 -39 1 -39 35 0 35 0 35 45 35 38 0 45
-3 45 -19z m820 -69 c0 -43 -3 -48 -31 -61 -23 -10 -37 -11 -55 -2 -21 9 -24
17 -24 61 l0 50 55 0 55 0 0 -48z m-840 -22 c0 -22 19 -28 21 -7 2 16 21 -148
22 -190 0 -18 -2 -36 -6 -39 -13 -13 -89 -21 -145 -15 l-57 6 1 46 c2 44 16
96 49 174 16 38 18 38 31 20 13 -17 16 -18 24 -5 5 8 10 18 10 23 0 4 11 7 25
7 18 0 25 -5 25 -20z m753 -65 c20 -8 43 -15 52 -15 8 0 15 7 15 15 0 11 12
15 48 15 74 0 248 -94 288 -156 14 -20 14 -27 3 -41 -13 -14 -37 -15 -233 -10
-162 5 -222 10 -228 19 -12 18 3 188 17 188 1 0 19 -7 38 -15z"/>
<path d="M1130 996 c0 -12 12 -16 51 -16 66 0 62 24 -4 28 -37 2 -47 0 -47
-12z"/>
<path d="M1094 911 c-13 -13 18 -21 87 -21 56 0 79 4 79 13 0 8 -23 12 -81 12
-44 0 -82 -2 -85 -4z"/>
<path d="M2100 1052 c0 -5 19 -22 43 -39 59 -42 65 -45 72 -34 3 6 -18 26 -47
46 -54 36 -68 41 -68 27z"/>
<path d="M1965 920 c-4 -6 -4 -14 0 -18 11 -12 398 -15 394 -4 -3 7 -68 13
-180 16 -97 3 -183 8 -191 11 -9 4 -19 1 -23 -5z"/>
<path d="M1210 4701 c0 -13 26 -32 33 -24 8 7 -11 33 -24 33 -5 0 -9 -4 -9 -9z"/>
<path d="M1300 4695 c-8 -9 -8 -15 -2 -15 12 0 26 19 19 26 -2 2 -10 -2 -17
-11z"/>
<path d="M1221 4616 c-7 -8 -8 -17 -3 -19 4 -3 13 3 20 14 14 22 0 26 -17 5z"/>
<path d="M1290 4622 c0 -5 7 -16 16 -23 14 -12 16 -11 13 5 -4 20 -29 35 -29
18z"/>
<path d="M3212 4384 c-55 -27 -110 -92 -131 -153 -6 -19 -11 -60 -11 -91 0
-31 -3 -91 -6 -133 -7 -76 -7 -77 -35 -77 -15 0 -40 -11 -56 -24 l-27 -24 -1
-218 0 -219 34 -63 c41 -75 94 -125 170 -161 50 -23 67 -26 166 -25 136 0 219
21 287 71 38 27 46 38 36 45 -10 7 -9 8 4 4 34 -11 106 102 93 145 -5 14 -3
19 4 15 13 -9 18 16 26 134 16 233 16 250 1 244 -11 -4 -13 0 -9 15 4 16 -1
23 -22 31 -35 13 -34 13 -28 -12 4 -21 4 -21 -9 2 -9 17 -27 28 -56 34 l-42
10 0 118 c0 145 -11 190 -58 253 -77 102 -216 136 -330 79z m214 -9 c49 -20
105 -76 130 -130 21 -44 24 -65 24 -182 l0 -133 -40 0 -40 0 0 127 c0 108 -3
133 -21 170 -47 98 -179 123 -257 50 -52 -48 -62 -102 -62 -332 0 -18 -5 -20
-41 -17 l-42 4 7 137 c6 120 10 142 34 190 59 118 187 166 308 116z m-19 -95
c59 -36 67 -60 73 -212 l5 -138 -150 0 -150 0 2 117 c1 65 4 132 8 149 5 29
55 86 85 97 34 12 96 6 127 -13z m254 -389 c19 -16 19 -19 5 -206 -11 -147
-19 -204 -37 -250 -28 -75 -102 -155 -178 -192 -49 -25 -67 -28 -151 -28 -75
1 -105 5 -142 22 -67 30 -133 96 -168 166 l-30 60 0 193 c0 199 6 239 37 247
10 3 159 5 331 5 274 0 315 -3 333 -17z m46 -73 c-3 -8 -6 -5 -6 6 -1 11 2 17
5 13 3 -3 4 -12 1 -19z m2 -115 c-1 -10 -5 -29 -9 -43 -7 -21 -8 -19 -9 18 -1
23 4 42 9 42 6 0 10 -8 9 -17z m-22 -180 c-3 -10 -5 -2 -5 17 0 19 2 27 5 18
2 -10 2 -26 0 -35z m-141 -275 c4 -6 3 -8 -4 -4 -6 3 -13 2 -17 -4 -3 -5 -11
-10 -18 -10 -6 0 -2 7 9 15 23 18 21 17 30 3z"/>
<path d="M3253 3764 c-18 -9 -39 -31 -48 -51 -23 -47 -8 -103 36 -134 31 -22
31 -23 25 -83 -6 -67 2 -90 30 -84 21 4 31 37 33 105 1 35 6 45 30 59 73 43
68 149 -9 189 -36 19 -57 19 -97 -1z"/>
<path d="M5590 3525 c7 -8 17 -15 22 -15 6 0 5 7 -2 15 -7 8 -17 15 -22 15 -6
0 -5 -7 2 -15z"/>
<path d="M5670 3525 c-7 -8 -8 -15 -2 -15 5 0 15 7 22 15 7 8 8 15 2 15 -5 0
-15 -7 -22 -15z"/>
<path d="M5595 3450 c-10 -11 -13 -20 -8 -20 13 0 38 29 31 35 -3 3 -13 -4
-23 -15z"/>
<path d="M5673 3443 c9 -9 20 -13 24 -9 4 4 1 11 -7 16 -25 16 -35 11 -17 -7z"/>
<path d="M2480 1090 c0 -7 314 -10 921 -10 611 0 918 3 914 10 -9 14 -1835 14
-1835 0z"/>
</g>
</svg>
