<?xml version="1.0" standalone="no"?>
<!DOCTYPE svg PUBLIC "-//W3C//DTD SVG 20010904//EN"
 "http://www.w3.org/TR/2001/REC-SVG-20010904/DTD/svg10.dtd">
<svg version="1.0" xmlns="http://www.w3.org/2000/svg"
 width="632.000000pt" height="632.000000pt" viewBox="0 0 632.000000 632.000000"
 preserveAspectRatio="xMidYMid meet">

<g transform="translate(0.000000,632.000000) scale(0.100000,-0.100000)"
fill="#000000" stroke="none">
<path d="M5 3160 c0 -1741 1 -2453 2 -1583 2 871 2 2295 0 3165 -1 871 -2 159
-2 -1582z"/>
<path d="M2770 5349 c-180 -22 -530 -124 -515 -150 3 -4 29 1 58 13 94 38 229
78 341 100 150 30 501 33 640 5 78 -16 109 -17 95 -2 -3 2 -45 11 -94 20 -107
20 -416 28 -525 14z"/>
<path d="M3587 5274 c-7 -8 4 -44 14 -44 12 0 12 37 0 44 -4 3 -11 3 -14 0z"/>
<path d="M2786 5259 c-93 -12 -266 -48 -285 -59 -26 -15 25 -12 89 5 112 30
308 48 458 42 78 -3 142 -2 142 3 0 20 -270 26 -404 9z"/>
<path d="M3655 5210 c-3 -5 3 -10 14 -10 11 0 23 5 26 10 3 6 -3 10 -14 10
-11 0 -23 -4 -26 -10z"/>
<path d="M2056 5174 c-32 -32 -11 -84 34 -84 32 0 62 33 53 57 -4 11 -8 8 -17
-9 -16 -31 -60 -32 -64 0 -2 13 3 25 12 28 17 7 22 24 7 24 -5 0 -17 -7 -25
-16z"/>
<path d="M3530 5180 c0 -5 9 -10 19 -10 11 0 23 5 26 10 4 6 -5 10 -19 10 -14
0 -26 -4 -26 -10z"/>
<path d="M3618 5155 c-8 -9 3 -45 13 -45 5 0 9 6 9 13 0 17 -15 39 -22 32z"/>
<path d="M1240 4869 c-36 -13 -51 -43 -61 -118 -4 -36 -38 -293 -74 -571 -36
-278 -72 -554 -80 -615 -8 -60 -34 -265 -59 -455 -25 -190 -54 -415 -65 -500
-11 -85 -27 -206 -35 -268 -16 -121 -12 -153 23 -171 26 -15 961 -15 961 -1 0
7 -165 10 -475 10 l-475 0 -15 23 c-13 21 -13 35 0 138 9 63 22 164 30 224 8
61 23 180 34 265 102 776 118 901 156 1193 98 760 101 781 114 805 12 22 12
22 334 22 3378 2 3669 1 3693 -15 14 -9 32 -31 40 -49 18 -36 22 11 -55 -601
-23 -176 -44 -331 -46 -343 -3 -13 -1 -30 5 -38 9 -10 8 -44 -4 -137 -9 -67
-16 -126 -16 -130 0 -14 -35 -6 -60 13 -14 11 -30 20 -35 20 -18 0 -268 164
-391 256 -104 77 -290 235 -319 271 -15 19 -58 32 -87 26 -22 -4 -27 -1 -30
18 -3 23 -8 24 -83 27 -104 4 -138 -7 -205 -69 -72 -67 -213 -180 -320 -255
-165 -116 -298 -193 -570 -329 -151 -76 -286 -145 -300 -155 -14 -9 -47 -20
-75 -24 -72 -9 -141 -46 -226 -121 -92 -81 -139 -104 -237 -117 -65 -9 -81
-15 -104 -39 -86 -91 -52 -305 68 -426 35 -35 47 -55 54 -95 6 -28 10 -53 10
-56 0 -3 5 -1 12 6 15 15 48 16 48 2 0 -5 -6 -10 -12 -11 -7 -1 -2 -4 12 -8
35 -10 35 -53 1 -61 l-24 -6 32 -37 c33 -37 99 -73 155 -84 26 -6 28 -8 22
-42 -3 -20 -6 -44 -6 -54 0 -17 -17 -18 -260 -16 -144 1 -264 -1 -267 -5 -4
-3 113 -6 260 -6 299 0 270 9 282 -85 4 -27 31 -173 61 -324 30 -150 54 -275
54 -277 0 -2 -72 -4 -160 -4 l-160 0 0 -40 0 -40 165 0 165 0 10 -24 c5 -14
14 -65 20 -113 6 -48 18 -100 26 -115 21 -39 18 -51 -36 -160 -58 -115 -56
-138 8 -138 47 1 72 15 116 67 33 37 36 47 36 101 0 34 -4 64 -10 67 -13 8
-13 52 0 60 7 4 8 48 4 124 -8 135 -11 129 80 127 l60 -1 13 -89 c7 -49 20
-114 29 -145 10 -31 17 -94 18 -141 l1 -85 62 -31 c37 -19 86 -35 123 -39 134
-16 116 66 -38 178 -40 29 -43 34 -37 62 4 16 10 88 14 159 l6 129 45 13 c25
8 52 14 61 14 8 0 63 -57 121 -127 58 -71 166 -190 239 -265 175 -180 184
-184 374 -180 126 2 145 5 190 27 28 14 66 40 86 57 20 18 67 59 105 92 126
107 356 330 467 451 204 223 342 433 363 553 3 20 15 68 25 107 25 91 24 109
-6 129 -13 9 -27 16 -30 16 -11 0 -4 -24 11 -41 15 -17 11 -45 -6 -34 -11 7
-45 -46 -42 -67 2 -12 -5 -16 -34 -16 -26 0 -33 3 -25 11 6 6 11 22 11 34 0
17 5 23 18 21 11 -2 18 4 20 20 2 15 -2 22 -12 22 -9 0 -16 5 -16 10 0 6 7 10
15 10 11 0 12 5 5 25 -11 29 -7 32 48 30 37 -1 42 2 42 20 0 25 18 45 40 45
13 0 15 7 12 30 -2 17 0 30 6 30 6 0 16 17 21 38 14 53 56 228 86 357 47 197
85 359 96 408 23 98 0 134 -129 197 l-72 35 0 48 c0 26 9 107 19 180 11 73 26
188 35 257 34 265 58 450 77 588 11 78 21 176 22 217 2 73 1 76 -28 99 -27 22
-41 25 -160 29 -269 8 -3981 5 -4005 -4z m2960 -771 c365 -325 544 -450 945
-658 77 -40 147 -79 157 -87 30 -26 41 -68 30 -115 -5 -24 -58 -245 -116 -493
-59 -247 -112 -476 -117 -508 -5 -32 -14 -66 -19 -75 -5 -9 -19 -60 -31 -112
-25 -109 -56 -175 -135 -292 -129 -190 -395 -471 -689 -727 -181 -158 -213
-176 -315 -176 -112 0 -151 25 -320 210 -166 180 -244 273 -357 423 -97 129
-108 153 -118 242 -12 112 -56 309 -127 573 -10 34 -8 39 16 62 33 31 34 78 5
228 -12 59 -19 110 -17 113 3 2 33 -10 67 -27 79 -39 128 -46 170 -24 60 31
107 175 99 304 l-4 63 38 24 c21 14 43 35 48 48 4 12 22 34 39 49 41 34 41 51
-1 42 -18 -4 -54 -8 -79 -8 -76 -3 -90 -23 -119 -171 -14 -67 -44 -142 -67
-168 -36 -40 -84 -12 -162 91 -36 50 -68 65 -148 72 -41 4 -81 13 -89 19 -22
19 -17 56 10 74 21 13 23 20 16 45 -4 16 -6 32 -3 35 3 2 -2 14 -10 26 -14 20
-14 25 4 54 24 39 24 51 -1 76 l-20 20 252 124 c416 204 659 362 939 608 37
32 77 62 90 67 40 16 81 1 139 -51z m918 -598 c15 -25 11 -25 -30 0 -32 19
-32 20 -8 20 14 0 31 -9 38 -20z m-2352 -287 c12 -16 23 -45 27 -65 5 -34 3
-39 -19 -44 -14 -4 -31 -1 -39 6 -12 10 -15 10 -15 -3 0 -8 7 -17 15 -21 8 -3
15 -17 15 -31 0 -28 32 -65 55 -65 22 0 19 -11 -16 -53 l-31 -38 -57 32 c-71
40 -68 37 -44 54 14 10 24 35 33 80 11 59 11 68 -5 85 -11 12 -13 20 -7 20 7
0 12 7 12 16 0 14 36 53 51 54 3 0 14 -12 25 -27z m658 -67 c-10 -8 -21 -12
-23 -10 -3 2 4 11 15 18 10 8 21 12 23 10 3 -2 -4 -11 -15 -18z m-100 -11
c-19 -29 -10 -68 14 -63 9 2 18 12 21 23 3 17 1 18 -13 6 -25 -21 -21 11 4 34
24 22 27 19 32 -19 3 -25 -3 -34 -40 -59 -39 -26 -43 -33 -38 -58 5 -24 2 -29
-14 -29 -23 0 -25 13 -10 91 11 55 33 99 50 99 6 0 3 -11 -6 -25z m-548 -290
c9 -8 14 -25 12 -37 -3 -20 -9 -23 -53 -23 -45 0 -50 2 -53 24 -7 44 61 69 94
36z m-276 -390 c0 -92 -2 -93 -50 -53 -22 19 -60 93 -60 117 0 19 6 21 55 21
l55 0 0 -85z m-40 -85 c43 -36 54 -37 68 -5 12 25 27 30 56 19 22 -8 20 -22
-6 -45 -57 -49 -72 -51 -137 -23 l-61 26 17 29 c10 16 20 29 23 29 3 0 21 -13
40 -30z m395 -556 c26 -88 58 -184 71 -215 16 -34 24 -69 22 -90 l-3 -34 -67
-3 -66 -3 -6 103 c-12 230 -15 433 -6 417 5 -9 30 -88 55 -175z m-159 -176
c19 0 34 -4 34 -9 0 -10 -50 -12 -74 -3 -9 3 -16 10 -16 16 0 5 5 6 11 3 6 -4
26 -7 45 -7z m483 -112 c32 -46 29 -56 -20 -56 -16 0 -19 7 -19 50 0 28 2 50
5 50 2 0 18 -20 34 -44z m-181 -23 c30 -44 34 -53 24 -53 -5 0 -21 18 -36 40
-29 44 -18 56 12 13z m-218 -398 c0 -20 -5 -25 -24 -25 -22 0 -36 16 -36 41 0
5 14 9 30 9 25 0 30 -4 30 -25z m320 -28 c0 -13 -5 -28 -12 -35 -16 -16 -48
-15 -48 1 0 6 -3 22 -6 35 -6 20 -3 22 30 22 31 0 36 -3 36 -23z"/>
<path d="M3907 3556 c-76 -32 -123 -69 -158 -125 -46 -71 -59 -131 -59 -260 0
-64 -3 -139 -6 -167 l-6 -51 -60 -6 c-42 -4 -67 -12 -83 -27 -24 -23 -42 -97
-27 -112 6 -6 11 10 15 38 9 88 -12 84 472 84 489 0 455 7 455 -99 0 -91 -19
-345 -31 -424 -21 -134 -123 -278 -237 -336 -200 -102 -458 -45 -588 131 -42
58 -84 151 -84 188 0 10 -5 22 -12 26 -22 14 0 -79 38 -153 63 -124 176 -213
317 -250 72 -18 275 -12 362 11 194 51 319 199 344 407 17 144 33 398 26 422
-18 58 -84 97 -164 97 l-49 0 -4 183 c-3 173 -4 185 -30 239 -59 126 -164 198
-298 205 -62 3 -85 0 -133 -21z m256 -25 c59 -29 122 -91 155 -156 25 -48 27
-58 30 -237 l4 -188 -50 0 -49 0 -7 92 c-3 50 -6 123 -6 162 0 129 -33 190
-125 232 -80 38 -157 28 -221 -28 -65 -57 -72 -85 -77 -275 -2 -93 -7 -175
-11 -181 -8 -13 -92 -17 -99 -4 -2 4 -1 93 2 197 6 169 10 195 29 232 42 81
106 138 191 170 54 20 176 12 234 -16z m-71 -103 c48 -14 115 -87 122 -132 3
-17 8 -102 11 -188 l6 -158 -200 0 -200 0 4 174 c3 151 6 179 24 214 42 83
136 119 233 90z"/>
<path d="M3903 2741 c-23 -11 -47 -29 -53 -42 -41 -76 -31 -140 31 -193 l41
-34 -4 -84 c-1 -45 1 -89 5 -95 9 -14 53 -18 61 -5 3 5 8 49 12 100 7 88 8 91
36 103 64 27 96 122 61 188 -38 72 -115 97 -190 62z"/>
<path d="M2723 2835 c-14 -15 -7 -25 19 -25 21 0 24 13 6 28 -9 7 -17 6 -25
-3z"/>
<path d="M1501 4606 c-6 -8 -16 -54 -22 -102 -25 -212 -51 -369 -62 -376 -7
-4 -26 -8 -43 -8 -18 0 -38 -8 -49 -20 -16 -17 -16 -28 -5 -122 6 -57 15 -105
20 -108 4 -3 13 -51 20 -107 7 -56 17 -108 21 -115 11 -17 230 -26 659 -27
271 -1 319 1 338 15 20 14 22 23 22 107 0 51 6 139 14 197 14 98 47 359 61
476 10 85 13 84 -262 84 l-236 0 6 42 c10 71 0 78 -107 78 -77 0 -96 -3 -109
-18 -12 -13 -14 -21 -6 -29 8 -8 7 -13 -1 -18 -6 -4 -16 -3 -22 3 -7 7 -16 4
-29 -9 -10 -10 -28 -19 -39 -19 -13 0 -20 -7 -20 -20 0 -29 -42 -47 -75 -32
-19 9 -25 19 -25 41 0 17 7 34 15 38 13 7 13 13 3 36 -14 30 -48 36 -67 13z
m756 -253 l-2 -48 46 -3 45 -3 -12 -87 c-7 -48 -13 -88 -13 -89 -1 -2 -177 -3
-391 -3 -303 0 -392 3 -395 13 -3 6 4 63 14 126 13 85 23 118 36 128 15 10 88
13 347 13 l328 0 -3 -47z m73 -25 c0 -4 -13 -8 -30 -8 -30 0 -37 11 -24 45 6
14 9 13 30 -6 13 -12 24 -26 24 -31z"/>
<path d="M1601 4603 c7 -10 14 -19 14 -20 0 -1 6 7 13 17 11 18 9 20 -14 20
-24 0 -25 -2 -13 -17z"/>
<path d="M1582 4523 c2 -10 10 -18 18 -18 8 0 16 8 18 18 2 12 -3 17 -18 17
-15 0 -20 -5 -18 -17z"/>
<path d="M4277 4146 c-4 -10 2 -13 18 -12 17 1 21 4 13 14 -14 16 -25 15 -31
-2z"/>
<path d="M4917 3963 c-4 -3 -7 -13 -7 -21 0 -12 3 -12 15 -2 8 7 15 16 15 21
0 11 -14 12 -23 2z"/>
<path d="M4822 3938 c3 -7 13 -15 24 -17 16 -3 17 -1 5 13 -16 19 -34 21 -29
4z"/>
<path d="M4934 3865 c22 -17 36 -19 36 -6 0 10 -24 21 -43 21 -7 0 -3 -7 7
-15z"/>
<path d="M4850 3850 c-6 -11 -7 -20 -2 -20 10 0 32 21 32 32 0 16 -19 8 -30
-12z"/>
<path d="M1584 3324 c-42 -15 -92 -59 -81 -70 3 -3 18 6 34 20 53 50 157 59
212 18 14 -10 37 -34 49 -53 20 -29 23 -44 20 -96 -4 -72 -9 -79 -37 -63 -18
9 -21 20 -21 76 0 59 -3 68 -29 95 -27 26 -34 28 -78 23 -36 -5 -55 -13 -77
-36 -25 -27 -28 -37 -24 -78 6 -56 -3 -75 -42 -95 -29 -15 -30 -14 -36 10 -9
36 -9 65 0 103 5 21 4 32 -3 32 -16 0 -24 -44 -19 -105 8 -92 86 -164 179
-165 54 0 139 48 174 98 26 38 30 52 30 111 0 56 -4 74 -27 108 -45 69 -142
98 -224 67z m104 -126 c15 -15 16 -63 1 -89 -5 -11 -22 -25 -37 -31 -22 -9
-24 -12 -9 -15 24 -6 19 -56 -5 -61 -15 -3 -18 4 -18 35 0 21 -7 47 -15 57
-21 28 -19 41 16 81 33 37 48 42 67 23z"/>
<path d="M5257 2334 c-4 -4 -7 -14 -7 -23 0 -11 3 -12 11 -4 6 6 10 16 7 23
-2 6 -7 8 -11 4z"/>
<path d="M1032 1618 c-28 -28 -3 -72 39 -66 30 4 47 33 33 56 -14 21 -55 27
-72 10z m58 -27 c0 -24 -25 -34 -40 -16 -15 18 -5 35 21 35 12 0 19 -7 19 -19z"/>
<path d="M1112 1492 c8 -22 154 -141 258 -211 124 -83 307 -181 337 -181 10 0
-33 27 -95 60 -172 90 -302 177 -429 286 -58 51 -79 64 -71 46z"/>
<path d="M1350 1439 c76 -67 276 -196 393 -253 125 -61 290 -119 321 -113 25
4 22 6 -84 38 -181 55 -370 156 -571 305 -97 72 -127 84 -59 23z"/>
</g>
</svg>
