<?xml version="1.0" standalone="no"?>
<!DOCTYPE svg PUBLIC "-//W3C//DTD SVG 20010904//EN"
 "http://www.w3.org/TR/2001/REC-SVG-20010904/DTD/svg10.dtd">
<svg version="1.0" xmlns="http://www.w3.org/2000/svg"
 width="632.000000pt" height="632.000000pt" viewBox="0 0 632.000000 632.000000"
 preserveAspectRatio="xMidYMid meet">

<g transform="translate(0.000000,632.000000) scale(0.100000,-0.100000)"
fill="#000000" stroke="none">
<path d="M0 6310 c0 -7 1060 -10 3160 -10 2100 0 3160 3 3160 10 0 7 -1060 10
-3160 10 -2100 0 -3160 -3 -3160 -10z"/>
<path d="M3105 5370 c-7 -24 -37 -26 -55 -5 -18 22 -28 18 -32 -12 -3 -25 -7
-28 -38 -29 -34 0 -35 -1 -35 -40 0 -33 -4 -39 -22 -42 -28 -4 -30 -23 -3 -40
24 -14 26 -40 5 -48 -25 -10 -18 -44 9 -44 30 0 48 -21 36 -40 -17 -26 -11
-30 33 -28 37 3 42 0 45 -19 4 -26 27 -31 36 -8 7 19 52 20 60 0 3 -8 12 -12
20 -9 8 3 12 12 9 20 -9 23 17 46 44 39 34 -8 48 3 28 25 -20 22 -11 46 21 54
29 8 32 32 4 41 -24 8 -26 28 -5 45 23 19 18 38 -12 42 -24 3 -28 8 -29 35 0
40 -7 48 -30 35 -24 -13 -54 2 -54 28 0 26 -27 26 -35 0z m53 -105 c39 -33 48
-74 27 -115 -36 -69 -135 -73 -176 -6 -28 45 -24 73 15 112 43 43 90 46 134 9z"/>
<path d="M4349 5331 c-24 -19 -24 -21 -27 -245 -2 -154 0 -226 7 -226 8 0 11
72 11 219 0 240 3 251 58 251 52 0 658 -112 680 -126 21 -14 22 -21 22 -139 0
-72 4 -126 10 -130 13 -8 14 240 0 264 -12 23 -48 37 -135 51 -38 6 -181 31
-316 55 -136 25 -256 45 -267 45 -11 0 -30 -9 -43 -19z"/>
<path d="M2586 5314 c-9 -8 -16 -22 -16 -29 0 -8 -10 -19 -21 -26 -17 -9 -26
-7 -48 9 -37 27 -63 14 -51 -27 12 -43 -8 -66 -48 -58 -28 6 -33 3 -38 -20 -5
-18 -2 -30 10 -38 31 -23 13 -75 -27 -75 -14 0 -18 -6 -15 -27 2 -22 9 -29 33
-33 23 -4 31 -11 33 -31 2 -14 -4 -31 -12 -39 -33 -27 -9 -64 31 -49 40 15 66
-6 60 -47 -7 -45 21 -64 48 -34 28 31 64 26 77 -11 13 -38 49 -37 58 1 8 35
53 50 78 27 30 -28 55 -12 47 30 -8 47 8 65 50 57 28 -5 34 -3 40 17 6 16 2
26 -15 39 -30 22 -23 52 18 70 42 20 40 50 -5 62 -42 11 -52 42 -22 74 29 31
12 57 -35 49 -44 -8 -61 7 -58 50 3 44 -17 55 -53 27 -32 -26 -64 -18 -77 19
-11 33 -20 36 -42 13z m94 -156 c106 -54 105 -195 -2 -244 -69 -31 -151 -5
-184 58 -37 72 -12 152 58 187 54 27 73 26 128 -1z"/>
<path d="M1404 5235 c-12 -8 -29 -30 -38 -48 -13 -29 -22 -35 -57 -40 -29 -4
-52 -15 -73 -36 -30 -30 -31 -34 -34 -134 -3 -119 11 -154 75 -184 36 -17 38
-21 41 -71 3 -43 6 -52 22 -52 11 0 27 8 37 18 10 9 32 29 48 44 l30 27 110
-19 c109 -19 110 -19 150 0 34 17 41 18 55 5 9 -8 21 -15 27 -15 12 0 23 32
23 70 0 18 9 29 32 40 60 28 73 59 73 169 0 109 -12 144 -56 167 -32 16 -347
74 -404 74 -22 0 -50 -7 -61 -15z m233 -26 c98 -17 193 -37 211 -45 44 -18 62
-64 62 -156 -1 -91 -14 -123 -65 -151 -36 -20 -40 -27 -43 -65 -2 -23 -6 -42
-10 -42 -3 0 -34 27 -67 60 l-61 60 -109 21 c-61 11 -121 25 -133 32 -42 20
-54 60 -50 164 3 92 4 95 36 124 18 16 37 29 42 29 6 0 90 -14 187 -31z m-287
-144 c0 -71 16 -120 47 -148 12 -10 67 -26 142 -41 110 -21 125 -26 156 -56
43 -42 44 -55 3 -69 -24 -8 -53 -7 -122 4 -50 9 -99 18 -108 21 -12 4 -36 -12
-73 -47 l-55 -52 0 47 c0 47 -24 86 -54 86 -8 0 -26 14 -41 32 -26 30 -27 35
-23 136 3 99 4 105 31 128 18 15 41 24 63 24 l34 0 0 -65z"/>
<path d="M4446 5161 c11 -11 345 -73 353 -66 9 10 -7 14 -171 44 -184 34 -197
36 -182 22z"/>
<path d="M4460 5050 c21 -8 515 -100 534 -100 3 0 6 4 6 9 0 5 -21 12 -47 16
-27 4 -142 24 -257 46 -115 21 -221 39 -235 38 l-26 -1 25 -8z"/>
<path d="M4440 4952 c0 -8 552 -113 559 -106 11 10 -22 17 -277 64 -302 56
-282 53 -282 42z"/>
<path d="M5100 4895 c0 -8 5 -15 10 -15 6 0 10 7 10 15 0 8 -4 15 -10 15 -5 0
-10 -7 -10 -15z"/>
<path d="M3845 4889 c-215 -43 -469 -104 -512 -124 -67 -30 -125 -77 -160
-129 -49 -73 -50 -74 -91 -66 -20 4 -93 18 -162 30 -69 12 -170 30 -225 40
-55 11 -193 36 -307 56 l-207 37 -68 -33 c-119 -57 -113 -44 -113 -262 0 -119
4 -188 10 -188 6 0 10 68 10 183 0 183 0 184 25 207 l25 23 202 -36 c112 -20
328 -60 482 -87 153 -28 292 -50 310 -48 l31 3 -4 -82 c-4 -108 14 -110 22 -3
10 146 98 280 222 336 30 14 157 48 282 75 199 44 239 50 313 47 66 -4 96 -10
135 -30 135 -69 616 -360 658 -398 54 -49 101 -137 119 -222 11 -51 7 -91 -46
-459 -33 -225 -69 -440 -83 -488 -47 -165 -156 -362 -274 -495 -63 -71 -297
-274 -344 -298 -56 -29 -140 -28 -197 3 -25 15 -72 60 -116 114 -213 260 -352
437 -386 493 -21 34 -43 62 -48 62 -14 0 -5 -21 46 -97 66 -100 438 -555 482
-590 80 -63 162 -66 254 -8 42 27 242 196 328 279 119 114 234 283 296 438 53
133 72 222 126 607 28 195 53 357 55 359 5 6 150 -15 198 -29 71 -19 67 50 67
-1027 1 -673 -2 -978 -10 -992 -22 -41 -56 -39 -445 34 -199 38 -225 41 -225
28 0 -4 60 -18 133 -30 72 -13 170 -30 217 -38 47 -8 118 -22 158 -30 119 -23
138 -20 186 29 77 79 86 96 86 150 0 44 -2 49 -13 33 -15 -20 -58 -19 -65 3
-3 9 2 11 18 6 19 -6 21 -4 18 17 -2 16 -9 22 -22 20 -11 -2 -17 1 -14 10 8
23 45 21 62 -4 9 -12 16 -18 16 -12 0 6 -11 21 -25 34 -14 13 -25 32 -25 42 0
15 5 17 25 12 l25 -6 0 871 0 872 -24 23 c-14 15 -44 28 -77 34 -30 6 -99 18
-153 29 l-99 18 -25 75 c-21 63 -35 84 -83 132 -32 32 -62 58 -68 58 -6 0 -15
-9 -21 -20 -16 -29 -30 -24 -30 10 0 30 -24 43 -33 18 -4 -10 -7 -10 -18 0
-12 11 -11 15 4 26 16 13 16 15 -7 30 -14 9 -27 16 -29 16 -2 0 -44 25 -93 55
-49 30 -98 59 -109 65 -11 5 -37 20 -57 32 -64 40 -212 125 -247 143 -42 21
-210 29 -286 14z m1400 -2659 c-3 -5 -10 -10 -16 -10 -5 0 -9 5 -9 10 0 6 7
10 16 10 8 0 12 -4 9 -10z"/>
<path d="M5105 4858 c-4 -10 -4 -26 0 -35 8 -17 8 -17 12 0 3 9 3 25 0 35 -4
16 -4 16 -12 0z"/>
<path d="M4443 4844 c8 -8 410 -83 416 -78 10 10 -17 16 -195 49 -189 35 -233
41 -221 29z"/>
<path d="M5111 4784 c0 -11 3 -14 6 -6 3 7 2 16 -1 19 -3 4 -6 -2 -5 -13z"/>
<path d="M5100 4526 c0 -146 4 -237 10 -241 7 -4 10 77 10 234 0 154 -4 241
-10 241 -6 0 -10 -85 -10 -234z"/>
<path d="M3872 4607 c-45 -14 -118 -81 -143 -129 -29 -57 -35 -136 -15 -197
21 -66 21 -71 -11 -72 -16 0 -53 -8 -83 -18 l-55 -18 0 -224 c0 -260 5 -277
96 -374 88 -93 211 -136 327 -116 144 26 317 158 361 274 18 50 21 79 21 207
0 83 -3 151 -7 152 -24 4 -72 9 -97 9 -16 0 -34 3 -40 8 -12 9 -172 42 -291
61 -39 6 -75 14 -81 18 -17 11 -54 131 -54 174 0 106 92 182 197 162 50 -9
110 -66 124 -118 14 -53 25 -66 59 -66 47 0 56 22 36 85 -38 120 -135 196
-250 194 -33 -1 -76 -6 -94 -12z m193 -26 c55 -25 109 -88 130 -151 16 -47 16
-53 2 -68 -22 -21 -38 -6 -61 58 -45 125 -193 165 -293 77 -66 -58 -79 -128
-43 -233 23 -66 20 -87 -12 -82 -19 2 -27 17 -46 73 -42 127 -12 240 81 303
56 39 62 40 137 41 43 0 79 -6 105 -18z m-190 -476 c143 -25 292 -52 330 -59
l70 -12 3 -145 3 -144 -36 -72 c-54 -109 -133 -170 -253 -193 -151 -30 -307
47 -378 187 l-29 58 -3 218 c-3 207 -2 218 15 213 10 -2 135 -26 278 -51z"/>
<path d="M3883 3953 c-34 -7 -63 -50 -63 -93 0 -30 6 -44 30 -63 27 -23 30
-32 30 -80 0 -41 4 -56 16 -61 38 -15 44 -8 44 53 0 53 3 63 30 89 49 49 32
129 -31 151 -18 6 -32 10 -33 10 -1 -1 -11 -4 -23 -6z"/>
<path d="M2574 4354 c-59 -15 -118 -73 -134 -133 -7 -28 -10 -165 -8 -424 3
-376 3 -383 26 -420 26 -46 27 -53 5 -61 -19 -8 -93 58 -93 82 0 20 -96 137
-183 223 -73 73 -150 119 -199 119 -43 0 -58 10 -58 39 0 22 7 28 48 42 43 14
47 17 44 45 -1 16 -3 47 -3 69 -1 24 -11 53 -25 74 -26 39 -24 51 10 51 34 0
48 22 41 64 -8 39 -45 86 -70 86 -8 0 -24 -5 -35 -12 -15 -10 -32 -9 -80 0
-66 14 -80 11 -80 -19 0 -15 -7 -19 -35 -19 -43 0 -85 -37 -85 -73 0 -13 12
-34 26 -48 46 -42 64 -95 64 -190 l0 -86 -87 -13 c-50 -7 -109 -23 -136 -37
l-48 -24 -46 51 c-61 68 -69 55 -9 -15 39 -45 45 -56 31 -61 -27 -11 -121
-139 -166 -229 -35 -67 -42 -88 -33 -102 8 -13 6 -32 -8 -78 -27 -84 -78 -343
-84 -423 -8 -97 -9 -102 -54 -156 -37 -44 -40 -53 -39 -105 1 -82 10 -106 39
-106 22 0 26 5 30 48 5 39 14 55 50 92 31 31 44 54 46 77 3 31 46 152 143 399
31 78 52 116 81 144 21 20 43 34 49 31 29 -18 6 -169 -51 -340 -20 -62 -18
-106 7 -106 24 0 24 -15 0 -83 -34 -92 -77 -260 -120 -468 -45 -220 -69 -291
-167 -514 -90 -203 -129 -312 -154 -435 -20 -100 -27 -110 -66 -110 -21 0 -44
-14 -84 -51 -30 -29 -54 -59 -54 -69 0 -20 183 -201 227 -224 39 -20 112 -21
138 -2 18 13 18 16 -19 89 -21 41 -41 96 -43 121 -3 26 -10 49 -14 52 -19 11
-6 34 57 99 79 82 266 295 325 371 36 47 45 69 61 147 11 51 22 103 25 117 3
14 23 75 44 135 59 167 79 258 86 388 6 123 23 162 23 53 0 -94 -34 -278 -73
-391 -97 -285 -127 -444 -133 -720 -4 -198 -9 -235 -30 -235 -18 0 -64 -96
-71 -150 -4 -31 -1 -43 19 -63 22 -22 33 -24 164 -30 164 -8 200 0 243 49 46
52 41 73 -24 94 -22 6 -70 32 -106 57 -80 54 -80 54 4 202 176 311 318 647
368 875 35 155 44 520 21 836 -18 245 -18 273 -6 277 7 2 33 -14 58 -37 50
-43 57 -45 72 -30 6 6 26 -2 54 -22 68 -46 126 -68 179 -68 62 0 86 19 147
115 36 57 53 75 70 75 13 0 83 -11 156 -24 315 -58 389 -67 424 -56 46 15 110
90 118 137 3 21 6 211 6 422 0 533 42 482 -470 576 -72 13 -167 30 -256 45
-24 4 -62 1 -90 -6z m424 -73 c239 -43 278 -53 309 -77 61 -46 61 -49 64 -490
2 -440 3 -433 -61 -487 -39 -33 -89 -43 -154 -29 -28 6 -145 28 -261 48 -115
20 -211 38 -213 39 -2 2 13 35 33 74 31 63 41 74 79 91 72 31 119 126 81 164
-16 15 -16 18 -1 41 21 32 20 55 -2 55 -19 0 -110 -96 -172 -181 -19 -27 -70
-78 -113 -115 l-79 -67 -21 22 c-22 21 -22 24 -22 449 0 411 1 428 20 454 11
14 36 36 55 48 48 29 119 23 458 -39z m-1042 -243 c9 -18 23 -41 32 -50 12
-14 12 -21 3 -32 -7 -8 -10 -19 -7 -24 6 -10 -26 -22 -61 -22 -17 0 -27 13
-48 57 -14 31 -23 63 -21 70 4 10 48 28 78 32 4 1 15 -14 24 -31z m-130 -75
c19 -26 17 -35 -8 -31 -15 2 -24 11 -26 26 -4 26 15 29 34 5z m37 -109 c9 -19
24 -37 32 -40 16 -6 21 -60 7 -80 -17 -26 -52 -35 -87 -24 -40 13 -45 24 -45
104 0 59 2 63 28 72 36 14 46 9 65 -32z m1007 -171 c0 -3 -11 -21 -25 -39 -30
-40 -31 -48 -4 -41 27 7 35 -15 20 -64 -12 -40 -57 -79 -93 -79 -11 0 -44 -50
-99 -145 -45 -80 -98 -163 -116 -185 -31 -36 -39 -40 -82 -40 -35 0 -68 10
-119 35 -38 19 -75 41 -81 49 -9 10 0 33 36 97 26 46 48 86 50 88 1 2 21 -13
43 -33 22 -20 43 -36 46 -36 32 0 216 159 271 234 75 102 153 183 153 159z
m-896 -199 c12 -31 6 -54 -13 -54 -14 0 -17 6 -13 25 3 20 0 25 -16 25 -16 0
-20 -6 -17 -25 2 -19 -2 -25 -16 -25 -14 0 -19 7 -19 28 0 37 6 42 51 42 24 0
39 -5 43 -16z m-624 -232 c25 -20 48 -38 53 -42 4 -3 -11 -51 -33 -106 -75
-184 -150 -393 -150 -419 0 -17 -16 -43 -46 -75 -34 -36 -47 -59 -51 -89 -4
-25 -11 -41 -19 -41 -11 0 -14 18 -14 74 0 72 1 76 38 119 37 42 39 50 51 148
16 136 80 442 98 472 5 9 16 3 73 -41z m-292 -2062 c18 -8 32 -22 32 -31 0
-51 -89 -67 -100 -19 -6 23 17 74 30 66 3 -1 20 -9 38 -16z m550 -68 c29 -4
32 -8 32 -37 0 -44 -34 -85 -70 -85 -45 0 -55 21 -41 86 11 46 16 54 29 48 10
-4 32 -9 50 -12z"/>
<path d="M1088 4218 l-138 -90 0 -224 c0 -189 2 -225 16 -238 8 -9 19 -16 24
-16 5 0 71 -11 147 -25 203 -37 203 -37 203 -27 0 4 -79 23 -176 40 -97 18
-180 35 -185 38 -5 3 -9 98 -9 212 l0 206 133 -132 c170 -168 165 -167 338
-57 65 41 123 75 128 75 6 0 12 -45 14 -107 l3 -108 2 125 2 126 -148 147
c-134 133 -152 147 -183 147 -26 -1 -67 -22 -171 -92z m346 -68 c76 -77 137
-142 135 -144 -19 -16 -238 -150 -257 -157 -46 -18 -83 7 -216 140 l-128 129
128 85 c180 119 164 122 338 -53z"/>
<path d="M1080 3784 c-51 -41 -82 -79 -48 -58 24 15 128 96 128 100 0 14 -33
-3 -80 -42z"/>
<path d="M3626 3264 c-11 -28 -6 -53 12 -62 35 -19 72 21 52 58 -13 24 -55 27
-64 4z"/>
<path d="M3782 3238 c-25 -25 -7 -68 29 -68 25 0 42 26 35 55 -7 27 -42 35
-64 13z"/>
<path d="M3936 3208 c-26 -36 16 -86 49 -58 28 23 13 80 -21 80 -7 0 -20 -10
-28 -22z"/>
<path d="M4092 3188 c-18 -18 -14 -56 7 -68 39 -21 73 19 51 60 -12 22 -40 26
-58 8z"/>
<path d="M4238 3145 c-10 -22 -9 -29 8 -46 25 -24 52 -16 60 17 13 50 -47 75
-68 29z"/>
<path d="M2195 2570 c17 -8 256 -52 1050 -194 105 -19 208 -37 231 -41 l41 -6
-5 -74 c-4 -63 -2 -76 12 -81 9 -3 14 -10 11 -14 -3 -5 -1 -11 5 -15 16 -10
12 -45 -6 -45 -14 0 -16 -8 -10 -47 7 -52 16 -65 67 -92 45 -24 48 -50 9 -76
-16 -11 -30 -28 -30 -37 0 -38 75 -238 126 -339 30 -58 84 -150 120 -204 66
-99 181 -245 193 -245 3 0 71 33 150 73 l145 72 -3 110 c-1 61 -7 113 -13 116
-6 4 -6 8 3 11 19 6 3 38 -20 38 -18 0 -19 -3 -11 -25 8 -21 7 -25 -10 -25
-16 0 -20 7 -20 35 0 32 2 35 30 35 17 0 30 3 30 6 0 3 -24 56 -53 117 -43 91
-105 197 -159 272 -4 6 -19 3 -38 -8 -50 -30 -60 -19 -53 62 l6 71 -137 135
c-75 74 -136 135 -134 135 2 0 66 -12 143 -26 77 -14 185 -34 240 -44 55 -10
102 -16 104 -15 8 8 -12 25 -30 25 -11 0 -117 18 -236 40 -120 22 -225 40
-235 40 -10 0 -55 24 -100 54 l-83 54 -3 -34 c-4 -39 -4 -39 -103 -20 -41 8
-265 49 -499 91 -234 42 -485 88 -558 101 -140 25 -205 31 -167 14z m1524
-513 c62 -127 131 -262 152 -299 42 -72 47 -88 25 -88 -20 0 -37 29 -156 265
-158 313 -175 355 -147 355 6 0 63 -105 126 -233z m302 -557 c72 -117 92 -149
124 -198 29 -44 33 -54 19 -59 -9 -3 -22 3 -32 18 -44 61 -172 270 -172 279 0
25 36 2 61 -40z"/>
<path d="M3220 2221 c0 -142 -22 -168 -204 -245 -72 -31 -137 -60 -144 -64
-13 -9 -6 -42 9 -42 5 0 144 -25 309 -55 311 -57 341 -61 325 -46 -6 5 -62 18
-125 29 -301 54 -504 92 -507 96 -2 2 58 30 134 62 150 64 195 99 212 161 14
49 14 183 1 183 -6 0 -10 -33 -10 -79z"/>
<path d="M2372 2089 c2 -7 10 -15 17 -17 8 -3 12 1 9 9 -2 7 -10 15 -17 17 -8
3 -12 -1 -9 -9z"/>
<path d="M2450 2085 c-7 -8 -8 -15 -2 -15 5 0 15 7 22 15 7 8 8 15 2 15 -5 0
-15 -7 -22 -15z"/>
<path d="M2380 2015 c-7 -9 -11 -18 -8 -20 3 -3 11 1 18 10 7 9 11 18 8 20 -3
3 -11 -1 -18 -10z"/>
<path d="M2442 2018 c3 -7 13 -15 24 -17 16 -3 17 -1 5 13 -16 19 -34 21 -29
4z"/>
<path d="M2537 1680 c-59 -15 -110 -45 -150 -89 -56 -62 -70 -97 -75 -186 -4
-68 -1 -89 18 -133 25 -58 101 -135 158 -159 59 -26 176 -23 233 5 188 92 232
337 86 480 -71 70 -182 103 -270 82z m192 -47 c67 -34 115 -94 137 -170 50
-172 -86 -353 -264 -353 -131 0 -245 94 -272 225 -21 101 26 222 110 280 89
61 192 68 289 18z"/>
<path d="M2506 1521 c-9 -16 -16 -43 -16 -58 0 -28 47 -134 72 -163 47 -55
112 -76 138 -45 20 24 -17 64 -61 65 -42 0 -70 26 -90 82 -11 33 -11 39 6 58
14 16 16 26 9 52 -13 44 -39 47 -58 9z"/>
<path d="M3302 1518 c-27 -27 -6 -68 35 -68 32 0 46 31 27 58 -17 24 -44 28
-62 10z m48 -26 c0 -24 -8 -32 -26 -25 -22 8 -17 43 6 43 13 0 20 -7 20 -18z"/>
<path d="M3212 1213 c-7 -3 -18 -16 -23 -30 -22 -59 59 -102 95 -51 21 30 20
44 -4 68 -20 20 -42 24 -68 13z m58 -32 c5 -11 10 -22 10 -25 0 -8 -31 -36
-40 -36 -11 0 -40 29 -40 40 0 14 30 40 45 40 8 0 19 -9 25 -19z"/>
</g>
</svg>
