<?xml version="1.0" standalone="no"?>
<!DOCTYPE svg PUBLIC "-//W3C//DTD SVG 20010904//EN"
 "http://www.w3.org/TR/2001/REC-SVG-20010904/DTD/svg10.dtd">
<svg version="1.0" xmlns="http://www.w3.org/2000/svg"
 width="410.000000pt" height="820.000000pt" viewBox="0 0 410.000000 820.000000"
 preserveAspectRatio="xMidYMid meet">

<g transform="translate(0.000000,820.000000) scale(0.100000,-0.100000)"
fill="#000000" stroke="none">
<path d="M4090 7268 l0 -933 -142 142 c-114 114 -140 145 -130 155 18 18 -366
402 -385 386 -11 -9 -113 87 -491 463 -463 461 -479 476 -552 509 -62 28 -90
35 -163 38 -102 5 -158 -8 -237 -54 -41 -24 -319 -296 -1023 -999 l-967 -968
0 -396 0 -396 2045 -2045 2045 -2045 0 -557 0 -558 -2047 -3 -2048 -2 2053 -3
2052 -2 0 4100 c0 2255 -2 4100 -5 4100 -3 0 -5 -420 -5 -932z m-1492 323 c20
-11 361 -344 765 -748 l727 -728 0 -2375 0 -2375 -1921 1920 c-1056 1056
-1927 1932 -1935 1947 -8 15 -14 49 -14 75 l0 48 1108 1108 c609 610 1121
1118 1137 1128 38 24 86 24 133 0z"/>
<path d="M2457 7523 c-15 -14 -6 -41 23 -68 29 -28 30 -28 50 -10 l20 19 -32
33 c-31 32 -48 40 -61 26z"/>
<path d="M2390 7380 l0 -65 32 33 33 32 -33 32 -32 33 0 -65z"/>
<path d="M2244 7288 c-4 -7 -4 -10 1 -6 4 4 15 2 24 -5 14 -11 14 -10 2 6 -16
20 -18 21 -27 5z"/>
<path d="M2647 7114 c-8 -8 1 -24 14 -24 5 0 9 7 9 15 0 15 -12 20 -23 9z"/>
<path d="M2682 7068 c6 -18 28 -21 28 -4 0 9 -7 16 -16 16 -9 0 -14 -5 -12
-12z"/>
<path d="M2720 7036 c0 -9 7 -16 16 -16 9 0 14 5 12 12 -6 18 -28 21 -28 4z"/>
<path d="M2623 5883 c-7 -2 -13 -13 -13 -24 0 -12 -7 -19 -20 -19 -11 0 -20
-4 -20 -9 0 -5 -6 -16 -14 -24 -13 -12 -10 -19 19 -47 19 -19 38 -30 42 -26 4
3 -5 18 -20 32 -31 28 -33 37 -13 53 11 9 21 6 45 -15 38 -32 51 -27 16 6 -29
27 -33 60 -8 60 9 0 30 -12 45 -27 15 -15 28 -21 28 -14 0 14 -50 61 -65 60
-5 0 -16 -3 -22 -6z"/>
<path d="M3363 5793 c-10 -3 -10 -10 -2 -24 14 -27 3 -56 -23 -63 -26 -6 -58
19 -58 46 0 24 -10 23 -38 -7 -25 -26 -22 -45 7 -45 26 0 41 -22 35 -48 -7
-26 -36 -37 -63 -23 -14 8 -20 7 -25 -4 -3 -8 -1 -17 5 -21 6 -3 8 -12 5 -20
-7 -19 15 -30 28 -12 19 25 47 30 67 12 25 -22 24 -39 -2 -63 -22 -20 -18 -44
5 -35 8 3 17 1 20 -5 4 -6 13 -8 21 -5 11 5 12 11 4 25 -14 27 -3 56 23 63 26
6 46 -8 50 -37 4 -25 38 -37 38 -13 0 9 7 16 15 16 8 0 15 7 15 15 0 8 -8 15
-18 15 -27 0 -52 32 -46 57 7 25 39 36 65 23 12 -7 19 -5 23 5 3 8 0 15 -5 15
-6 0 -9 9 -6 20 8 29 -11 35 -34 11 -24 -26 -41 -27 -62 -3 -22 24 -21 31 4
58 23 24 18 47 -7 37 -9 -3 -19 -1 -23 4 -3 6 -12 8 -18 6z m21 -132 c23 -25
13 -59 -20 -67 -46 -12 -72 37 -38 70 21 21 37 20 58 -3z"/>
<path d="M2498 5759 c-37 -21 -10 -99 34 -99 19 0 48 32 48 53 0 20 -35 57
-52 57 -7 0 -21 -5 -30 -11z m52 -24 c18 -22 8 -50 -19 -50 -32 0 -49 28 -32
49 17 20 35 20 51 1z"/>
<path d="M1244 5690 c-12 -5 -29 -19 -38 -32 -46 -66 27 -152 108 -125 42 14
72 97 35 97 -5 0 -9 -9 -9 -20 0 -22 -33 -60 -52 -60 -7 0 -20 5 -28 10 -12 8
-7 17 30 55 38 39 42 47 30 59 -21 20 -51 26 -76 16z m40 -29 c8 -12 -43 -73
-55 -65 -14 8 -11 36 8 56 17 19 38 23 47 9z"/>
<path d="M2423 5679 c-45 -17 -36 -83 13 -95 35 -9 69 24 61 58 -8 30 -44 48
-74 37z m47 -24 c18 -22 8 -50 -19 -50 -32 0 -49 28 -32 49 17 20 35 20 51 1z"/>
<path d="M1616 5637 c3 -10 9 -15 12 -12 3 3 0 11 -7 18 -10 9 -11 8 -5 -6z"/>
<path d="M2352 5609 c-12 -19 -10 -25 19 -55 18 -19 35 -32 38 -29 2 3 -6 16
-19 29 -16 18 -21 32 -16 50 8 31 -4 34 -22 5z"/>
<path d="M1095 5545 c-14 -13 -25 -31 -25 -40 0 -8 -8 -15 -18 -15 -23 0 -52
-30 -52 -53 0 -10 -5 -14 -15 -11 -30 12 -14 -21 39 -76 39 -41 58 -54 65 -47
8 8 -1 23 -30 53 -44 44 -49 77 -17 98 15 9 26 2 66 -37 37 -36 51 -44 60 -35
9 9 1 23 -34 60 -39 41 -43 51 -34 69 20 37 39 34 90 -16 34 -33 50 -43 55
-34 10 15 -85 109 -110 109 -9 0 -27 -11 -40 -25z"/>
<path d="M1570 5566 c0 -2 8 -10 18 -17 15 -13 16 -12 3 4 -13 16 -21 21 -21
13z"/>
<path d="M2270 5520 c0 -5 -6 -10 -14 -10 -27 0 -34 -50 -10 -74 22 -23 60
-20 78 6 14 19 16 20 22 5 7 -20 -12 -47 -32 -47 -8 0 -14 -4 -14 -10 0 -14
12 -12 38 6 32 22 27 55 -16 97 -39 38 -52 45 -52 27z m41 -36 c9 -11 10 -20
2 -32 -13 -22 -43 -22 -56 -1 -24 38 25 68 54 33z"/>
<path d="M1480 5490 c0 -5 5 -10 10 -10 6 0 10 5 10 10 0 6 -4 10 -10 10 -5 0
-10 -4 -10 -10z"/>
<path d="M3725 5489 c-8 -11 22 -49 38 -49 6 0 2 9 -7 19 -10 11 -15 25 -11
30 3 6 2 11 -4 11 -5 0 -13 -5 -16 -11z"/>
<path d="M434 5478 c-5 -7 -3 -8 5 -4 15 10 51 -21 52 -43 0 -11 2 -12 6 -3 5
13 -33 62 -48 62 -4 0 -11 -5 -15 -12z"/>
<path d="M430 5453 c0 -6 8 -17 18 -24 16 -13 16 -13 2 6 -8 11 -16 22 -17 24
-2 2 -3 0 -3 -6z"/>
<path d="M3684 5445 c-9 -23 3 -45 25 -45 25 0 34 14 26 40 -7 23 -43 27 -51
5z m38 -27 c-7 -7 -12 -8 -12 -2 0 14 12 26 19 19 2 -3 -1 -11 -7 -17z"/>
<path d="M1465 5430 c10 -11 20 -20 23 -20 3 0 -3 9 -13 20 -10 11 -20 20 -23
20 -3 0 3 -9 13 -20z"/>
<path d="M385 5430 c-3 -6 1 -7 9 -4 18 7 21 14 7 14 -6 0 -13 -4 -16 -10z"/>
<path d="M2170 5431 c0 -5 -7 -17 -17 -26 -15 -15 -14 -19 15 -48 35 -35 57
-30 24 6 -45 47 -12 80 35 35 31 -29 42 -14 13 17 -23 24 -70 35 -70 16z"/>
<path d="M426 5420 c7 -8 14 -24 17 -35 4 -19 5 -19 6 1 0 12 -7 28 -16 35
-16 12 -17 12 -7 -1z"/>
<path d="M3630 5420 c0 -13 42 -50 56 -50 22 0 25 17 4 23 -11 3 -20 11 -20
19 0 8 -9 14 -20 15 -11 1 -20 -2 -20 -7z"/>
<path d="M395 5390 c10 -11 20 -20 23 -20 3 0 -3 9 -13 20 -10 11 -20 20 -23
20 -3 0 3 -9 13 -20z"/>
<path d="M2075 5390 c4 -6 11 -8 16 -5 14 9 11 15 -7 15 -8 0 -12 -5 -9 -10z"/>
<path d="M3609 5374 c-10 -13 -10 -17 1 -24 11 -7 12 -14 2 -36 -7 -14 -16
-24 -19 -20 -4 3 -1 12 5 18 19 19 14 30 -10 26 -33 -4 -32 -52 0 -56 17 -3
25 2 29 17 3 12 11 21 18 21 7 0 18 7 25 15 10 13 10 19 -5 35 -22 24 -29 25
-46 4z m41 -24 c0 -5 -5 -10 -11 -10 -5 0 -7 5 -4 10 3 6 8 10 11 10 2 0 4 -4
4 -10z"/>
<path d="M342 5350 c7 -11 17 -20 22 -20 5 0 1 9 -9 20 -10 11 -20 20 -22 20
-2 0 2 -9 9 -20z"/>
<path d="M1380 5366 c0 -2 8 -10 18 -17 15 -13 16 -12 3 4 -13 16 -21 21 -21
13z"/>
<path d="M1428 5363 c7 -3 16 -2 19 1 4 3 -2 6 -13 5 -11 0 -14 -3 -6 -6z"/>
<path d="M2110 5364 c0 -6 16 -25 35 -44 19 -19 35 -29 35 -24 0 6 -16 25 -35
44 -19 19 -35 29 -35 24z"/>
<path d="M879 5331 c-46 -46 -33 -107 28 -136 45 -22 88 -6 110 40 14 29 14
35 -1 67 -30 62 -90 75 -137 29z m101 -26 c20 -21 22 -30 14 -52 -5 -16 -21
-32 -37 -37 -22 -8 -31 -6 -52 14 -29 27 -32 56 -8 82 23 25 55 23 83 -7z"/>
<path d="M310 5331 c0 -5 7 -12 16 -15 14 -5 15 -4 4 9 -14 17 -20 19 -20 6z"/>
<path d="M2080 5333 c1 -5 7 -19 15 -33 21 -37 18 -40 -21 -24 -55 23 -54 7 0
-17 26 -11 50 -18 53 -15 7 7 -28 96 -38 96 -5 0 -9 -3 -9 -7z"/>
<path d="M3520 5305 c16 -19 -6 -53 -24 -35 -5 5 -14 10 -20 10 -5 0 5 -16 24
-35 31 -32 57 -42 32 -12 -7 8 -7 18 -2 27 8 12 13 13 30 2 29 -18 25 0 -8 31
-30 29 -53 37 -32 12z"/>
<path d="M732 5288 c-9 -9 -5 -20 23 -48 l35 -36 -42 -42 -42 -43 -37 37 c-25
25 -39 32 -44 24 -10 -17 156 -183 169 -170 7 7 -3 24 -29 50 l-39 40 42 42
42 42 40 -39 c31 -31 43 -36 52 -27 10 10 -6 30 -73 97 -67 68 -87 83 -97 73z"/>
<path d="M1970 5290 c0 -5 5 -10 10 -10 6 0 10 5 10 10 0 6 -4 10 -10 10 -5 0
-10 -4 -10 -10z"/>
<path d="M1215 5260 c-3 -6 1 -7 9 -4 18 7 21 14 7 14 -6 0 -13 -4 -16 -10z"/>
<path d="M1250 5256 c0 -2 8 -10 18 -17 15 -13 16 -12 3 4 -13 16 -21 21 -21
13z"/>
<path d="M2030 5225 c19 -19 38 -35 44 -35 5 0 -5 16 -24 35 -19 19 -38 35
-44 35 -5 0 5 -16 24 -35z"/>
<path d="M1900 5224 c0 -5 23 -32 50 -59 l50 -49 27 26 c15 15 24 30 20 34 -3
4 -15 -4 -26 -17 l-20 -24 -50 50 c-28 27 -51 45 -51 39z"/>
<path d="M1160 5150 c0 -5 5 -10 10 -10 6 0 10 5 10 10 0 6 -4 10 -10 10 -5 0
-10 -4 -10 -10z"/>
<path d="M1128 5083 c7 -3 16 -2 19 1 4 3 -2 6 -13 5 -11 0 -14 -3 -6 -6z"/>
<path d="M990 5037 c0 -2 15 -16 33 -33 l32 -29 -29 33 c-28 30 -36 37 -36 29z"/>
<path d="M950 4959 c0 -5 5 -7 10 -4 6 3 10 8 10 11 0 2 -4 4 -10 4 -5 0 -10
-5 -10 -11z"/>
<path d="M876 4921 c-4 -5 3 -7 14 -4 23 6 26 13 6 13 -8 0 -17 -4 -20 -9z"/>
<path d="M2099 4573 c-36 -34 -59 -64 -59 -77 0 -14 37 -58 103 -124 l102
-102 75 75 75 75 -105 105 c-58 58 -111 105 -118 105 -7 0 -40 -25 -73 -57z
m165 -70 l87 -87 -50 -50 -51 -51 -90 90 -90 89 47 48 c26 27 50 48 53 48 4 0
46 -39 94 -87z"/>
<path d="M2225 4490 c-4 -6 -3 -16 3 -22 6 -6 12 -6 17 2 4 6 3 16 -3 22 -6 6
-12 6 -17 -2z"/>
<path d="M3636 4558 c-14 -19 -14 -24 -2 -36 10 -11 19 -11 34 -3 26 14 42 14
42 0 0 -6 -9 -13 -20 -16 -22 -6 -27 -23 -7 -23 21 0 50 37 44 55 -8 18 -30
19 -57 3 -29 -19 -38 1 -10 22 20 15 21 20 8 20 -9 0 -24 -10 -32 -22z"/>
<path d="M3564 4485 c-15 -23 -15 -27 0 -50 21 -32 59 -33 80 -3 18 26 20 38
6 38 -5 0 -10 -6 -10 -14 0 -22 -29 -41 -42 -28 -9 9 -5 19 16 41 23 24 25 29
11 35 -30 11 -44 6 -61 -19z m46 2 c0 -7 -9 -18 -20 -25 -16 -10 -20 -10 -20
1 0 14 20 37 32 37 4 0 8 -6 8 -13z"/>
<path d="M3527 4418 c29 -29 55 -49 58 -46 8 8 -82 98 -97 98 -7 0 11 -23 39
-52z"/>
<path d="M3450 4435 c0 -8 5 -15 10 -15 6 0 10 7 10 15 0 8 -4 15 -10 15 -5 0
-10 -7 -10 -15z"/>
<path d="M3510 4375 c19 -19 38 -35 44 -35 5 0 -5 16 -24 35 -19 19 -38 35
-44 35 -5 0 5 -16 24 -35z"/>
<path d="M2780 4385 c-10 -13 -10 -19 5 -35 24 -27 40 -26 21 1 -8 12 -12 28
-9 35 7 18 -1 18 -17 -1z"/>
<path d="M3424 4377 c3 -10 6 -24 6 -29 0 -6 3 -8 7 -5 4 4 19 -5 34 -19 26
-25 59 -28 59 -5 0 6 -7 8 -15 4 -24 -8 -57 26 -49 51 6 17 5 19 -8 9 -11 -10
-17 -10 -28 0 -10 10 -12 9 -6 -6z"/>
<path d="M2737 4343 c-4 -3 -7 -15 -7 -26 0 -11 -3 -17 -6 -14 -14 13 -46 -15
-41 -35 5 -18 4 -19 -12 -4 -19 18 -36 22 -26 6 3 -5 0 -18 -7 -29 -9 -15 -9
-23 1 -35 18 -21 34 -20 56 4 10 11 14 20 9 20 -5 0 2 6 16 13 14 7 24 21 24
30 -1 10 5 17 15 17 27 0 42 20 30 42 -10 18 -39 24 -52 11z m39 -14 c3 -6 1
-16 -5 -22 -9 -9 -14 -8 -21 3 -9 15 -4 30 10 30 5 0 12 -5 16 -11z m-48 -56
c-4 -22 -22 -20 -26 1 -2 10 3 16 13 16 10 0 15 -7 13 -17z m-48 -48 c0 -8 -7
-15 -15 -15 -8 0 -15 7 -15 15 0 8 7 15 15 15 8 0 15 -7 15 -15z"/>
<path d="M3340 4323 c0 -5 23 -31 51 -58 58 -56 63 -48 8 12 -40 44 -59 59
-59 46z"/>
<path d="M3310 4292 c0 -14 85 -92 100 -92 8 0 -8 23 -35 50 -47 48 -65 59
-65 42z"/>
<path d="M3248 4234 c-9 -8 53 -144 63 -138 5 3 4 14 -2 25 -16 30 16 63 53
55 41 -8 34 0 -19 28 -58 29 -88 38 -95 30z m47 -26 c29 -13 31 -21 11 -37
-12 -10 -18 -7 -31 18 -17 35 -16 36 20 19z"/>
<path d="M2577 4184 c-13 -14 -7 -43 12 -53 26 -14 50 13 34 37 -11 19 -35 27
-46 16z m38 -33 c-3 -6 -11 -11 -17 -11 -6 0 -6 6 2 15 14 17 26 13 15 -4z"/>
<path d="M2535 4136 c-21 -15 -15 -43 11 -53 17 -6 52 22 41 34 -4 3 -14 -2
-21 -13 -14 -18 -15 -18 -22 0 -4 11 -2 21 7 26 7 5 11 11 8 14 -3 3 -14 0
-24 -8z"/>
<path d="M2480 4085 c-10 -13 -10 -19 5 -35 25 -28 39 -25 20 4 -18 27 -5 45
15 21 7 -8 17 -15 23 -15 5 0 2 9 -8 20 -22 24 -38 25 -55 5z"/>
<path d="M2420 4020 c-14 -16 -33 -29 -42 -30 -27 0 -21 -24 11 -43 34 -20 48
-11 19 13 -13 10 -17 19 -11 23 6 4 16 0 23 -8 7 -8 17 -15 23 -15 5 0 2 9 -7
19 -18 19 -15 41 5 41 6 0 7 -5 4 -10 -11 -18 26 -24 42 -7 13 13 14 19 3 31
-19 24 -43 19 -70 -14z m60 -10 c0 -5 -4 -10 -10 -10 -5 0 -10 5 -10 10 0 6 5
10 10 10 6 0 10 -4 10 -10z"/>
<path d="M2331 3937 c-8 -11 -5 -19 14 -37 14 -13 25 -18 25 -12 0 6 -4 14
-10 17 -5 3 -10 13 -10 22 0 14 3 14 25 -1 26 -17 34 -9 13 12 -16 16 -43 15
-57 -1z"/>
<path d="M2270 3914 c-11 -13 -9 -20 18 -46 26 -27 33 -29 46 -18 9 7 16 17
16 22 0 6 -7 5 -15 -2 -20 -17 -32 -5 -15 15 14 17 0 21 -17 4 -7 -7 -13 -7
-17 -1 -3 6 -2 13 4 17 12 8 13 25 1 25 -5 0 -14 -7 -21 -16z"/>
<path d="M3261 3396 c-53 -54 -61 -66 -53 -82 6 -11 55 -63 109 -117 l98 -97
75 75 75 75 -105 105 c-58 58 -112 105 -120 105 -9 0 -44 -29 -79 -64z m165
-53 c46 -49 84 -90 84 -93 0 -3 -21 -27 -48 -53 l-48 -47 -89 90 -89 90 49 50
c27 27 51 50 53 50 2 0 41 -39 88 -87z"/>
<path d="M3385 3321 c-7 -12 12 -24 25 -16 11 7 4 25 -10 25 -5 0 -11 -4 -15
-9z"/>
<path d="M3946 3213 c-8 -19 29 -62 41 -49 4 4 0 12 -10 17 -12 7 -16 17 -12
30 8 23 -10 26 -19 2z"/>
<path d="M3913 3183 c-7 -2 -13 -13 -13 -23 0 -12 -8 -20 -22 -22 -15 -2 -24
-11 -26 -26 -4 -23 -4 -23 -24 -5 -16 14 -19 15 -17 3 1 -8 -2 -23 -6 -34 -8
-19 3 -47 22 -53 16 -6 45 27 39 44 -3 8 -2 12 3 8 16 -9 41 6 41 26 0 12 7
19 20 19 24 0 37 26 23 48 -11 18 -23 22 -40 15z m35 -30 c2 -8 -5 -13 -17
-13 -12 0 -21 6 -21 16 0 18 31 15 38 -3z m-50 -51 c3 -9 -2 -13 -14 -10 -9 1
-19 9 -22 16 -3 9 2 13 14 10 9 -1 19 -9 22 -16z m-48 -48 c0 -9 -7 -14 -17
-12 -25 5 -28 28 -4 28 12 0 21 -6 21 -16z"/>
<path d="M3735 3001 c-3 -10 -15 -21 -25 -24 -12 -3 -20 -14 -20 -26 0 -14 -6
-21 -19 -21 -27 0 -35 -29 -14 -54 18 -21 18 -21 -3 -3 -27 22 -28 22 -59 -8
-29 -30 -31 -38 -10 -55 8 -7 12 -17 9 -22 -4 -6 -17 1 -31 16 -22 24 -51 28
-37 5 3 -6 -4 -20 -16 -31 -20 -19 -20 -21 -4 -39 9 -10 22 -19 27 -19 6 0 2
9 -8 20 -22 24 -12 39 15 22 30 -18 35 -14 14 11 -10 12 -12 16 -4 10 34 -30
72 -1 48 36 -9 15 -8 22 5 35 8 9 23 13 31 10 18 -7 22 -24 6 -24 -5 0 -10 5
-10 12 0 9 -3 9 -11 1 -13 -13 -4 -33 14 -33 7 0 20 12 30 25 14 20 15 28 5
44 -17 28 -2 38 22 16 22 -20 28 -8 8 14 -11 11 -9 11 9 2 17 -9 25 -8 37 5 9
9 14 20 11 25 -4 5 3 9 15 9 25 0 37 25 20 45 -17 21 -47 19 -55 -4z m35 5 c0
-3 -4 -8 -10 -11 -5 -3 -10 -1 -10 4 0 6 5 11 10 11 6 0 10 -2 10 -4z m10 -26
c0 -5 -5 -10 -11 -10 -5 0 -7 5 -4 10 3 6 8 10 11 10 2 0 4 -4 4 -10z m-37
-30 c-5 -20 -23 -26 -36 -13 -9 8 23 44 33 38 5 -3 6 -14 3 -25z"/>
<path d="M3440 2745 c-11 -13 -8 -21 15 -45 27 -28 30 -29 47 -13 21 19 16 32
-6 14 -9 -8 -16 -8 -20 -2 -4 5 -2 12 4 16 5 3 10 11 10 17 0 6 -6 6 -15 -2
-9 -7 -18 -10 -22 -7 -3 4 0 13 7 22 7 8 8 15 2 15 -5 0 -15 -7 -22 -15z"/>
<path d="M4050 2616 c0 -2 7 -7 16 -10 8 -3 12 -2 9 4 -6 10 -25 14 -25 6z"/>
<path d="M2497 1514 c-14 -15 -6 -34 14 -34 14 0 19 5 17 17 -3 18 -20 27 -31
17z"/>
<path d="M1216 1475 c-92 -86 -39 -249 81 -244 19 1 22 3 8 6 -11 2 -30 6 -42
9 -66 13 -77 186 -16 234 17 13 20 20 11 20 -8 0 -27 -11 -42 -25z"/>
<path d="M1371 1491 c0 -7 -7 -11 -14 -8 -10 4 -10 -3 2 -27 12 -26 17 -29 19
-15 2 11 1 29 -1 42 -2 12 -5 16 -6 8z"/>
<path d="M1830 1461 c0 -23 -5 -31 -22 -34 l-23 -4 22 -2 c21 -1 22 -6 25 -87
3 -97 16 -118 60 -96 l23 11 -25 -2 c-25 -2 -25 -1 -28 85 l-3 87 28 4 28 4
-27 2 c-24 1 -28 5 -28 31 0 20 -5 30 -15 30 -10 0 -15 -10 -15 -29z"/>
<path d="M1423 1419 c14 -8 17 -24 17 -84 0 -80 13 -106 53 -104 15 0 17 2 7
6 -26 10 -30 25 -30 111 l0 82 -32 0 c-27 -1 -30 -2 -15 -11z"/>
<path d="M1537 1422 c8 -5 13 -41 15 -97 l3 -90 28 -3 c28 -3 28 -3 12 22 -13
19 -16 43 -13 101 l3 75 -30 0 c-18 0 -25 -3 -18 -8z"/>
<path d="M1662 1418 c-19 -19 -14 -56 9 -76 71 -57 72 -58 65 -80 -10 -29 -50
-29 -70 0 -9 13 -16 17 -16 9 0 -18 30 -40 55 -41 32 0 65 28 65 56 0 17 -13
34 -50 60 -51 37 -59 51 -38 72 7 7 8 12 2 12 -5 0 -15 -5 -22 -12z"/>
<path d="M1734 1410 c7 -8 16 -22 19 -30 3 -8 6 -1 6 15 1 24 -3 31 -19 31
-16 0 -17 -3 -6 -16z"/>
<path d="M1965 1405 c-43 -42 -30 -140 22 -164 36 -17 59 -13 89 12 22 20 26
31 26 77 0 46 -4 57 -26 77 -33 28 -54 31 -26 3 26 -26 29 -130 4 -155 -22
-22 -56 -15 -72 15 -17 33 -10 115 13 140 26 29 -1 25 -30 -5z"/>
<path d="M2154 1414 c12 -11 16 -35 16 -84 0 -49 -4 -73 -16 -84 -14 -15 -11
-16 28 -15 24 0 37 3 31 6 -9 3 -13 33 -13 99 l0 94 -31 0 c-28 0 -29 -1 -15
-16z"/>
<path d="M2245 1423 c30 -8 35 -21 35 -100 0 -58 -3 -74 -17 -82 -14 -8 -9
-10 26 -11 36 0 42 2 32 14 -7 9 -11 41 -9 83 4 80 -10 104 -57 102 -21 -1
-24 -3 -10 -6z"/>
<path d="M2336 1422 c-2 -4 8 -8 22 -7 27 0 27 -1 30 -78 2 -50 -1 -84 -9 -93
-10 -12 -4 -14 32 -14 35 1 40 3 27 11 -15 8 -18 24 -18 87 0 47 -5 83 -12 90
-13 13 -64 16 -72 4z"/>
<path d="M2484 1414 c12 -11 16 -35 16 -84 0 -49 -4 -73 -16 -84 -14 -15 -12
-16 27 -16 34 0 40 3 31 12 -8 8 -12 45 -12 100 l0 88 -31 0 c-28 0 -29 -1
-15 -16z"/>
<path d="M2591 1403 c0 -23 2 -25 8 -9 4 11 16 23 27 27 16 6 14 8 -8 8 -24 1
-28 -3 -27 -26z"/>
<path d="M2680 1420 c0 -6 -20 -46 -45 -89 -25 -43 -45 -83 -45 -89 0 -8 23
-12 65 -12 l65 0 -1 38 c-1 21 -4 28 -6 15 -6 -31 -27 -45 -62 -41 l-30 3 49
85 c27 47 50 88 50 93 0 4 -9 7 -20 7 -11 0 -20 -5 -20 -10z"/>
<path d="M2791 1406 c-15 -15 -25 -42 -28 -70 -5 -40 -2 -48 25 -76 17 -16 41
-30 54 -30 28 0 68 26 68 43 0 7 -5 4 -11 -5 -15 -27 -75 -24 -90 4 -18 33
-14 116 7 139 25 28 1 23 -25 -5z"/>
<path d="M2865 1413 c10 -9 15 -26 12 -40 -3 -17 0 -23 14 -23 25 0 25 41 1
63 -25 23 -49 23 -27 0z"/>
<path d="M1364 1285 c-6 -19 -7 -32 -3 -30 4 3 10 -1 12 -7 3 -7 6 6 6 30 1
23 0 42 -2 42 -1 0 -7 -16 -13 -35z"/>
<path d="M1640 1051 c0 -24 -3 -28 -20 -24 -29 8 -50 -14 -50 -53 0 -38 23
-56 58 -47 20 5 22 12 22 79 0 41 -2 74 -5 74 -3 0 -5 -13 -5 -29z m-5 -71 c0
-28 -4 -36 -22 -38 -26 -4 -39 28 -23 58 18 33 45 21 45 -20z"/>
<path d="M2312 1068 c-13 -16 -15 -30 -13 -90 1 -61 21 -63 21 -3 0 29 4 45
13 45 8 0 8 3 -2 9 -8 5 -11 16 -8 26 4 9 11 13 17 10 5 -3 10 -1 10 4 0 15
-25 14 -38 -1z"/>
<path d="M3493 1073 c-7 -2 -13 -13 -13 -24 0 -10 -6 -19 -12 -19 -10 0 -10
-2 -1 -8 6 -4 13 -28 16 -52 l4 -45 1 47 c2 35 6 48 20 51 16 4 16 5 0 6 -22
1 -23 9 -1 33 16 18 11 22 -14 11z"/>
<path d="M3653 1005 c0 -44 2 -61 4 -37 2 23 2 59 0 80 -2 20 -4 1 -4 -43z"/>
<path d="M382 998 l1 -73 6 55 6 55 23 -52 c12 -29 26 -53 30 -53 5 0 17 24
28 53 l19 52 3 -52 c2 -29 8 -53 13 -53 14 0 7 132 -7 137 -6 2 -19 -18 -29
-44 -10 -26 -21 -52 -25 -56 -4 -5 -17 17 -30 47 -12 31 -26 56 -31 56 -5 0
-8 -33 -7 -72z"/>
<path d="M2920 1001 c0 -67 1 -69 27 -74 15 -3 33 -3 40 0 20 8 27 51 14 80
-9 20 -17 24 -36 20 -21 -3 -25 0 -25 19 0 13 -4 24 -10 24 -6 0 -10 -30 -10
-69z m65 -21 c0 -29 -4 -36 -22 -38 -20 -3 -23 1 -23 31 0 38 7 49 30 45 10
-2 15 -15 15 -38z"/>
<path d="M3420 1060 c0 -5 5 -10 10 -10 6 0 10 5 10 10 0 6 -4 10 -10 10 -5 0
-10 -4 -10 -10z"/>
<path d="M3352 1035 c-7 -9 -8 -15 -2 -15 5 0 10 -17 10 -39 0 -39 22 -72 35
-51 3 5 1 10 -4 10 -6 0 -11 18 -11 40 0 22 5 40 11 40 6 0 4 7 -5 15 -18 18
-18 18 -34 0z"/>
<path d="M557 1024 c-14 -14 -7 -26 8 -14 15 13 45 7 45 -8 0 -5 -13 -12 -29
-15 -16 -3 -31 -13 -34 -21 -8 -20 21 -49 40 -42 8 3 20 6 27 6 8 0 10 14 6
48 -4 41 -8 47 -30 50 -14 2 -29 0 -33 -4z m51 -61 c-4 -23 -48 -31 -48 -10 0
9 6 18 13 20 25 11 38 7 35 -10z"/>
<path d="M662 975 l1 -50 6 45 c5 36 10 45 26 45 16 0 21 -8 23 -42 4 -49 22
-59 22 -12 0 48 -16 70 -50 67 -29 -2 -30 -4 -28 -53z"/>
<path d="M777 1024 c-14 -14 -7 -26 8 -14 15 13 45 7 45 -8 0 -5 -14 -12 -30
-16 -17 -3 -33 -13 -37 -22 -8 -23 20 -42 53 -36 23 4 25 8 22 51 -3 41 -6 46
-28 49 -14 2 -29 0 -33 -4z m51 -61 c-4 -23 -48 -31 -48 -10 0 9 6 18 13 20
25 11 38 7 35 -10z"/>
<path d="M882 1018 c-32 -32 0 -105 40 -92 15 4 19 2 16 -7 -3 -8 -17 -14 -31
-14 -15 1 -27 -3 -27 -7 0 -4 13 -8 30 -8 37 0 50 23 50 88 0 48 0 49 -33 50
-19 1 -39 -4 -45 -10z m53 -38 c0 -28 -4 -35 -20 -35 -13 0 -21 8 -23 23 -5
34 5 54 25 50 13 -2 18 -13 18 -38z"/>
<path d="M996 1014 c-9 -8 -16 -26 -16 -39 0 -29 39 -59 64 -49 25 9 19 20
-11 19 -14 0 -28 6 -30 13 -3 8 6 12 26 12 36 0 46 12 31 40 -13 24 -43 26
-64 4z m52 -11 c2 -8 -6 -13 -22 -13 -25 0 -33 10 -19 24 10 10 36 3 41 -11z"/>
<path d="M1130 1026 c0 -2 7 -20 15 -39 17 -41 20 -87 5 -87 -5 0 -10 -5 -10
-11 0 -8 4 -8 14 0 16 13 60 130 52 138 -6 6 -26 -40 -26 -58 0 -21 -19 3 -25
31 -4 17 -11 30 -16 30 -5 0 -9 -2 -9 -4z"/>
<path d="M1242 1018 c-14 -14 -16 -57 -3 -77 5 -7 21 -13 36 -13 31 0 45 16
45 53 0 30 -17 49 -45 49 -12 0 -26 -5 -33 -12z m60 -23 c8 -19 8 -28 -2 -40
-31 -37 -74 1 -50 45 15 27 38 25 52 -5z"/>
<path d="M1352 984 c-2 -57 6 -65 51 -57 25 5 27 9 27 54 0 60 -18 65 -22 7
-2 -35 -7 -43 -23 -43 -16 0 -21 9 -26 45 l-6 45 -1 -51z"/>
<path d="M1462 975 c1 -46 2 -47 5 -10 2 22 11 45 20 52 13 10 13 12 -6 10
-19 -1 -21 -7 -19 -52z"/>
<path d="M1689 1006 c-23 -49 5 -89 54 -78 26 5 21 20 -6 15 -14 -3 -29 2 -36
11 -12 14 -9 16 22 16 42 0 48 7 36 38 -12 31 -56 30 -70 -2z m59 -3 c2 -8 -6
-13 -22 -13 -25 0 -33 10 -19 24 10 10 36 3 41 -11z"/>
<path d="M1783 1018 c2 -7 10 -30 18 -50 7 -21 16 -38 20 -38 9 0 41 92 34 98
-5 5 -25 -42 -25 -59 0 -25 -20 -5 -26 26 -3 19 -11 35 -16 35 -6 0 -8 -6 -5
-12z"/>
<path d="M1893 980 c0 -30 2 -43 4 -27 2 15 2 39 0 55 -2 15 -4 2 -4 -28z"/>
<path d="M1942 1018 c-13 -13 -16 -57 -4 -74 17 -26 72 -20 72 8 0 9 -3 9 -12
0 -20 -20 -47 -14 -54 13 -11 44 34 75 55 38 9 -16 10 -16 11 -2 0 27 -46 39
-68 17z"/>
<path d="M2046 1014 c-9 -8 -16 -26 -16 -39 0 -29 39 -59 64 -49 25 9 19 20
-11 19 -14 0 -28 6 -30 13 -3 8 6 12 26 12 36 0 46 12 31 40 -13 24 -43 26
-64 4z m52 -11 c2 -8 -6 -13 -22 -13 -25 0 -33 10 -19 24 10 10 36 3 41 -11z"/>
<path d="M2151 1021 c-20 -13 -6 -39 24 -47 14 -3 25 -12 25 -20 0 -17 -32
-18 -48 -2 -9 9 -12 9 -12 0 0 -20 38 -34 60 -22 29 16 24 39 -10 51 -16 6
-30 17 -30 25 0 16 26 19 35 4 3 -5 11 -10 17 -10 7 0 6 6 -2 15 -14 17 -38
19 -59 6z"/>
<path d="M2360 979 c0 -27 5 -49 10 -49 6 0 10 18 10 40 0 26 6 42 17 48 13 8
11 10 -10 10 -26 0 -27 -3 -27 -49z"/>
<path d="M2444 1022 c-6 -4 -14 -16 -18 -28 -20 -64 61 -99 85 -36 17 44 -30
89 -67 64z m46 -16 c18 -23 8 -61 -18 -64 -26 -4 -37 17 -28 53 7 28 27 33 46
11z"/>
<path d="M2540 979 c0 -60 18 -65 22 -7 2 31 8 44 21 46 14 3 17 -4 17 -42 0
-58 18 -61 22 -3 2 34 7 42 23 42 16 0 21 -9 26 -45 l7 -45 -2 50 -1 50 -67 1
-68 1 0 -48z"/>
<path d="M2777 1024 c-14 -14 -7 -26 8 -14 15 13 45 7 45 -8 0 -5 -14 -12 -30
-16 -17 -3 -33 -13 -37 -22 -8 -23 20 -42 53 -36 23 4 25 8 22 51 -3 41 -6 46
-28 49 -14 2 -29 0 -33 -4z m51 -61 c-4 -22 -48 -31 -48 -10 0 19 10 27 32 27
13 0 18 -6 16 -17z"/>
<path d="M3039 1006 c-23 -49 5 -89 54 -78 26 5 21 20 -6 15 -14 -3 -29 2 -36
11 -12 14 -9 16 22 16 42 0 48 7 36 38 -12 31 -56 30 -70 -2z m59 -3 c2 -8 -6
-13 -22 -13 -25 0 -33 10 -19 24 10 10 36 3 41 -11z"/>
<path d="M3153 1023 c-7 -2 -13 -9 -13 -15 0 -6 6 -6 15 2 15 13 45 7 45 -8 0
-5 -13 -12 -30 -15 -23 -5 -30 -12 -30 -31 0 -28 15 -36 53 -29 23 5 27 10 27
42 0 52 -25 72 -67 54z m47 -58 c0 -21 -28 -31 -43 -16 -9 9 -8 14 3 21 22 14
40 12 40 -5z"/>
<path d="M3252 984 c-2 -57 6 -65 51 -57 25 5 27 9 27 54 0 27 -4 49 -10 49
-5 0 -10 -21 -10 -46 0 -41 -2 -45 -22 -42 -19 2 -24 11 -29 48 l-6 45 -1 -51z"/>
<path d="M3420 980 c0 -27 5 -50 10 -50 6 0 10 23 10 50 0 28 -4 50 -10 50 -5
0 -10 -22 -10 -50z"/>
<path d="M3542 988 c-2 -52 12 -68 54 -60 21 4 24 10 24 53 0 27 -4 49 -10 49
-5 0 -10 -21 -10 -46 0 -41 -2 -45 -22 -42 -19 2 -24 11 -29 48 l-6 45 -1 -47z"/>
<path d="M3701 943 c-1 -6 -4 -20 -7 -30 -5 -17 -5 -17 6 0 6 10 9 23 6 30 -3
9 -5 9 -5 0z"/>
<path d="M1760 824 c0 -20 -4 -24 -19 -19 -40 12 -67 -50 -38 -89 10 -14 21
-17 45 -11 l32 7 0 69 c0 39 -4 69 -10 69 -5 0 -10 -12 -10 -26z m0 -68 c0
-33 -13 -47 -37 -39 -14 5 -18 55 -6 66 3 4 15 7 25 7 14 0 18 -8 18 -34z"/>
<path d="M2525 840 c-3 -5 -1 -10 4 -10 6 0 11 5 11 10 0 6 -2 10 -4 10 -3 0
-8 -4 -11 -10z"/>
<path d="M2782 780 l-2 -75 29 -2 c35 -2 54 17 54 54 0 30 -29 56 -54 48 -13
-5 -19 1 -22 22 -2 15 -5 -6 -5 -47z m66 -21 c4 -34 -22 -57 -43 -39 -16 13
-20 51 -8 64 16 16 48 1 51 -25z"/>
<path d="M2890 774 c0 -47 4 -73 10 -69 6 3 10 37 10 76 0 39 -4 69 -10 69 -6
0 -10 -32 -10 -76z"/>
<path d="M2172 813 c-7 -7 -8 -13 -3 -13 5 0 11 -21 13 -47 2 -31 8 -48 18
-51 12 -4 13 -2 3 9 -15 15 -17 71 -4 85 6 5 5 13 -3 20 -8 8 -15 7 -24 -3z"/>
<path d="M1032 794 c-12 -8 -22 -25 -22 -38 0 -41 58 -74 76 -44 5 8 2 9 -11
5 -18 -7 -45 8 -45 24 0 5 16 9 35 9 39 0 46 17 19 44 -19 20 -24 20 -52 0z
m48 -19 c0 -9 -9 -15 -25 -15 -24 0 -32 10 -18 23 12 13 43 7 43 -8z"/>
<path d="M1134 795 c-22 -16 -12 -20 16 -5 13 7 21 6 30 -5 13 -16 7 -20 -35
-27 -23 -4 -34 -47 -13 -50 65 -7 68 -6 68 39 0 32 -5 45 -19 53 -25 13 -23
13 -47 -5z m56 -55 c0 -12 -35 -31 -44 -23 -15 15 -4 33 19 33 14 0 25 -4 25
-10z"/>
<path d="M1248 799 c-27 -15 -22 -36 12 -48 17 -5 30 -14 30 -20 0 -17 -19
-22 -40 -11 -13 7 -20 7 -20 1 0 -19 51 -25 67 -8 18 18 10 35 -23 47 -37 14
-30 34 9 26 30 -5 31 -5 13 9 -23 17 -25 18 -48 4z"/>
<path d="M1342 755 c20 -53 20 -56 3 -75 -10 -11 -13 -20 -8 -20 6 0 15 6 20
13 15 18 53 137 44 137 -4 0 -14 -19 -21 -42 l-13 -43 -14 43 c-8 23 -19 42
-23 42 -5 0 0 -25 12 -55z"/>
<path d="M1498 803 c-10 -2 -18 -9 -18 -14 0 -6 7 -6 18 -1 21 12 42 5 42 -14
0 -8 -10 -14 -24 -14 -13 0 -29 -7 -36 -15 -19 -22 5 -45 45 -43 l32 1 -5 46
c-4 41 -16 63 -32 60 -3 -1 -13 -3 -22 -6z m42 -62 c0 -14 -28 -33 -40 -26
-20 12 -10 35 15 35 14 0 25 -4 25 -9z"/>
<path d="M1585 802 c-9 -9 -5 -91 4 -97 6 -3 11 14 13 37 2 36 7 44 26 46 20
3 22 -1 22 -43 0 -28 4 -44 10 -40 12 8 13 65 1 84 -9 14 -66 23 -76 13z"/>
<path d="M1872 794 c-12 -8 -22 -26 -22 -39 0 -25 24 -55 44 -55 15 0 55 29
41 30 -6 0 -16 -5 -21 -10 -18 -18 -44 0 -44 30 0 38 23 56 44 34 10 -9 20
-13 24 -9 6 6 -24 35 -38 35 -3 0 -16 -7 -28 -16z"/>
<path d="M1961 769 c-1 -52 11 -68 51 -66 27 2 28 4 26 57 -1 49 -2 50 -5 13
-5 -46 -27 -73 -45 -55 -6 6 -15 31 -19 54 l-6 43 -2 -46z"/>
<path d="M2082 798 c-20 -20 -14 -35 18 -47 17 -5 30 -14 30 -20 0 -17 -19
-22 -40 -11 -13 7 -20 7 -20 1 0 -19 51 -25 67 -8 14 13 14 19 3 31 -7 9 -21
16 -31 16 -11 0 -19 6 -19 13 0 21 11 27 31 16 11 -6 19 -6 19 0 0 8 -23 21
-39 21 -4 0 -12 -5 -19 -12z"/>
<path d="M2252 794 c-12 -8 -22 -26 -22 -39 0 -44 50 -71 78 -43 20 20 15 76
-7 88 -25 13 -22 13 -49 -6z m54 -30 c8 -31 -14 -58 -39 -48 -17 6 -24 54 -10
67 16 16 43 6 49 -19z"/>
<path d="M2352 750 l1 -55 6 45 c5 37 10 46 29 48 20 3 22 -1 22 -37 0 -22 5
-43 10 -46 6 -4 10 12 10 40 0 42 2 46 23 43 18 -2 23 -11 28 -48 l6 -45 1 51
c2 56 -13 73 -48 54 -12 -6 -21 -7 -25 0 -3 5 -19 8 -35 7 -30 -2 -30 -3 -28
-57z"/>
<path d="M2533 755 c0 -33 2 -45 4 -27 2 18 2 45 0 60 -2 15 -4 0 -4 -33z"/>
<path d="M2570 800 c0 -5 12 -10 26 -10 l26 0 -26 -34 c-35 -47 -33 -56 14
-56 22 0 40 5 40 10 0 6 -14 10 -31 10 l-31 0 26 34 c34 46 33 56 -9 56 -19 0
-35 -4 -35 -10z"/>
<path d="M2684 795 c-10 -8 -14 -15 -7 -15 6 0 14 4 18 10 8 13 35 1 35 -15 0
-8 -12 -15 -27 -17 -22 -2 -28 -8 -28 -28 0 -22 4 -25 38 -25 37 -1 37 -1 37
42 0 32 -5 45 -19 53 -25 13 -23 13 -47 -5z m46 -59 c0 -8 -6 -16 -13 -19 -19
-7 -41 8 -33 22 10 16 46 14 46 -3z"/>
<path d="M2950 790 c-24 -24 -25 -38 -4 -68 16 -24 48 -29 60 -10 5 8 2 9 -11
5 -18 -7 -45 8 -45 24 0 5 16 9 35 9 39 0 46 17 19 44 -20 21 -30 20 -54 -4z
m50 -15 c0 -9 -9 -15 -25 -15 -24 0 -32 10 -18 23 12 13 43 7 43 -8z"/>
<path d="M2286 600 c-8 -16 -10 -30 -5 -30 5 0 10 -21 11 -47 l1 -48 4 45 c3
24 10 48 16 52 9 6 9 8 0 8 -19 0 -16 27 5 39 15 9 15 10 0 11 -9 0 -23 -13
-32 -30z"/>
<path d="M2039 593 c-4 -69 7 -113 29 -112 11 0 12 3 5 6 -7 2 -13 22 -13 43
0 21 6 41 13 43 10 4 10 6 0 6 -7 1 -13 8 -13 16 0 21 -20 19 -21 -2z"/>
<path d="M1454 535 l1 -50 38 -3 37 -3 0 50 c0 62 -18 68 -22 9 -2 -35 -7 -43
-23 -43 -16 0 -21 9 -26 45 l-7 45 2 -50z"/>
<path d="M1567 574 c-15 -15 -6 -34 23 -49 17 -9 28 -20 25 -25 -8 -13 -45
-13 -45 0 0 6 -5 10 -11 10 -8 0 -7 -5 1 -16 19 -22 64 -14 68 13 2 17 -3 23
-27 28 -17 4 -31 11 -31 16 0 17 30 22 47 8 14 -12 16 -12 11 1 -5 16 -49 26
-61 14z"/>
<path d="M1660 555 c-15 -40 3 -75 39 -75 16 0 33 5 36 10 4 7 -3 8 -20 4 -18
-4 -30 -2 -36 7 -15 24 -10 29 26 29 36 0 46 15 23 38 -21 21 -58 14 -68 -13z
m60 0 c0 -9 -9 -15 -25 -15 -24 0 -32 10 -18 23 12 13 43 7 43 -8z"/>
<path d="M1760 530 c0 -27 5 -50 10 -50 6 0 10 18 10 40 0 27 6 42 18 49 14 9
13 10 -10 11 -27 0 -28 -2 -28 -50z"/>
<path d="M1880 530 c0 -27 5 -50 10 -50 6 0 10 23 10 50 0 28 -4 50 -10 50 -5
0 -10 -22 -10 -50z"/>
<path d="M1931 526 c1 -28 3 -40 6 -26 9 60 14 70 33 70 17 0 20 -7 20 -45 0
-25 5 -45 11 -45 6 0 9 19 7 48 -3 47 -3 47 -40 48 l-38 1 1 -51z"/>
<path d="M2112 568 c-15 -15 -16 -60 0 -76 14 -14 54 -16 62 -3 3 4 -5 6 -18
4 -17 -4 -27 1 -35 16 -11 20 -9 21 24 21 32 0 36 3 33 23 -3 25 -45 36 -66
15z m56 -15 c2 -8 -6 -13 -22 -13 -25 0 -33 10 -19 24 10 10 36 3 41 -11z"/>
<path d="M2211 525 c1 -27 3 -39 6 -25 9 56 14 69 31 73 9 3 5 4 -10 4 -27 -1
-28 -3 -27 -52z"/>
<path d="M2356 571 c-4 -6 5 -9 20 -8 15 1 29 -4 31 -10 3 -8 -5 -13 -20 -13
-30 0 -50 -21 -41 -44 4 -11 17 -15 43 -14 l37 1 -6 46 c-4 41 -8 46 -32 49
-14 2 -29 -1 -32 -7z m54 -56 c0 -9 -7 -18 -16 -22 -18 -7 -39 11 -30 26 11
17 46 13 46 -4z"/>
<path d="M2462 568 c-16 -16 -15 -63 2 -78 18 -14 58 -10 64 8 3 11 1 11 -18
0 -18 -11 -23 -11 -36 6 -8 11 -14 23 -14 26 0 3 6 15 14 26 13 17 18 17 36 6
19 -11 21 -11 18 0 -6 17 -50 22 -66 6z"/>
<path d="M2558 555 c-17 -38 3 -75 41 -75 16 0 32 4 35 9 3 5 -9 8 -26 7 -23
-1 -33 4 -36 17 -3 14 4 17 32 17 37 0 47 15 24 38 -21 21 -57 14 -70 -13z
m60 -2 c2 -8 -6 -13 -22 -13 -25 0 -33 10 -19 24 10 10 36 3 41 -11z"/>
</g>
</svg>
