<?xml version="1.0" standalone="no"?>
<!DOCTYPE svg PUBLIC "-//W3C//DTD SVG 20010904//EN"
 "http://www.w3.org/TR/2001/REC-SVG-20010904/DTD/svg10.dtd">
<svg version="1.0" xmlns="http://www.w3.org/2000/svg"
 width="435.000000pt" height="882.000000pt" viewBox="0 0 435.000000 882.000000"
 preserveAspectRatio="xMidYMid meet">

<g transform="translate(0.000000,882.000000) scale(0.100000,-0.100000)"
fill="#000000" stroke="none">
<path d="M1088 8813 c602 -2 1583 -2 2180 0 598 1 106 2 -1093 2 -1199 0
-1688 -1 -1087 -2z"/>
<path d="M1974 8245 c-7 -18 3 -35 21 -35 21 0 28 19 15 35 -16 19 -29 19 -36
0z"/>
<path d="M2604 8245 c-7 -18 3 -35 21 -35 18 0 26 25 12 39 -15 15 -27 14 -33
-4z"/>
<path d="M1508 8108 c3 -117 2 -134 -14 -145 -15 -11 -2 -13 84 -13 l102 0 -1
43 -1 42 -9 -32 c-10 -36 -34 -47 -90 -41 l-34 3 -3 63 c-3 59 -2 62 21 62 12
0 28 -5 35 -12 9 -9 12 -4 12 23 -1 28 -2 31 -11 17 -5 -10 -21 -18 -34 -18
-24 0 -25 3 -25 58 0 32 5 63 12 70 9 9 5 12 -17 12 l-30 0 3 -132z"/>
<path d="M1642 8223 c9 -10 18 -27 21 -38 3 -11 5 -4 6 18 1 32 -2 37 -21 37
-19 0 -20 -1 -6 -17z"/>
<path d="M2720 8107 c0 -123 12 -157 54 -157 23 0 46 17 46 34 0 5 -6 1 -14
-9 -8 -11 -19 -16 -30 -12 -14 5 -16 25 -16 132 0 118 -1 125 -20 125 -19 0
-20 -7 -20 -113z"/>
<path d="M1728 8153 c8 -3 12 -33 12 -98 0 -65 -4 -95 -12 -98 -7 -3 7 -5 32
-5 25 0 39 2 33 5 -9 3 -13 34 -13 104 l0 99 -32 -1 c-18 0 -27 -3 -20 -6z"/>
<path d="M1799 8143 c-13 -16 -12 -17 3 -5 9 8 27 12 40 10 22 -3 23 -8 26
-86 2 -53 -1 -89 -9 -98 -10 -12 -4 -14 32 -14 35 1 40 3 27 11 -15 8 -18 24
-18 92 0 51 -5 88 -12 95 -18 18 -73 15 -89 -5z"/>
<path d="M1963 8149 c14 -9 17 -26 17 -117 0 -81 -4 -113 -16 -130 -19 -28 -3
-29 22 -1 16 18 20 40 22 140 l4 119 -34 0 c-27 -1 -30 -2 -15 -11z"/>
<path d="M2095 8135 c-20 -19 -25 -34 -25 -77 0 -58 17 -92 51 -101 20 -5 20
-5 3 15 -27 29 -26 138 0 167 27 30 1 27 -29 -4z"/>
<path d="M2176 8152 c39 -26 47 -133 13 -176 -23 -29 -15 -34 18 -11 27 19 48
83 40 117 -9 35 -45 78 -65 78 -11 0 -13 -3 -6 -8z"/>
<path d="M2273 8148 c9 -7 34 -57 55 -111 33 -82 41 -94 46 -73 4 17 -4 51
-24 101 -16 41 -30 77 -30 80 0 2 8 6 18 8 9 3 -5 5 -32 6 -42 1 -47 -1 -33
-11z"/>
<path d="M2416 8146 c10 -8 21 -11 24 -8 3 4 9 10 14 15 5 4 -6 7 -24 7 -32 0
-33 -1 -14 -14z"/>
<path d="M2593 8149 c14 -8 17 -25 17 -94 0 -69 -3 -86 -17 -94 -14 -8 -7 -10
32 -10 39 0 46 2 33 10 -15 8 -18 25 -18 104 l0 95 -32 0 c-27 -1 -30 -2 -15
-11z"/>
<path d="M2406 8075 c-9 -26 -7 -32 5 -12 6 10 9 21 6 23 -2 3 -7 -2 -11 -11z"/>
<path d="M2346 7913 c-6 -14 -5 -15 5 -6 7 7 10 15 7 18 -3 3 -9 -2 -12 -12z"/>
<path d="M2284 7909 c-10 -17 13 -36 27 -22 12 12 4 33 -11 33 -5 0 -12 -5
-16 -11z"/>
<path d="M1490 7700 c0 -86 17 -111 22 -32 3 39 6 47 23 47 17 0 20 -8 23 -47
4 -59 22 -64 22 -5 0 55 -11 71 -44 65 -23 -5 -26 -2 -26 23 0 16 -4 29 -10
29 -6 0 -10 -33 -10 -80z"/>
<path d="M1730 7755 c0 -19 -5 -25 -23 -25 -32 0 -47 -18 -47 -56 0 -39 17
-54 58 -51 l32 2 0 78 c0 45 -4 77 -10 77 -5 0 -10 -11 -10 -25z m-5 -80 c0
-30 -4 -41 -17 -43 -26 -5 -44 39 -28 67 19 36 45 22 45 -24z"/>
<path d="M1970 7700 c0 -47 4 -80 10 -80 6 0 10 11 10 25 0 14 4 25 9 25 5 0
16 -11 25 -25 9 -14 21 -25 27 -25 6 0 0 15 -14 34 -26 33 -26 34 -7 51 11 10
18 21 15 23 -3 3 -16 -5 -30 -18 l-25 -23 0 46 c0 26 -4 47 -10 47 -6 0 -10
-33 -10 -80z"/>
<path d="M2200 7700 c0 -86 17 -111 22 -32 3 39 6 47 23 47 17 0 20 -8 23 -47
4 -59 22 -64 22 -5 0 55 -11 71 -44 65 -23 -5 -26 -2 -26 23 0 16 -4 29 -10
29 -6 0 -10 -33 -10 -80z"/>
<path d="M3103 7720 c0 -30 2 -43 4 -27 2 15 2 39 0 55 -2 15 -4 2 -4 -28z"/>
<path d="M1430 7745 c0 -8 -6 -15 -12 -15 -10 0 -10 -2 -1 -8 6 -4 13 -27 15
-52 2 -35 7 -46 22 -48 18 -4 19 -3 3 13 -20 20 -22 71 -4 82 10 6 9 12 -5 26
-15 14 -18 14 -18 2z"/>
<path d="M2140 7747 c0 -9 -6 -17 -12 -17 -10 0 -10 -2 -1 -8 6 -4 13 -27 15
-52 2 -36 7 -45 23 -48 18 -2 18 -2 3 8 -19 12 -26 86 -9 92 5 2 3 12 -5 22
-12 17 -14 18 -14 3z"/>
<path d="M2790 7745 c0 -8 -6 -15 -12 -15 -10 0 -10 -2 -1 -8 6 -4 13 -27 15
-52 2 -36 7 -45 23 -47 11 -2 14 0 8 3 -8 3 -13 24 -13 49 0 25 5 45 13 48 10
4 10 6 0 6 -7 1 -13 8 -13 16 0 8 -4 15 -10 15 -5 0 -10 -7 -10 -15z"/>
<path d="M1203 7716 c3 -8 11 -32 18 -55 15 -50 26 -52 35 -6 9 49 19 51 33 5
6 -22 15 -40 20 -40 9 0 35 99 28 107 -3 3 -11 -15 -18 -38 l-12 -44 -12 39
c-15 52 -32 56 -41 12 -8 -46 -20 -46 -28 -1 -4 19 -12 35 -18 35 -5 0 -8 -6
-5 -14z"/>
<path d="M1370 7675 c0 -30 5 -55 10 -55 6 0 10 25 10 55 0 30 -4 55 -10 55
-5 0 -10 -25 -10 -55z"/>
<path d="M1790 7715 c-14 -17 0 -21 17 -4 19 19 40 3 41 -29 1 -39 -21 -60
-44 -41 -14 12 -14 14 3 27 17 13 17 14 -2 10 -14 -2 -20 -11 -20 -28 0 -22 4
-25 43 -26 l42 -2 0 42 c0 23 -5 47 -12 54 -17 17 -53 15 -68 -3z"/>
<path d="M1900 7674 c0 -34 4 -53 10 -49 6 3 10 24 10 45 0 27 6 42 18 49 14
9 13 10 -10 11 -27 0 -28 -2 -28 -56z"/>
<path d="M2333 7718 c-34 -44 -13 -102 34 -96 15 2 28 9 31 16 3 11 0 11 -16
1 -17 -10 -23 -10 -36 0 -26 22 -19 31 24 31 41 0 47 8 30 41 -12 21 -52 26
-67 7z m55 -15 c5 -16 -22 -27 -44 -19 -13 5 -14 9 -4 22 15 17 41 15 48 -3z"/>
<path d="M2430 7673 c0 -66 18 -71 22 -5 3 39 6 47 23 47 17 0 20 -8 23 -47 2
-27 7 -48 12 -48 5 0 10 21 12 48 3 39 6 47 23 47 17 0 20 -8 23 -47 4 -59 22
-64 22 -5 0 62 -6 66 -88 65 l-72 -1 0 -54z"/>
<path d="M2623 7704 c-15 -24 -15 -29 -2 -53 11 -19 23 -26 44 -26 15 0 30 6
33 13 3 11 0 11 -16 1 -17 -10 -23 -10 -36 0 -25 21 -19 31 18 31 41 0 47 7
35 38 -12 31 -54 29 -76 -4z m65 -1 c5 -16 -22 -27 -44 -19 -13 5 -14 9 -4 22
15 17 41 15 48 -3z"/>
<path d="M2862 7718 c-17 -17 -15 -73 2 -88 23 -18 59 -8 75 21 13 24 13 29
-2 53 -19 28 -54 35 -75 14z m56 -10 c25 -25 8 -78 -25 -78 -22 0 -37 44 -24
69 13 24 31 27 49 9z"/>
<path d="M2982 7718 c-17 -17 -15 -64 4 -82 46 -46 106 15 74 75 -12 22 -59
26 -78 7z m52 -4 c20 -8 21 -57 1 -74 -31 -26 -60 13 -44 58 9 23 17 26 43 16z"/>
<path d="M3100 7629 c0 -5 5 -7 10 -4 6 3 10 8 10 11 0 2 -4 4 -10 4 -5 0 -10
-5 -10 -11z"/>
<path d="M0 4593 c0 -1343 4 -2053 10 -2053 6 0 10 -5 10 -11 0 -5 -4 -7 -10
-4 -7 4 -10 -254 -10 -767 l0 -774 343 -341 c332 -330 344 -342 427 -382 151
-73 268 -74 410 -4 71 35 100 62 555 522 264 267 758 762 1097 1099 386 384
632 636 657 674 106 157 107 345 4 516 -29 47 -354 378 -1401 1425 -1206 1206
-1362 1367 -1357 1388 5 21 -40 70 -365 394 l-370 370 0 -2052z m454 290 c46
-47 72 -81 66 -87 -6 -6 -15 -4 -25 4 -21 17 -51 -5 -34 -26 6 -8 9 -21 5 -29
-5 -13 -9 -13 -26 -3 -27 17 -50 -3 -30 -27 19 -22 -2 -44 -25 -25 -12 10 -18
10 -30 0 -14 -12 -14 -15 0 -30 21 -24 -1 -46 -25 -25 -15 14 -18 14 -30 0
-10 -12 -10 -18 0 -30 19 -23 -3 -44 -25 -25 -23 19 -44 -3 -28 -29 9 -15 9
-22 -1 -30 -18 -15 -175 144 -159 160 9 9 15 9 26 0 11 -9 17 -8 27 4 11 13 9
20 -10 40 -18 19 -21 28 -12 37 9 9 18 6 37 -12 21 -19 27 -21 40 -10 14 12
12 17 -17 47 -25 26 -29 36 -20 45 9 9 19 5 45 -20 30 -29 35 -31 47 -17 11
13 8 21 -18 48 -25 26 -29 36 -20 45 9 9 19 5 45 -20 27 -26 35 -29 48 -18 14
12 13 16 -12 42 -21 22 -24 31 -15 40 9 9 18 6 40 -15 26 -25 30 -26 42 -12 9
11 10 18 1 28 -10 13 -6 27 10 27 4 0 41 -35 83 -77z m388 -290 c25 -23 23
-34 -16 -65 -32 -25 -35 -26 -57 -10 -28 19 -39 33 -33 43 6 11 39 3 37 -9 -3
-14 24 -35 31 -24 3 6 -1 15 -9 22 -18 15 -19 32 -3 48 16 16 28 15 50 -5z
m-62 -100 c0 -16 -23 -43 -37 -43 -12 0 -13 -3 -4 -14 15 -18 -2 -56 -24 -56
-20 0 -19 10 3 27 15 13 15 13 -5 4 -28 -14 -29 -14 -47 5 -20 20 -20 26 2 52
17 20 20 20 35 4 11 -10 17 -12 17 -4 0 7 -4 12 -10 12 -16 0 -11 28 7 38 12
7 24 5 40 -5 13 -8 23 -17 23 -20z m-125 -114 c11 -17 -2 -21 -24 -8 -27 17
-39 4 -18 -19 29 -32 19 -37 -13 -7 l-29 28 20 18 c22 19 49 14 64 -12z m-77
-33 c20 -19 33 -38 29 -43 -7 -7 -77 58 -77 71 0 12 13 5 48 -28z m-7 -32 c14
-13 16 -21 8 -35 -5 -11 -16 -19 -24 -19 -7 0 -15 -6 -18 -12 -3 -10 -7 -10
-20 1 -15 12 -17 11 -17 -7 0 -16 -5 -19 -22 -14 -22 5 -23 5 -5 -15 11 -12
14 -24 9 -27 -6 -3 -25 13 -43 35 l-33 42 36 -7 37 -7 -6 38 -6 38 32 -29 c17
-17 31 -25 31 -19 0 6 -5 13 -12 15 -17 6 -2 38 18 38 10 0 26 -7 35 -16z
m583 -64 c22 -57 20 -67 -9 -36 -24 26 -55 35 -55 15 0 -6 9 -13 20 -16 11 -3
20 -9 20 -14 0 -12 -37 -11 -45 1 -3 6 -11 10 -16 10 -5 0 -2 -11 7 -25 23
-35 13 -41 -16 -10 -17 19 -21 28 -13 36 6 6 9 18 5 27 -4 11 -1 14 11 9 9 -3
19 -2 23 4 3 5 15 7 26 3 17 -5 19 -3 13 15 -12 38 13 22 29 -19z m-114 -30
c0 -5 -4 -10 -10 -10 -5 0 -10 5 -10 10 0 6 5 10 10 10 6 0 10 -4 10 -10z m0
-39 c0 -5 -6 -12 -12 -15 -7 -2 -2 -4 12 -3 33 3 36 -36 3 -41 -14 -2 -23 -11
-25 -25 -2 -14 -11 -23 -25 -25 -14 -2 -20 -8 -16 -18 7 -19 -6 -18 -29 3 -25
22 -36 8 -13 -17 26 -29 10 -38 -19 -11 -21 20 -23 26 -13 42 7 11 19 19 28
19 9 0 19 9 22 21 3 11 15 23 26 26 12 3 21 13 21 23 0 17 12 27 33 29 4 1 7
-3 7 -8z m-161 -136 c1 5 13 -3 27 -18 14 -16 23 -31 20 -34 -10 -10 -76 59
-69 70 4 6 10 2 14 -9 4 -10 8 -15 8 -9z m264 -25 c3 -11 1 -18 -4 -14 -5 3
-9 12 -9 20 0 20 7 17 13 -6z m-248 -20 c24 -26 11 -39 -15 -15 -26 24 -39 11
-15 -15 24 -26 11 -39 -15 -15 -26 24 -39 11 -15 -15 27 -30 9 -37 -23 -9
l-27 24 24 -27 c20 -23 22 -30 11 -43 -7 -8 -19 -15 -28 -15 -8 0 -12 -3 -9
-7 8 -7 -21 -43 -34 -43 -12 0 -71 62 -64 68 3 3 18 -7 34 -22 25 -24 29 -25
41 -11 11 13 10 19 -4 33 -21 24 -8 37 16 15 23 -21 37 -8 15 14 -16 16 -14
20 25 60 48 49 57 51 83 23z m-342 -308 c-10 -10 -20 -17 -22 -16 -6 5 20 34
30 34 5 0 1 -8 -8 -18z m78 1 c13 -17 13 -17 -6 -3 -11 8 -22 16 -24 17 -2 2
0 3 6 3 6 0 17 -8 24 -17z m7 -98 c-22 -20 -22 -20 -6 0 10 12 15 32 12 50
l-4 30 10 -30 c8 -25 6 -33 -12 -50z m-41 -1 c-3 -3 -12 -4 -19 -1 -8 3 -5 6
6 6 11 1 17 -2 13 -5z m1229 -207 c26 -24 37 -43 41 -74 3 -24 12 -48 19 -54
22 -18 17 -32 -29 -77 -47 -46 -58 -50 -77 -27 -7 8 -25 15 -40 15 -34 0 -90
37 -107 70 -29 57 -5 137 49 166 13 8 42 13 66 14 34 0 49 -6 78 -33z m69
-237 c-21 -22 -41 -37 -44 -35 -6 7 60 75 73 75 6 0 -7 -18 -29 -40z m644
-402 l41 -42 -45 -46 -45 -45 -46 46 -46 47 38 40 c22 22 44 41 50 41 6 1 30
-18 53 -41z m-2479 -88 c0 -5 -4 -10 -10 -10 -5 0 -10 5 -10 10 0 6 5 10 10
10 6 0 10 -4 10 -10z m70 -20 c0 -5 -4 -10 -10 -10 -5 0 -10 5 -10 10 0 6 5
10 10 10 6 0 10 -4 10 -10z m-60 -50 c0 -5 -4 -10 -10 -10 -5 0 -10 5 -10 10
0 6 5 10 10 10 6 0 10 -4 10 -10z m1182 -30 c12 -19 13 -19 34 1 26 25 45 7
21 -19 -13 -15 -14 -20 -2 -36 20 -26 7 -41 -16 -20 -18 16 -20 16 -38 0 -29
-26 -48 -10 -22 18 21 23 21 23 1 41 -11 10 -17 22 -14 26 9 15 23 10 36 -11z
m-859 -116 c-3 -8 3 -24 12 -34 26 -29 3 -24 -24 4 -20 21 -21 27 -10 39 17
18 30 12 22 -9z m-10 -45 c15 -24 1 -49 -27 -49 -19 0 -27 7 -32 26 -11 42 36
59 59 23z m-58 -49 c20 -38 19 -43 -6 -35 -18 6 -20 4 -14 -14 8 -28 -15 -28
-46 0 -23 19 -23 20 -2 14 18 -5 20 -3 16 16 -5 18 -3 21 14 17 16 -4 19 -2
16 13 -8 29 5 23 22 -11z m-65 -65 c17 -21 8 -50 -17 -53 -14 -2 -20 -8 -16
-18 7 -19 -11 -18 -27 1 -7 8 -16 15 -21 15 -15 0 -10 -27 6 -40 9 -7 13 -15
10 -18 -7 -7 -75 58 -75 71 0 5 7 3 17 -4 13 -11 17 -11 20 -1 3 6 13 12 24
12 12 0 19 7 19 18 0 10 3 22 7 25 11 12 40 8 53 -8z m-140 -71 c0 -4 -8 -13
-17 -20 -16 -12 -13 -13 22 -11 34 2 40 -1 43 -20 4 -26 -34 -51 -51 -34 -11
11 -9 12 15 15 6 0 13 7 15 13 3 9 -4 11 -27 6 -37 -7 -54 10 -39 39 9 17 39
26 39 12z m1695 -156 c48 -22 45 -87 -5 -108 -25 -10 -34 -10 -56 4 -35 23
-31 84 6 103 30 15 24 15 55 1z m-685 -723 c24 -24 42 -46 39 -49 -10 -9 -122
-37 -127 -31 -5 5 15 100 25 118 8 14 19 7 63 -38z"/>
<path d="M381 4877 c-8 -10 -4 -20 18 -41 28 -27 51 -28 51 -2 0 12 -41 56
-52 56 -3 0 -11 -6 -17 -13z"/>
<path d="M330 4825 c-11 -13 -9 -20 15 -46 26 -26 31 -28 44 -14 14 14 12 18
-15 46 -27 27 -32 29 -44 14z"/>
<path d="M271 4767 c-8 -10 -4 -20 19 -42 25 -24 32 -26 45 -15 14 12 13 16
-11 42 -31 32 -37 33 -53 15z"/>
<path d="M220 4715 c-11 -13 -9 -20 15 -46 26 -26 31 -28 44 -14 14 14 12 18
-15 46 -27 27 -32 29 -44 14z"/>
<path d="M161 4657 c-8 -10 -4 -20 19 -42 25 -24 32 -26 45 -15 14 12 13 16
-11 42 -31 32 -37 33 -53 15z"/>
<path d="M827 4573 c-4 -3 -7 -11 -7 -17 0 -6 5 -5 12 2 6 6 9 14 7 17 -3 3
-9 2 -12 -2z"/>
<path d="M674 4449 c-10 -17 13 -36 27 -22 12 12 4 33 -11 33 -5 0 -12 -5 -16
-11z"/>
<path d="M970 4105 c0 -8 7 -15 15 -15 8 0 15 7 15 15 0 8 -7 15 -15 15 -8 0
-15 -7 -15 -15z"/>
<path d="M1682 3357 c-52 -56 -12 -147 66 -147 21 0 43 -5 50 -12 9 -9 16 -7
32 7 21 19 27 45 10 45 -5 0 -10 18 -10 40 0 55 -34 90 -88 90 -27 0 -45 -7
-60 -23z"/>
<path d="M355 2380 c-3 -5 -1 -10 4 -10 6 0 11 5 11 10 0 6 -2 10 -4 10 -3 0
-8 -4 -11 -10z"/>
<path d="M222 2264 c4 -21 22 -23 26 -1 2 10 -3 17 -13 17 -10 0 -15 -6 -13
-16z"/>
<path d="M0 10 c0 -7 732 -10 2175 -10 1443 0 2175 3 2175 10 0 7 -732 10
-2175 10 -1443 0 -2175 -3 -2175 -10z"/>
</g>
</svg>
