<?xml version="1.0" standalone="no"?>
<!DOCTYPE svg PUBLIC "-//W3C//DTD SVG 20010904//EN"
 "http://www.w3.org/TR/2001/REC-SVG-20010904/DTD/svg10.dtd">
<svg version="1.0" xmlns="http://www.w3.org/2000/svg"
 width="437.000000pt" height="876.000000pt" viewBox="0 0 437.000000 876.000000"
 preserveAspectRatio="xMidYMid meet">

<g transform="translate(0.000000,876.000000) scale(0.100000,-0.100000)"
fill="#000000" stroke="none">
<path d="M0 4380 l0 -4380 2185 0 2185 0 0 612 0 613 -185 -185 -186 -185
-1207 1211 c-664 666 -1236 1241 -1272 1278 l-65 66 1458 1458 1457 1457 0
1218 0 1217 -2185 0 -2185 0 0 -4380z m1830 3304 c0 -157 1 -166 20 -171 35
-9 11 -23 -40 -23 -51 0 -75 14 -40 23 19 5 20 14 20 155 0 145 -1 152 -22
166 -22 16 -21 16 20 16 l42 0 0 -166z m1215 156 c9 -14 -5 -250 -15 -250 -9
0 -23 236 -15 250 8 13 22 13 30 0z m-1815 -29 c0 -5 -5 -11 -11 -13 -10 -3
49 -208 61 -208 7 0 50 141 50 163 0 8 -9 26 -21 41 l-20 26 58 0 c52 -1 56
-2 40 -15 -18 -13 -17 -17 14 -114 18 -56 36 -97 40 -93 3 4 18 47 33 96 l28
90 -24 18 -23 18 49 0 c48 0 49 -1 32 -19 -10 -11 -37 -81 -60 -157 -24 -76
-48 -140 -53 -141 -5 -2 -24 44 -43 102 -19 58 -37 102 -41 98 -4 -5 -20 -50
-36 -102 -16 -52 -33 -96 -38 -98 -6 -1 -30 57 -54 130 -24 72 -52 144 -62
160 l-20 27 51 0 c27 0 50 -4 50 -9z m463 -93 c14 -13 28 -35 31 -50 l6 -27
-72 -3 -73 -3 1 -33 c3 -51 28 -82 69 -82 24 0 39 7 49 22 9 12 18 19 22 15
12 -12 -54 -67 -81 -67 -87 0 -135 94 -96 188 25 60 100 80 144 40z m355 6
c29 -20 26 -59 -3 -59 -16 0 -20 7 -20 30 0 39 -27 44 -60 11 -21 -21 -25 -34
-25 -83 0 -71 19 -103 61 -103 16 0 38 9 50 21 11 11 23 18 26 15 3 -3 -8 -19
-25 -36 -40 -39 -81 -40 -123 -2 -25 23 -32 38 -36 78 -9 106 81 180 155 128z
m221 2 c35 -19 51 -55 51 -117 0 -45 -4 -55 -34 -85 -45 -45 -92 -47 -138 -5
-31 28 -33 33 -33 96 0 63 2 68 33 96 36 32 77 37 121 15z m162 -8 c1 -13 1
-62 -1 -110 -2 -73 1 -89 14 -94 33 -13 14 -24 -39 -24 -30 0 -55 5 -55 10 0
6 7 10 15 10 12 0 15 18 15 105 0 87 -3 105 -15 105 -8 0 -15 5 -15 10 0 6 18
10 40 10 34 0 40 -3 41 -22z m117 4 c18 -18 19 -18 42 0 27 22 58 23 88 2 20
-14 22 -24 22 -99 0 -93 5 -115 27 -115 8 0 11 -4 8 -10 -8 -12 -105 -13 -105
-1 0 5 7 11 15 15 12 4 15 24 15 90 0 101 -5 116 -36 116 -39 0 -54 -35 -54
-127 0 -67 3 -83 15 -83 8 0 15 -4 15 -10 0 -5 -22 -10 -49 -10 -28 0 -53 5
-56 10 -3 6 1 10 9 10 13 0 16 16 16 100 0 110 -7 123 -56 102 -30 -14 -32 1
-1 16 34 16 65 14 85 -6z m377 -7 c14 -13 25 -36 25 -50 0 -24 -2 -25 -70 -25
l-70 0 0 -31 c0 -32 15 -69 34 -81 21 -14 60 -8 83 14 13 12 23 16 23 9 0 -6
-12 -23 -26 -36 -66 -62 -164 -2 -164 100 0 102 102 164 165 100z m133 -193
c4 -28 -24 -40 -45 -19 -21 21 -9 49 19 45 15 -2 24 -11 26 -26z m-968 -261
l0 -79 -32 -7 c-26 -6 -35 -3 -50 15 -36 44 -13 107 35 98 24 -5 27 -2 27 23
0 16 5 29 10 29 6 0 10 -33 10 -79z m116 27 c36 7 54 -14 54 -64 0 -24 -4 -44
-10 -44 -5 0 -10 20 -10 44 0 49 -19 66 -46 39 -10 -11 -14 -28 -12 -50 2 -18
0 -33 -4 -33 -4 0 -7 37 -6 83 0 45 3 68 5 51 4 -27 7 -30 29 -26z m-1026 -13
c12 -31 26 -57 30 -60 4 -3 18 22 30 55 32 85 50 80 50 -15 0 -43 -4 -75 -10
-75 -5 0 -10 24 -11 53 l-1 52 -24 -52 c-14 -29 -29 -53 -33 -53 -5 0 -19 24
-32 53 l-23 52 -6 -55 c-7 -54 -7 -54 -8 23 -1 42 2 77 7 77 5 0 19 -25 31
-55z m226 47 c34 -23 43 -84 18 -121 -14 -19 -14 -25 -3 -32 7 -4 10 -11 6
-15 -4 -4 -13 -2 -19 4 -7 7 -22 12 -34 12 -28 0 -64 44 -64 77 0 47 28 83 65
83 11 0 25 -4 31 -8z m142 1 c-27 -4 -28 -6 -28 -74 0 -39 -4 -69 -10 -69 -6
0 -10 30 -10 69 0 68 -1 70 -27 74 -16 2 1 4 37 4 36 0 53 -2 38 -4z m130 0
c-27 -4 -28 -6 -28 -73 0 -38 -4 -72 -10 -75 -6 -4 -10 21 -10 69 0 74 0 75
-27 79 -16 2 1 4 37 4 36 0 53 -2 38 -4z m1892 3 c0 -3 -4 -8 -10 -11 -5 -3
-10 -1 -10 4 0 6 5 11 10 11 6 0 10 -2 10 -4z m-3110 -21 c0 -8 6 -15 13 -16
10 0 10 -2 0 -6 -8 -3 -13 -23 -13 -48 0 -26 5 -45 13 -48 6 -2 9 -7 6 -11 -3
-3 -14 -4 -23 0 -12 4 -16 19 -16 55 0 32 -4 49 -12 50 -10 0 -10 2 0 6 6 2
12 11 12 19 0 8 5 14 10 14 6 0 10 -7 10 -15z m2550 0 c0 -8 6 -15 13 -16 10
0 10 -2 0 -6 -8 -3 -13 -23 -13 -48 0 -26 5 -45 13 -48 6 -2 9 -8 5 -12 -16
-17 -38 18 -38 61 0 28 -5 44 -12 45 -10 0 -10 2 0 6 6 2 12 11 12 19 0 8 5
14 10 14 6 0 10 -7 10 -15z m490 0 c0 -8 6 -15 13 -16 10 0 10 -2 0 -6 -8 -3
-13 -23 -13 -48 0 -26 5 -45 13 -48 6 -2 9 -8 5 -12 -16 -17 -38 18 -38 61 0
28 -5 44 -12 45 -10 0 -10 2 0 6 6 2 12 11 12 19 0 8 5 14 10 14 6 0 10 -7 10
-15z m-2916 -31 c39 -39 3 -113 -49 -100 -59 15 -50 116 11 116 12 0 30 -7 38
-16z m111 -26 l18 -43 14 43 c8 23 19 42 24 42 12 0 13 7 -19 -80 -20 -54 -33
-76 -47 -79 -20 -3 -20 -3 0 19 19 21 19 22 -2 81 -25 67 -14 81 12 17z m159
26 c22 -22 20 -67 -4 -89 -16 -15 -26 -17 -48 -9 -22 8 -28 16 -30 47 -2 21 2
45 9 53 15 19 54 18 73 -2z m56 -34 c0 -47 2 -50 25 -50 23 0 25 3 25 50 0 28
5 50 10 50 6 0 10 -24 10 -54 0 -52 -1 -55 -30 -61 -44 -10 -60 8 -60 66 0 27
5 49 10 49 6 0 10 -22 10 -50z m155 40 c-3 -5 -13 -10 -21 -10 -10 0 -14 -12
-14 -45 0 -25 -4 -45 -10 -45 -5 0 -10 25 -10 55 0 55 0 55 31 55 17 0 28 -4
24 -10z m783 -47 c3 -50 2 -51 -29 -58 -23 -5 -36 -3 -47 9 -22 22 -5 50 32
54 19 2 26 9 24 19 -4 23 -23 27 -41 9 -18 -18 -32 -8 -15 11 6 8 25 13 42 11
30 -3 31 -5 34 -55z m114 44 c11 -18 10 -97 -2 -97 -5 0 -10 20 -10 44 0 48
-8 60 -34 50 -11 -4 -16 -19 -16 -50 0 -24 -4 -44 -10 -44 -5 0 -10 24 -10 53
l0 54 37 1 c20 1 41 -4 45 -11z m407 -1 c7 -8 11 -32 9 -53 -2 -31 -8 -39 -30
-47 -50 -18 -86 41 -58 95 13 23 62 26 79 5z m191 -6 c13 -24 13 -90 0 -90 -5
0 -10 20 -10 44 0 79 -56 66 -63 -14 l-4 -45 -1 46 c-3 84 -62 91 -62 8 0 -22
-4 -39 -10 -39 -5 0 -10 24 -10 53 l0 54 75 1 c63 0 77 -3 85 -18z m108 8 c7
-7 12 -20 12 -30 0 -14 -8 -18 -40 -18 -22 0 -40 -4 -40 -9 0 -18 30 -33 55
-27 27 7 35 -8 9 -18 -42 -16 -74 9 -74 58 0 37 15 56 45 56 12 0 26 -5 33
-12z m170 -45 c3 -50 2 -51 -29 -58 -23 -5 -36 -3 -47 9 -22 22 -5 50 32 54
19 2 26 9 24 19 -4 23 -23 27 -41 9 -18 -18 -32 -8 -15 11 6 8 25 13 42 11 30
-3 31 -5 34 -55z m52 7 c0 -47 2 -50 25 -50 23 0 25 3 25 50 0 28 5 50 10 50
6 0 10 -24 10 -54 0 -52 -1 -55 -30 -61 -44 -10 -60 8 -60 66 0 27 5 49 10 49
6 0 10 -22 10 -50z m248 38 c17 -17 15 -68 -5 -90 -34 -38 -83 -11 -83 46 0
39 15 56 50 56 14 0 31 -5 38 -12z m192 -8 c13 -24 13 -90 0 -90 -5 0 -10 20
-10 44 0 47 -12 60 -42 44 -13 -6 -18 -21 -18 -55 0 -25 -3 -43 -7 -39 -4 4
-6 21 -5 39 2 18 -3 41 -11 52 -22 29 -47 4 -47 -46 0 -22 -4 -39 -10 -39 -5
0 -10 24 -10 53 l0 54 75 1 c63 0 77 -3 85 -18z m108 8 c7 -7 12 -31 12 -54 0
-38 -2 -42 -30 -47 -40 -9 -60 1 -60 28 0 23 17 35 51 35 10 0 19 6 19 14 0
22 -31 28 -51 10 -11 -10 -19 -13 -19 -8 0 17 23 34 45 34 12 0 26 -5 33 -12z
m119 -70 c-2 -18 -4 -6 -4 27 0 33 2 48 4 33 2 -15 2 -42 0 -60z m117 66 c22
-22 20 -67 -4 -89 -16 -15 -26 -17 -48 -9 -22 8 -28 16 -30 47 -2 21 2 45 9
53 15 19 54 18 73 -2z m124 -41 c2 -32 -1 -53 -7 -53 -6 0 -11 20 -11 44 0 25
-5 48 -10 51 -20 12 -40 -17 -40 -56 0 -22 -4 -39 -10 -39 -5 0 -10 24 -10 54
l0 54 43 -2 42 -1 3 -52z m-1420 -224 l-3 -74 -40 0 c-34 0 -41 4 -49 28 -16
44 3 81 42 85 27 3 32 7 32 30 0 18 3 23 10 16 6 -6 10 -43 8 -85z m297 36
c30 0 30 0 31 -60 1 -44 0 -48 -3 -15 -5 56 -18 73 -44 59 -14 -7 -19 -21 -19
-55 0 -28 -4 -43 -10 -39 -12 7 -14 148 -2 159 4 4 9 -5 12 -21 4 -23 10 -28
35 -28z m85 27 c0 -26 3 -28 28 -24 25 3 31 -1 42 -28 20 -48 -2 -84 -53 -87
l-37 -1 0 84 c0 49 4 84 10 84 6 0 10 -13 10 -28z m490 -56 l0 -83 -37 1 c-31
1 -39 5 -47 29 -16 44 3 81 42 85 26 3 32 7 32 28 0 13 2 24 5 24 3 0 5 -38 5
-84z m-1060 49 c0 -8 6 -15 13 -16 10 0 10 -2 0 -6 -8 -3 -13 -23 -13 -48 0
-26 5 -45 13 -48 6 -2 9 -8 5 -12 -4 -4 -14 -5 -23 -2 -11 5 -15 21 -15 57 0
33 -4 50 -12 51 -10 0 -10 2 0 6 6 2 12 11 12 19 0 8 5 14 10 14 6 0 10 -7 10
-15z m-1050 -35 c13 -24 13 -87 0 -95 -6 -4 -10 13 -10 44 0 52 -11 65 -42 49
-13 -6 -18 -21 -18 -55 0 -25 -3 -43 -7 -39 -4 4 -6 21 -5 39 2 18 -3 41 -11
52 -23 30 -47 4 -47 -51 0 -24 -4 -44 -10 -44 -6 0 -10 26 -10 58 l0 59 75 1
c63 0 77 -3 85 -18z m108 8 c7 -7 12 -33 12 -58 l0 -46 -42 1 c-38 0 -43 3
-46 24 -4 26 12 41 46 41 23 0 32 29 10 31 -18 2 -21 1 -43 -7 -18 -7 -18 -6
-6 9 16 20 52 22 69 5z m118 1 c16 -13 19 -95 4 -104 -6 -4 -10 13 -10 43 0
83 -49 79 -61 -5 l-6 -48 -2 60 -1 61 31 2 c17 1 38 -3 45 -9z m112 -1 c7 -7
12 -33 12 -58 0 -49 -10 -55 -67 -44 -43 8 -22 64 24 64 24 0 34 29 11 31 -18
2 -21 1 -43 -7 -18 -7 -18 -6 -6 9 16 20 52 22 69 5z m132 -50 c0 -87 -21
-113 -74 -92 -27 10 -18 22 15 20 18 0 34 4 36 9 2 6 -9 11 -24 10 -40 0 -61
41 -44 84 12 27 17 31 52 29 l39 -1 0 -59z m110 36 c14 -35 15 -34 -31 -34
-33 0 -40 -3 -37 -17 2 -13 13 -18 36 -18 36 0 38 -18 3 -23 -31 -5 -61 25
-61 59 0 57 71 83 90 33z m178 14 c14 -12 17 -108 2 -108 -5 0 -10 22 -10 49
0 31 -5 51 -12 54 -27 9 -38 -6 -38 -48 0 -24 -4 -47 -10 -50 -6 -4 -10 13
-10 43 0 83 -49 79 -61 -5 l-6 -48 -2 61 -1 60 68 1 c37 1 73 -3 80 -9z m116
-10 c23 -33 20 -38 -25 -38 -33 0 -40 -3 -37 -17 2 -13 13 -18 36 -18 38 0 42
-12 7 -21 -49 -12 -82 46 -55 97 14 26 55 24 74 -3z m115 3 c14 -25 14 -88 1
-96 -6 -4 -10 13 -10 44 0 52 -11 65 -42 49 -13 -6 -18 -21 -18 -54 0 -25 -3
-43 -7 -41 -5 3 -7 29 -5 59 4 53 4 54 37 56 25 2 37 -3 44 -17z m349 7 c7 -7
12 -33 12 -58 l0 -46 -42 1 c-38 0 -43 3 -46 24 -4 26 12 41 46 41 12 0 22 6
22 14 0 18 -30 30 -44 16 -16 -16 -30 -12 -16 5 15 18 51 20 68 3z m117 1 c10
-16 -3 -23 -18 -10 -17 13 -50 4 -44 -13 2 -6 12 -13 23 -15 63 -11 58 -71 -6
-71 -21 0 -46 27 -35 38 4 4 10 1 12 -5 7 -19 53 -16 53 2 0 8 -6 15 -14 15
-8 0 -24 8 -37 19 -20 16 -21 21 -10 35 15 18 66 22 76 5z m347 -6 c35 -32 10
-103 -37 -103 -25 0 -55 33 -55 60 0 26 30 60 52 60 12 0 30 -7 40 -17z m112
5 c3 -7 7 -34 10 -59 l5 -46 -41 1 c-26 1 -45 7 -51 18 -15 23 8 48 44 48 32
0 37 11 14 30 -12 10 -18 10 -30 0 -17 -14 -31 -8 -20 9 9 15 65 14 69 -1z
m96 2 c0 -4 -9 -10 -20 -13 -16 -4 -20 -14 -20 -52 0 -28 -4 -44 -10 -40 -5 3
-10 30 -10 59 0 52 1 53 30 54 17 0 30 -3 30 -8z m150 -100 c0 -5 -2 -10 -4
-10 -3 0 -8 5 -11 10 -3 6 -1 10 4 10 6 0 11 -4 11 -10z m-1397 -4232 c26 -6
47 -14 47 -17 0 -3 -21 -28 -47 -55 l-48 -49 -11 39 c-6 22 -15 55 -19 73 -6
30 -5 33 11 27 11 -4 40 -12 67 -18z m715 -690 c7 -7 12 -25 12 -42 0 -59 -59
-87 -100 -46 -24 24 -25 48 -4 78 17 25 71 31 92 10z m701 -793 l-45 -46 -42
39 c-23 21 -42 45 -42 52 0 7 18 31 41 53 l41 40 46 -46 47 -47 -46 -45z"/>
<path d="M1610 7710 c-11 -11 -20 -29 -20 -40 0 -17 7 -20 45 -20 50 0 58 16
29 58 -19 27 -28 28 -54 2z"/>
<path d="M2181 7704 c-16 -21 -21 -41 -21 -88 0 -71 18 -106 55 -106 37 0 55
35 55 106 0 63 -24 114 -55 114 -7 0 -23 -12 -34 -26z"/>
<path d="M2831 7704 c-33 -42 -27 -54 24 -54 39 0 45 3 45 21 0 28 -18 59 -35
59 -7 0 -23 -12 -34 -26z"/>
<path d="M2021 7266 c-7 -8 -11 -27 -9 -43 2 -22 8 -28 28 -28 21 0 26 5 28
34 5 45 -23 66 -47 37z"/>
<path d="M1352 7304 c-41 -28 -23 -114 23 -114 47 0 62 88 20 116 -18 12 -24
11 -43 -2z"/>
<path d="M526 7264 c-31 -30 -14 -78 25 -72 18 2 25 10 27 31 3 27 -12 57 -29
57 -4 0 -15 -7 -23 -16z"/>
<path d="M795 7264 c-30 -31 0 -86 39 -71 28 11 15 87 -15 87 -4 0 -15 -7 -24
-16z"/>
<path d="M1793 7223 c-23 -9 -14 -33 12 -33 18 0 25 5 25 20 0 19 -12 24 -37
13z"/>
<path d="M2311 7266 c-20 -24 -10 -70 16 -74 38 -6 53 57 19 80 -16 11 -22 10
-35 -6z"/>
<path d="M2614 7263 c-17 -17 -16 -18 15 -21 40 -4 48 2 31 23 -16 19 -25 19
-46 -2z"/>
<path d="M2783 7223 c-23 -9 -14 -33 12 -33 18 0 25 5 25 20 0 19 -12 24 -37
13z"/>
<path d="M3084 7272 c-34 -23 -19 -86 19 -80 26 4 36 50 16 74 -13 16 -19 17
-35 6z"/>
<path d="M3380 7215 c-10 -12 -9 -16 4 -21 22 -8 46 2 46 21 0 19 -34 20 -50
0z"/>
<path d="M3615 7264 c-30 -31 0 -86 39 -71 28 11 15 87 -15 87 -4 0 -15 -7
-24 -16z"/>
<path d="M2310 7025 c-6 -7 -10 -26 -8 -42 2 -22 8 -28 28 -28 21 0 26 5 28
32 4 38 -27 63 -48 38z"/>
<path d="M2771 7031 c-7 -5 -11 -22 -9 -42 2 -29 7 -34 28 -34 21 0 26 5 28
32 3 34 -23 59 -47 44z"/>
<path d="M3191 7031 c-7 -5 -11 -22 -9 -42 2 -29 7 -34 28 -34 21 0 26 5 28
32 3 34 -23 59 -47 44z"/>
<path d="M1190 6975 c-10 -12 -9 -16 4 -21 22 -8 46 2 46 21 0 19 -34 20 -50
0z"/>
<path d="M1433 6983 c-7 -2 -13 -11 -13 -20 0 -21 44 -13 48 10 3 17 -10 21
-35 10z"/>
<path d="M1547 7028 c-32 -18 -16 -83 19 -76 14 2 20 13 22 39 3 40 -12 54
-41 37z"/>
<path d="M1662 7028 c-19 -19 -14 -28 18 -28 17 0 30 4 30 8 0 9 -21 32 -30
32 -3 0 -11 -5 -18 -12z"/>
<path d="M1962 7028 c-19 -19 -14 -28 18 -28 17 0 30 4 30 8 0 9 -21 32 -30
32 -3 0 -11 -5 -18 -12z"/>
<path d="M2420 6975 c-10 -12 -9 -16 4 -21 22 -8 46 2 46 21 0 19 -34 20 -50
0z"/>
<path d="M2887 7029 c-35 -20 -16 -83 24 -77 19 2 25 10 27 35 4 37 -22 58
-51 42z"/>
<path d="M3003 6983 c-7 -2 -13 -11 -13 -19 0 -22 54 -14 58 9 3 17 -17 22
-45 10z"/>
<path d="M3992 4807 l-112 -112 80 -80 80 -80 115 115 c63 63 115 121 115 128
0 23 -121 142 -144 142 -14 0 -62 -40 -134 -113z m146 -124 l-98 -98 -55 55
-55 54 97 98 98 98 55 -55 55 -55 -97 -97z"/>
<path d="M4094 4719 c-10 -17 13 -36 27 -22 12 12 4 33 -11 33 -5 0 -12 -5
-16 -11z"/>
<path d="M3445 4650 c-28 -29 -28 -30 -10 -50 21 -23 35 -19 15 5 -17 21 -4
32 20 17 22 -13 27 -3 8 16 -6 6 -9 15 -5 19 4 4 13 1 19 -5 19 -19 30 -14 18
8 -15 28 -31 25 -65 -10z"/>
<path d="M3487 4592 c-24 -26 -21 -39 3 -17 14 13 24 15 31 8 7 -7 5 -14 -6
-23 -8 -7 -15 -17 -15 -23 0 -5 9 -2 20 8 24 22 26 51 4 59 -21 8 -19 9 -37
-12z"/>
<path d="M3545 4553 c-27 -30 -30 -39 -15 -48 6 -3 10 1 10 10 0 9 9 19 20 22
11 3 20 14 20 24 0 25 -5 24 -35 -8z"/>
<path d="M3567 4512 c-24 -26 -21 -39 3 -17 20 18 21 18 41 -2 l21 -21 -26 5
c-34 7 -34 -13 1 -49 25 -26 28 -27 45 -11 23 20 36 9 20 -17 -18 -29 -15 -35
8 -15 25 22 26 44 3 61 -15 11 -22 9 -43 -9 -23 -20 -24 -20 -7 -1 23 27 22
34 -8 67 -30 32 -37 33 -58 9z m48 -52 c3 -5 1 -10 -4 -10 -6 0 -11 5 -11 10
0 6 2 10 4 10 3 0 8 -4 11 -10z"/>
<path d="M3690 4385 c-16 -19 -6 -45 20 -52 11 -3 20 -13 20 -23 0 -10 7 -21
16 -24 25 -10 30 2 8 19 -10 8 -14 15 -8 15 5 0 15 -5 22 -12 16 -16 35 3 26
26 -5 14 -15 17 -38 13 -38 -5 -56 0 -56 19 0 17 27 19 33 2 2 -7 8 -10 12 -6
10 9 -13 38 -30 38 -7 0 -18 -7 -25 -15z"/>
<path d="M3807 4273 c-14 -13 -7 -48 12 -60 16 -10 23 -6 52 24 28 29 30 34
12 29 -12 -4 -24 -2 -28 4 -7 11 -38 14 -48 3z m43 -29 c0 -14 -21 -19 -33 -7
-9 9 13 34 24 27 5 -3 9 -12 9 -20z"/>
<path d="M3860 4215 c-16 -19 -6 -45 19 -52 11 -3 22 -16 25 -29 8 -28 53 -34
63 -8 9 23 -10 49 -35 48 -13 0 -18 4 -15 13 6 16 -14 43 -32 43 -7 0 -18 -7
-25 -15z m43 -12 c9 -9 -13 -34 -24 -27 -14 8 -11 34 4 34 8 0 17 -3 20 -7z
m50 -50 c9 -9 -13 -34 -24 -27 -14 8 -11 34 4 34 8 0 17 -3 20 -7z"/>
<path d="M3967 4112 c-23 -25 -21 -39 2 -18 11 10 25 14 37 9 17 -6 17 -5 5
10 -17 22 -24 21 -44 -1z"/>
<path d="M3205 4000 c-3 -6 1 -7 9 -4 18 7 21 14 7 14 -6 0 -13 -4 -16 -10z"/>
<path d="M3352 3905 c0 -16 2 -22 5 -12 2 9 2 23 0 30 -3 6 -5 -1 -5 -18z"/>
<path d="M3120 3890 c0 -5 5 -10 10 -10 6 0 10 5 10 10 0 6 -4 10 -10 10 -5 0
-10 -4 -10 -10z"/>
<path d="M3175 3841 c-3 -5 -2 -12 3 -15 5 -3 9 1 9 9 0 17 -3 19 -12 6z"/>
<path d="M3040 3810 c0 -5 5 -10 10 -10 6 0 10 5 10 10 0 6 -4 10 -10 10 -5 0
-10 -4 -10 -10z"/>
<path d="M3235 3780 c-3 -5 -1 -10 4 -10 6 0 11 5 11 10 0 6 -2 10 -4 10 -3 0
-8 -4 -11 -10z"/>
<path d="M3160 3769 c0 -5 5 -7 10 -4 6 3 10 8 10 11 0 2 -4 4 -10 4 -5 0 -10
-5 -10 -11z"/>
<path d="M3095 3761 c-3 -5 -2 -12 3 -15 5 -3 9 1 9 9 0 17 -3 19 -12 6z"/>
<path d="M3216 3708 c3 -5 10 -6 15 -3 13 9 11 12 -6 12 -8 0 -12 -4 -9 -9z"/>
<path d="M2735 3680 c-4 -6 -4 -24 0 -40 7 -34 -13 -43 -22 -10 -3 11 -9 17
-14 14 -15 -9 10 -44 31 -44 23 0 30 18 19 48 -6 16 -5 22 6 22 8 0 15 -7 15
-16 0 -8 5 -12 10 -9 7 4 7 13 0 26 -12 21 -35 25 -45 9z"/>
<path d="M2765 3610 c-30 -32 -28 -55 3 -27 10 10 22 17 25 17 13 0 7 -23 -10
-42 -17 -19 -5 -26 14 -7 9 9 10 6 6 -11 -4 -16 0 -27 12 -36 16 -12 22 -11
38 4 22 19 22 20 0 -35 -5 -13 -2 -15 16 -10 18 4 21 2 16 -14 -7 -22 6 -24
38 -8 18 9 20 9 10 -2 -16 -16 -17 -45 -3 -54 15 -9 47 3 54 20 7 19 -45 68
-58 55 -17 -17 -27 -11 -16 9 10 21 -3 40 -15 21 -11 -18 -27 -11 -17 7 9 16
7 21 -26 58 -7 8 -20 11 -28 8 -13 -5 -15 -1 -10 15 4 11 2 23 -3 26 -6 4 -8
13 -4 21 9 24 -11 17 -42 -15z m85 -74 c0 -20 -19 -31 -32 -18 -6 6 -7 15 -4
21 10 16 36 13 36 -3z m120 -116 c0 -5 -2 -10 -4 -10 -3 0 -8 5 -11 10 -3 6
-1 10 4 10 6 0 11 -4 11 -10z m-14 -27 c-7 -7 -26 7 -26 19 0 6 6 6 15 -2 9
-7 13 -15 11 -17z"/>
<path d="M1790 3494 c0 -12 111 -117 117 -110 4 3 -18 31 -47 61 -50 50 -70
65 -70 49z"/>
<path d="M1760 3464 c0 -13 108 -119 114 -113 3 3 -21 32 -54 64 -33 33 -60
55 -60 49z"/>
<path d="M1730 3429 c0 -19 106 -124 113 -112 3 5 -21 36 -53 68 -34 34 -60
53 -60 44z"/>
<path d="M2977 3382 c-23 -25 -21 -39 2 -18 10 9 25 14 35 10 9 -3 16 -2 16 4
0 5 -7 13 -16 16 -21 8 -19 9 -37 -12z"/>
<path d="M4208 3233 c6 -2 18 -2 25 0 6 3 1 5 -13 5 -14 0 -19 -2 -12 -5z"/>
<path d="M4169 3213 c-13 -16 -12 -17 4 -4 16 13 21 21 13 21 -2 0 -10 -8 -17
-17z"/>
<path d="M4268 3183 c5 -21 7 -23 10 -9 2 10 0 22 -6 28 -6 6 -7 0 -4 -19z"/>
<path d="M2460 3157 c0 -29 18 -47 47 -47 28 0 31 26 3 33 -11 3 -20 12 -20
21 0 9 -7 16 -15 16 -9 0 -15 -9 -15 -23z"/>
<path d="M4249 3133 c-13 -16 -12 -17 4 -4 9 7 17 15 17 17 0 8 -8 3 -21 -13z"/>
<path d="M3006 2735 c-83 -29 -148 -103 -166 -188 -40 -196 151 -359 341 -292
50 18 112 74 139 125 103 199 -102 431 -314 355z m74 -210 c12 -14 15 -14 31
1 24 22 37 10 16 -14 -15 -17 -15 -19 0 -35 22 -22 8 -35 -15 -14 -18 16 -20
16 -37 -3 -10 -11 -22 -17 -27 -14 -5 3 -2 14 6 23 20 22 20 30 -1 53 -14 16
-14 18 -1 18 9 0 21 -7 28 -15z"/>
<path d="M3712 1576 c-18 -7 -50 -29 -70 -49 l-36 -37 44 -45 c24 -25 49 -45
55 -45 19 0 75 65 75 87 0 12 5 25 10 28 15 9 12 42 -6 59 -18 18 -26 18 -72
2z m67 -19 c8 -10 7 -18 -2 -31 -11 -16 -14 -15 -36 5 -18 17 -20 23 -9 30 19
12 34 11 47 -4z m-46 -45 l37 -38 -33 -32 -33 -32 -39 40 -39 40 29 30 c16 16
31 30 35 30 3 0 23 -17 43 -38z"/>
<path d="M3680 1485 c0 -8 7 -15 15 -15 8 0 15 7 15 15 0 8 -7 15 -15 15 -8 0
-15 -7 -15 -15z"/>
<path d="M4050 1225 c30 -30 59 -55 64 -55 6 0 -14 25 -44 55 -30 30 -59 55
-64 55 -6 0 14 -25 44 -55z"/>
<path d="M3970 1242 c0 -14 109 -116 117 -109 4 4 -18 32 -47 62 -52 52 -70
65 -70 47z"/>
<path d="M3940 1214 c0 -13 48 -59 55 -52 3 2 -9 17 -25 33 -17 16 -30 24 -30
19z"/>
</g>
</svg>
