<?xml version="1.0" standalone="no"?>
<!DOCTYPE svg PUBLIC "-//W3C//DTD SVG 20010904//EN"
 "http://www.w3.org/TR/2001/REC-SVG-20010904/DTD/svg10.dtd">
<svg version="1.0" xmlns="http://www.w3.org/2000/svg"
 width="411.000000pt" height="822.000000pt" viewBox="0 0 411.000000 822.000000"
 preserveAspectRatio="xMidYMid meet">

<g transform="translate(0.000000,822.000000) scale(0.100000,-0.100000)"
fill="#000000" stroke="none">
<path d="M0 4110 l0 -4110 2055 0 2055 0 0 4110 0 4110 -2055 0 -2055 0 0
-4110z m1628 3476 c15 -8 528 -516 1140 -1128 l1112 -1113 0 -48 c0 -26 -6
-60 -14 -75 -8 -15 -879 -891 -1935 -1947 l-1921 -1920 0 659 0 660 22 23 c22
24 12 33 -11 11 -11 -11 -11 -9 0 9 11 18 11 25 1 35 -9 9 -12 378 -12 1682
l0 1670 728 729 c400 400 743 737 762 747 42 23 91 25 128 6z"/>
<path d="M1593 7495 c-3 -9 -3 -19 1 -22 3 -4 6 1 6 10 0 10 7 17 15 17 18 0
20 -21 3 -40 -7 -8 -4 -7 6 2 21 18 15 48 -9 48 -9 0 -18 -7 -22 -15z"/>
<path d="M1657 7422 c-10 -10 -17 -23 -17 -28 0 -4 7 2 16 14 16 23 44 30 44
10 0 -6 -8 -21 -17 -32 -16 -19 -15 -19 6 1 15 13 21 28 18 37 -8 21 -30 20
-50 -2z"/>
<path d="M1704 7368 c-19 -23 -19 -23 2 -5 25 20 44 22 44 3 0 -16 -18 -32
-45 -39 -19 -4 -19 -5 1 -6 26 -1 58 33 51 54 -9 22 -31 19 -53 -7z"/>
<path d="M1351 7116 c-55 -55 -79 -86 -71 -91 7 -4 27 8 51 31 l39 38 40 -39
c22 -21 40 -44 40 -50 0 -6 -16 -26 -35 -45 -24 -23 -32 -37 -25 -44 7 -7 38
17 95 74 56 55 81 88 75 94 -7 7 -21 -1 -43 -22 -18 -18 -36 -32 -40 -32 -3 0
-24 19 -46 43 l-40 42 35 36 c30 31 35 49 15 49 -4 0 -44 -38 -90 -84z"/>
<path d="M1508 6955 c-63 -35 -67 -120 -7 -150 42 -22 67 -18 100 14 36 36 38
79 7 115 -29 32 -66 40 -100 21z m74 -32 c37 -33 7 -103 -45 -103 -32 0 -47
18 -47 56 0 53 54 81 92 47z"/>
<path d="M1160 6946 c0 -2 9 -6 20 -9 11 -3 18 -1 14 4 -5 9 -34 13 -34 5z"/>
<path d="M1125 6909 c-4 -6 -5 -12 -2 -15 2 -3 7 2 10 11 7 17 1 20 -8 4z"/>
<path d="M1225 6862 c3 -3 -3 -15 -12 -26 -13 -15 -10 -14 10 3 32 29 31 28
12 28 -8 0 -13 -3 -10 -5z"/>
<path d="M1621 6796 c-65 -66 -61 -97 5 -36 45 41 71 49 92 28 21 -21 13 -41
-29 -84 -56 -57 -42 -78 17 -24 45 41 71 49 92 28 20 -20 14 -36 -30 -84 -27
-30 -38 -48 -31 -55 14 -14 103 84 103 114 0 29 -29 57 -58 57 -16 0 -22 6
-22 23 0 27 -28 57 -53 57 -10 0 -14 5 -11 15 13 32 -24 13 -75 -39z"/>
<path d="M1244 6808 l-19 -23 23 19 c21 18 27 26 19 26 -2 0 -12 -10 -23 -22z"/>
<path d="M1285 6770 c-3 -5 -1 -10 4 -10 6 0 11 5 11 10 0 6 -2 10 -4 10 -3 0
-8 -4 -11 -10z"/>
<path d="M1326 6743 c-6 -14 -5 -15 5 -6 7 7 10 15 7 18 -3 3 -9 -2 -12 -12z"/>
<path d="M1416 6651 c-4 -5 -2 -12 3 -15 5 -4 12 -2 15 3 4 5 2 12 -3 15 -5 4
-12 2 -15 -3z"/>
<path d="M1854 6620 c-43 -17 -66 -77 -48 -125 7 -18 54 -45 79 -45 27 0 16
27 -14 33 -38 8 -56 39 -40 68 11 21 13 20 59 -26 l48 -47 16 23 c22 32 20 63
-6 93 -26 29 -63 39 -94 26z m68 -37 c18 -17 24 -48 10 -57 -10 -6 -74 59 -65
67 11 12 36 7 55 -10z"/>
<path d="M1465 6589 c-4 -6 -5 -12 -2 -15 2 -3 7 2 10 11 7 17 1 20 -8 4z"/>
<path d="M1604 6468 l-29 -33 33 29 c17 17 32 31 32 33 0 8 -8 1 -36 -29z"/>
<path d="M1646 6411 c-4 -5 3 -7 14 -4 23 6 26 13 6 13 -8 0 -17 -4 -20 -9z"/>
<path d="M1755 6332 c3 -3 -3 -15 -12 -26 -13 -15 -10 -14 10 3 32 29 31 28
12 28 -8 0 -13 -3 -10 -5z"/>
<path d="M1854 6198 l-19 -23 23 19 c12 11 22 21 22 23 0 8 -8 2 -26 -19z"/>
<path d="M1435 5870 l-49 -50 26 -27 c15 -15 31 -23 35 -19 4 4 -2 15 -15 24
l-22 17 45 45 c43 42 54 60 37 60 -4 0 -30 -23 -57 -50z"/>
<path d="M1550 5840 c0 -5 5 -10 10 -10 6 0 10 5 10 10 0 6 -4 10 -10 10 -5 0
-10 -4 -10 -10z"/>
<path d="M1490 5778 c-42 -45 -27 -49 18 -5 20 20 31 37 24 37 -7 0 -26 -14
-42 -32z"/>
<path d="M1532 5743 c-11 -27 -17 -49 -11 -51 15 -6 99 30 93 39 -3 5 -19 2
-35 -7 -38 -19 -42 -16 -28 25 18 51 4 46 -19 -6z"/>
<path d="M650 5675 l-105 -105 70 -70 c38 -38 73 -70 78 -70 15 0 207 203 207
218 0 19 -112 132 -131 132 -8 0 -61 -47 -119 -105z m130 -120 l-90 -90 -52
53 -53 52 90 90 89 90 53 -52 53 -53 -90 -90z"/>
<path d="M736 5591 c-3 -5 1 -14 8 -20 16 -13 32 2 21 19 -8 12 -22 13 -29 1z"/>
<path d="M1655 5730 c4 -6 11 -8 16 -5 14 9 11 15 -7 15 -8 0 -12 -5 -9 -10z"/>
<path d="M1600 5675 c-19 -19 -29 -35 -24 -35 13 0 69 58 63 65 -3 2 -21 -11
-39 -30z"/>
<path d="M1631 5646 c-40 -41 -40 -56 0 -22 36 30 42 31 59 11 11 -13 9 -20
-13 -43 -37 -39 -34 -52 3 -17 28 27 41 75 21 75 -5 0 -16 6 -24 14 -12 13
-18 11 -46 -18z"/>
<path d="M3499 5573 l-24 -28 28 24 c25 23 32 31 24 31 -2 0 -14 -12 -28 -27z"/>
<path d="M1706 5571 c-23 -26 -17 -63 14 -78 21 -10 22 -13 7 -19 -24 -9 -46
2 -57 28 -8 22 -9 22 -9 2 -1 -22 27 -54 48 -54 6 0 31 18 56 41 36 33 42 44
32 55 -7 7 -18 20 -25 29 -17 21 -45 19 -66 -4z m68 -16 c12 -31 -27 -67 -54
-50 -11 7 -14 48 -3 58 12 13 51 7 57 -8z"/>
<path d="M135 5530 l-29 -30 26 -26 c22 -23 28 -24 46 -13 28 18 40 4 17 -21
-10 -11 -14 -20 -8 -20 5 0 18 9 28 20 18 20 18 21 -2 40 -21 19 -21 19 -39
-1 -17 -19 -17 -19 -32 2 -17 25 -9 37 13 19 14 -12 15 -10 9 16 -7 26 -6 28
10 15 21 -17 33 -7 16 14 -17 21 -22 19 -55 -15z"/>
<path d="M1827 5452 c-34 -35 -36 -54 -3 -23 18 17 32 22 50 17 15 -4 26 -2
26 4 0 5 -7 10 -15 10 -8 0 -15 5 -15 10 0 17 -15 11 -43 -18z"/>
<path d="M232 5440 c-25 -27 -27 -36 -9 -54 10 -12 15 -12 29 1 9 8 22 12 27
8 16 -9 13 -25 -4 -25 -8 0 -15 -9 -15 -19 0 -35 52 -37 65 -3 4 12 -5 27 -29
49 -19 17 -36 40 -38 50 -3 15 -6 15 -26 -7z m17 -36 c-6 -7 -15 -11 -21 -8
-5 3 -4 12 3 20 6 7 15 11 21 8 5 -3 4 -12 -3 -20z m46 -54 c3 -5 1 -10 -4
-10 -6 0 -11 5 -11 10 0 6 2 10 4 10 3 0 8 -4 11 -10z"/>
<path d="M3615 5400 c16 -16 32 -30 37 -30 4 0 22 14 40 30 l31 30 -68 0 -69
0 29 -30z"/>
<path d="M1864 5395 c-15 -23 -15 -27 0 -50 20 -30 56 -33 79 -7 21 23 22 46
1 66 -24 24 -61 20 -80 -9z m69 -7 c17 -26 1 -50 -30 -46 -34 4 -43 36 -17 55
21 15 34 13 47 -9z"/>
<path d="M3732 5337 l-32 -33 20 -19 c20 -18 21 -18 51 11 31 30 36 67 9 72
-9 1 -30 -12 -48 -31z"/>
<path d="M320 5325 c-25 -27 -21 -32 10 -13 25 16 41 1 17 -16 -21 -16 -22
-30 -1 -22 8 3 13 2 9 -3 -8 -15 6 -41 22 -41 13 0 13 3 3 15 -10 12 -10 19
-1 28 16 16 32 -10 24 -41 -8 -32 13 -55 38 -39 25 15 25 47 0 54 -11 3 -21
13 -24 24 -3 11 -14 19 -26 19 -14 0 -21 6 -21 19 0 10 -6 24 -13 30 -11 8
-19 5 -37 -14z m115 -115 c3 -5 2 -10 -4 -10 -5 0 -13 5 -16 10 -3 6 -2 10 4
10 5 0 13 -4 16 -10z"/>
<path d="M1952 5328 c-7 -7 -12 -24 -12 -38 0 -32 17 -50 45 -50 25 0 55 29
55 53 0 38 -61 62 -88 35z m66 -35 c4 -28 -32 -50 -54 -32 -17 14 -18 31 -2
47 19 19 53 10 56 -15z"/>
<path d="M2030 5235 c-19 -19 -29 -35 -24 -35 6 0 19 9 29 20 20 22 50 26 61
9 3 -6 -6 -24 -22 -40 -37 -38 -22 -51 16 -14 27 26 32 28 46 14 14 -14 13
-19 -10 -46 -35 -42 -33 -53 4 -18 35 33 39 71 11 80 -11 3 -23 15 -26 26 -4
10 -13 19 -21 19 -8 0 -14 5 -14 10 0 18 -16 10 -50 -25z"/>
<path d="M466 5164 c-7 -18 21 -57 34 -49 4 3 11 -7 14 -21 8 -30 42 -30 60
-1 9 14 7 21 -7 32 -11 7 -26 11 -35 8 -12 -4 -10 2 7 20 24 26 17 39 -7 15
-9 -9 -12 -9 -12 0 0 18 -47 14 -54 -4z m44 -8 c0 -8 -4 -17 -9 -21 -12 -7
-24 12 -16 25 9 15 25 12 25 -4z m50 -51 c0 -8 -7 -15 -15 -15 -8 0 -15 7 -15
15 0 8 7 15 15 15 8 0 15 -7 15 -15z"/>
<path d="M3362 5158 c6 -18 28 -21 28 -4 0 9 -7 16 -16 16 -9 0 -14 -5 -12
-12z"/>
<path d="M3330 5126 c0 -9 7 -16 16 -16 17 0 14 22 -4 28 -7 2 -12 -3 -12 -12z"/>
<path d="M3290 5085 c0 -8 7 -15 15 -15 8 0 15 7 15 15 0 8 -7 15 -15 15 -8 0
-15 -7 -15 -15z"/>
<path d="M570 5076 c-27 -33 18 -72 48 -42 13 13 14 20 6 34 -15 23 -38 26
-54 8z m40 -21 c0 -8 -6 -15 -14 -15 -17 0 -28 14 -19 24 12 12 33 6 33 -9z"/>
<path d="M619 5024 c-21 -22 -15 -36 7 -15 5 5 16 11 26 13 13 2 14 5 3 15
-10 9 -18 6 -36 -13z"/>
<path d="M1875 4610 c-3 -5 -12 -7 -19 -4 -23 9 -27 -12 -6 -31 23 -20 26 -45
8 -63 -18 -18 -42 -15 -62 7 -25 27 -41 17 -43 -25 -1 -30 1 -35 15 -29 20 8
21 8 44 6 22 -1 34 -46 18 -66 -7 -8 -21 -15 -31 -15 -24 0 -24 -14 -2 -40 23
-27 43 -25 43 3 0 31 16 45 46 39 28 -5 43 -44 25 -66 -16 -19 5 -32 24 -16 8
6 19 9 24 6 16 -11 25 16 9 28 -27 20 -30 51 -8 71 20 18 21 18 50 -4 31 -23
53 -21 44 3 -3 8 -1 17 5 20 6 4 8 13 5 21 -5 11 -11 12 -25 4 -27 -14 -56 -3
-63 23 -7 28 10 48 40 48 15 0 24 6 24 15 0 8 -7 15 -15 15 -8 0 -15 7 -15 15
0 8 -7 15 -15 15 -8 0 -15 -8 -15 -19 0 -10 -7 -24 -15 -31 -20 -16 -65 -4
-66 18 -2 23 -2 24 6 45 5 12 2 17 -8 17 -9 0 -18 -4 -22 -10z m49 -110 c28
-10 35 -47 14 -68 -39 -39 -100 17 -63 58 21 23 17 23 49 10z"/>
<path d="M422 4541 c-60 -27 -75 -47 -25 -35 35 9 65 -20 53 -52 -19 -50 8
-22 34 35 42 93 37 97 -62 52z m68 4 c0 -2 -5 -16 -12 -30 -11 -24 -12 -24
-30 -8 -18 16 -18 17 4 30 24 13 38 16 38 8z"/>
<path d="M515 4460 c-27 -27 -47 -52 -44 -55 3 -2 30 20 59 50 30 30 50 55 44
55 -5 0 -32 -22 -59 -50z"/>
<path d="M545 4430 c-27 -27 -47 -52 -44 -55 3 -2 27 18 54 45 27 27 47 52 44
55 -3 2 -27 -18 -54 -45z"/>
<path d="M645 4390 c-3 -5 -13 -6 -22 -3 -11 5 -14 3 -9 -6 5 -8 -2 -24 -19
-41 -25 -26 -27 -50 -4 -50 6 0 7 5 4 11 -9 13 33 59 49 53 6 -2 12 7 12 21 2
27 -1 31 -11 15z"/>
<path d="M700 4360 c0 -5 5 -10 10 -10 6 0 10 5 10 10 0 6 -4 10 -10 10 -5 0
-10 -4 -10 -10z"/>
<path d="M1512 4317 c-30 -31 -35 -60 -6 -36 8 6 21 8 30 5 15 -6 15 -8 -1
-26 -28 -31 -2 -23 28 8 28 30 37 53 12 32 -20 -17 -36 -3 -29 26 8 31 4 30
-34 -9z"/>
<path d="M640 4305 c-19 -19 -30 -38 -26 -42 3 -4 23 9 42 29 20 19 32 38 27
41 -6 4 -25 -9 -43 -28z"/>
<path d="M685 4280 c-27 -27 -45 -50 -39 -50 5 0 32 23 59 50 27 28 45 50 39
50 -5 0 -32 -22 -59 -50z"/>
<path d="M697 4242 c-10 -10 -17 -25 -17 -34 0 -17 31 -48 48 -48 20 0 13 17
-8 23 -12 3 -20 14 -20 26 0 28 11 27 40 -4 26 -27 40 -25 40 9 0 45 -52 63
-83 28z m61 -4 c15 -15 16 -41 0 -36 -6 2 -18 14 -26 26 -12 19 -12 22 0 22 8
0 19 -5 26 -12z"/>
<path d="M1562 4248 c-7 -7 -12 -17 -12 -24 0 -15 29 -39 37 -30 4 3 -2 13
-13 21 -10 8 -14 15 -8 15 5 0 15 -5 22 -12 19 -19 40 6 22 27 -15 18 -32 19
-48 3z"/>
<path d="M1606 4199 c-20 -19 -20 -20 0 -40 l20 -20 19 21 c14 16 17 25 9 37
-15 24 -26 24 -48 2z m19 -19 c3 -5 1 -10 -4 -10 -6 0 -11 5 -11 10 0 6 2 10
4 10 3 0 8 -4 11 -10z"/>
<path d="M787 4176 c-3 -8 1 -22 8 -33 19 -24 18 -33 -1 -33 -9 0 -18 9 -21
20 -6 22 -23 27 -23 7 0 -21 37 -50 55 -44 17 7 19 30 5 57 -15 28 6 35 24 8
11 -16 16 -18 16 -7 0 34 -52 54 -63 25z"/>
<path d="M1665 4163 c-27 -30 -30 -39 -15 -48 6 -3 10 1 10 10 0 9 8 19 18 22
10 2 18 13 19 24 2 25 -1 24 -32 -8z"/>
<path d="M1682 4128 c-7 -7 -12 -17 -12 -24 0 -16 29 -39 38 -29 4 4 1 10 -5
12 -7 3 -13 9 -13 15 0 6 6 5 15 -2 22 -19 44 3 25 25 -15 18 -32 19 -48 3z"/>
<path d="M1725 4080 c-22 -25 -12 -39 12 -18 10 9 25 13 33 10 13 -4 13 -3 1
11 -17 22 -24 21 -46 -3z"/>
<path d="M216 3125 c-31 -29 -36 -57 -5 -29 22 19 22 19 14 -5 -7 -22 -5 -23
21 -17 28 7 28 7 11 -12 -16 -17 -16 -23 -5 -41 18 -29 34 -32 53 -11 20 22
13 50 -12 50 -13 0 -15 -2 -5 -8 7 -5 10 -16 6 -25 -7 -18 -24 -23 -24 -7 0 6
5 10 11 10 5 0 7 5 4 10 -4 6 -12 7 -18 4 -7 -4 -2 4 11 18 30 33 28 41 -9 33
-30 -7 -31 -6 -24 24 8 37 5 38 -29 6z"/>
<path d="M315 3000 c-10 -11 -16 -22 -13 -25 3 -3 13 4 23 15 10 11 16 22 13
25 -3 3 -13 -4 -23 -15z"/>
<path d="M336 2981 c-23 -25 -20 -37 4 -16 24 22 36 14 21 -13 -17 -32 -13
-37 8 -13 32 37 -1 78 -33 42z"/>
<path d="M403 2923 c-16 -6 -17 -53 -1 -53 6 0 8 -3 4 -7 -4 -5 -14 1 -23 12
-15 20 -15 20 -11 0 5 -28 36 -31 63 -5 20 19 22 25 12 41 -12 19 -21 22 -44
12z m35 -25 c-7 -19 -38 -22 -38 -4 0 10 9 16 21 16 12 0 19 -5 17 -12z"/>
<path d="M448 2869 c-23 -13 -23 -36 1 -48 23 -13 55 17 45 43 -7 18 -21 20
-46 5z m32 -6 c0 -5 -5 -15 -10 -23 -7 -12 -12 -12 -22 -2 -9 9 -8 12 6 12 9
0 14 5 11 10 -3 6 -1 10 4 10 6 0 11 -3 11 -7z"/>
<path d="M502 2827 c-23 -24 -29 -47 -13 -47 5 0 11 9 14 21 3 12 10 18 15 15
5 -3 12 3 15 14 7 26 -5 25 -31 -3z"/>
<path d="M527 2798 c-19 -10 -23 -43 -7 -53 20 -12 50 6 50 30 0 27 -19 37
-43 23z m29 -24 c-3 -9 -6 -17 -6 -20 0 -2 -7 -1 -15 2 -8 4 -15 10 -15 15 0
4 7 5 17 2 11 -4 14 -3 9 5 -4 7 -2 12 4 12 7 0 9 -7 6 -16z"/>
<path d="M40 2684 c-25 -26 -21 -31 10 -12 27 17 37 2 15 -22 -20 -22 -8 -28
14 -7 11 10 12 8 3 -9 -14 -27 0 -47 29 -42 33 4 34 52 2 56 -13 2 -23 10 -23
18 0 9 -6 22 -14 29 -11 12 -17 10 -36 -11z m83 -50 c9 -10 -4 -34 -19 -34 -8
0 -14 6 -14 13 0 22 19 35 33 21z"/>
<path d="M144 2595 c-3 -8 -3 -19 1 -25 3 -5 2 -10 -4 -10 -5 0 -12 6 -14 13
-3 7 -6 6 -6 -5 -1 -9 8 -20 19 -23 11 -3 20 -11 20 -17 0 -6 9 -3 20 7 11 10
20 23 20 28 0 6 -8 2 -19 -7 -18 -16 -19 -16 -23 9 -5 26 6 35 15 13 4 -8 6
-7 6 3 1 22 -28 33 -35 14z"/>
<path d="M210 2538 c-11 -12 -20 -29 -20 -37 0 -11 5 -9 16 7 8 12 19 20 24
17 13 -8 -1 -44 -23 -60 -32 -23 1 -18 43 6 23 13 27 17 12 13 -21 -5 -23 -3
-18 14 4 11 2 23 -3 26 -6 4 -8 13 -4 21 8 21 -3 18 -27 -7z"/>
</g>
</svg>
