<?xml version="1.0" standalone="no"?>
<!DOCTYPE svg PUBLIC "-//W3C//DTD SVG 20010904//EN"
 "http://www.w3.org/TR/2001/REC-SVG-20010904/DTD/svg10.dtd">
<svg version="1.0" xmlns="http://www.w3.org/2000/svg"
 width="1280.000000pt" height="720.000000pt" viewBox="0 0 1280.000000 720.000000"
 preserveAspectRatio="xMidYMid meet">

<g transform="translate(0.000000,720.000000) scale(0.100000,-0.100000)"
fill="#000000" stroke="none">
<path d="M4105 6725 c-185 -47 -320 -91 -460 -150 -93 -38 -351 -167 -418
-208 l-39 -24 79 -22 c43 -13 103 -31 133 -41 66 -22 271 -85 320 -98 31 -9
459 -141 718 -223 51 -16 99 -29 107 -29 16 0 21 -19 -97 375 -142 477 -138
465 -156 465 -10 -1 -93 -21 -187 -45z"/>
<path d="M6155 6600 c3 -6 26 -15 51 -21 24 -6 44 -16 44 -21 0 -5 9 -6 20 -3
11 3 20 2 20 -4 0 -5 14 -12 30 -16 17 -4 28 -11 24 -16 -3 -5 0 -9 5 -9 6 0
11 5 11 11 0 5 5 7 10 4 6 -4 8 -10 5 -15 -6 -10 24 -22 37 -14 12 8 80 -13
126 -38 18 -10 37 -16 41 -13 5 2 34 -5 66 -16 31 -11 59 -18 62 -15 3 2 -10
9 -29 14 -18 6 -70 24 -115 41 -46 17 -83 27 -83 23 0 -4 -4 -2 -8 4 -6 9
-296 114 -316 114 -4 0 -4 -5 -1 -10z"/>
<path d="M6480 6456 c0 -2 7 -7 16 -10 8 -3 12 -2 9 4 -6 10 -25 14 -25 6z"/>
<path d="M6290 6431 c0 -6 5 -13 10 -16 6 -3 10 1 10 9 0 9 -4 16 -10 16 -5 0
-10 -4 -10 -9z"/>
<path d="M6598 6423 c7 -3 16 -2 19 1 4 3 -2 6 -13 5 -11 0 -14 -3 -6 -6z"/>
<path d="M6615 6410 c-16 -7 -17 -9 -3 -9 9 -1 20 4 23 9 7 11 7 11 -20 0z"/>
<path d="M6725 6400 c3 -5 13 -10 21 -10 8 0 14 -4 14 -10 0 -5 7 -10 15 -10
26 0 16 18 -16 29 -39 13 -42 14 -34 1z"/>
<path d="M6813 6370 c13 -9 15 -15 7 -25 -8 -9 -6 -14 9 -18 15 -3 18 -1 14
11 -5 12 -2 14 11 9 10 -4 22 -7 27 -7 6 0 7 -5 3 -12 -4 -7 -3 -8 4 -4 6 3
30 -2 54 -12 24 -11 64 -27 91 -37 26 -9 44 -21 41 -27 -4 -6 2 -8 17 -3 17 4
20 3 10 -3 -21 -15 -4 -34 19 -22 13 7 27 6 45 -2 24 -11 25 -13 8 -20 -12 -6
-7 -7 15 -3 23 3 31 1 26 -7 -5 -8 -2 -9 9 -5 9 3 23 0 31 -8 7 -8 16 -11 20
-8 3 4 6 1 6 -6 0 -7 5 -9 12 -5 8 5 9 2 5 -9 -3 -10 -2 -17 3 -17 21 0 8 -27
-35 -75 -24 -27 -50 -50 -57 -50 -7 -1 -12 -7 -10 -13 2 -12 -59 -93 -233
-306 -81 -100 -95 -119 -95 -128 0 -5 4 -7 9 -4 5 3 65 17 132 31 68 13 167
34 219 46 52 11 138 29 190 40 137 27 360 74 470 99 52 12 103 22 112 21 10 0
20 4 22 8 5 7 -378 202 -739 377 -189 91 -530 231 -472 194z m512 -230 c3 -5
1 -10 -4 -10 -6 0 -11 5 -11 10 0 6 2 10 4 10 3 0 8 -4 11 -10z"/>
<path d="M6788 6353 c7 -3 16 -2 19 1 4 3 -2 6 -13 5 -11 0 -14 -3 -6 -6z"/>
<path d="M6367 6326 c-4 -10 -1 -13 9 -9 7 3 14 9 14 14 0 14 -17 10 -23 -5z"/>
<path d="M3205 6273 c0 -15 7 -28 15 -30 13 -4 13 -3 0 7 -11 8 -12 13 -3 16
7 3 9 12 6 20 -9 23 -19 16 -18 -13z"/>
<path d="M6375 6290 c3 -5 8 -10 11 -10 2 0 4 5 4 10 0 6 -5 10 -11 10 -5 0
-7 -4 -4 -10z"/>
<path d="M6400 6249 c0 -5 5 -7 10 -4 6 3 10 8 10 11 0 2 -4 4 -10 4 -5 0 -10
-5 -10 -11z"/>
<path d="M6420 6230 c0 -8 5 -22 10 -30 9 -13 10 -13 10 0 0 8 -5 22 -10 30
-9 13 -10 13 -10 0z"/>
<path d="M6455 6210 c3 -5 8 -10 11 -10 2 0 4 5 4 10 0 6 -5 10 -11 10 -5 0
-7 -4 -4 -10z"/>
<path d="M7180 6166 c0 -2 9 -6 20 -9 11 -3 18 -1 14 4 -5 9 -34 13 -34 5z"/>
<path d="M6521 6104 c-18 -21 -6 -30 14 -11 8 9 15 18 15 21 0 11 -15 5 -29
-10z"/>
<path d="M7220 6109 c0 -5 5 -7 10 -4 6 3 10 8 10 11 0 2 -4 4 -10 4 -5 0 -10
-5 -10 -11z"/>
<path d="M7242 6073 c-19 -24 -24 -26 -32 -13 -5 8 -10 11 -10 5 0 -5 4 -17
10 -25 7 -12 13 -9 34 15 23 27 32 45 23 45 -2 0 -13 -12 -25 -27z"/>
<path d="M6565 6030 c-3 -5 3 -10 15 -10 12 0 18 5 15 10 -3 6 -10 10 -15 10
-5 0 -12 -4 -15 -10z"/>
<path d="M3261 6020 c0 -8 4 -22 9 -30 12 -18 12 -2 0 25 -6 13 -9 15 -9 5z"/>
<path d="M7124 5947 c1 -20 4 -23 14 -15 7 6 9 14 5 17 -4 4 -11 10 -14 14 -4
5 -6 -3 -5 -16z"/>
<path d="M6620 5933 c1 -14 30 -48 30 -34 0 7 -7 19 -15 27 -8 9 -15 12 -15 7z"/>
<path d="M3261 5904 c0 -11 3 -14 6 -6 3 7 2 16 -1 19 -3 4 -6 -2 -5 -13z"/>
<path d="M7050 5875 c0 -8 4 -15 10 -15 5 0 7 7 4 15 -4 8 -8 15 -10 15 -2 0
-4 -7 -4 -15z"/>
<path d="M7081 5874 c0 -11 3 -14 6 -6 3 7 2 16 -1 19 -3 4 -6 -2 -5 -13z"/>
<path d="M6670 5871 c0 -5 7 -16 15 -24 8 -8 11 -17 8 -21 -4 -3 -2 -6 4 -6
20 0 22 28 4 44 -20 18 -31 20 -31 7z"/>
<path d="M7030 5822 c-13 -10 -21 -23 -19 -29 2 -6 16 2 30 18 30 32 23 39
-11 11z"/>
<path d="M8041 5795 c11 -11 119 -61 119 -56 0 4 -25 19 -55 34 -52 25 -75 33
-64 22z"/>
<path d="M6990 5759 c0 -6 -6 -9 -13 -6 -7 3 -13 -3 -13 -13 0 -10 5 -16 11
-14 15 6 37 44 25 44 -5 0 -10 -5 -10 -11z"/>
<path d="M6761 5744 c0 -11 3 -14 6 -6 3 7 2 16 -1 19 -3 4 -6 -2 -5 -13z"/>
<path d="M8174 5732 c4 -7 38 -27 77 -44 45 -22 68 -37 64 -46 -3 -7 0 -10 5
-7 10 6 79 -23 125 -55 17 -11 37 -20 45 -20 8 0 4 6 -10 13 -14 7 -47 26 -75
42 -125 70 -237 127 -231 117z"/>
<path d="M6781 5694 c0 -11 3 -14 6 -6 3 7 2 16 -1 19 -3 4 -6 -2 -5 -13z"/>
<path d="M6920 5700 c0 -13 11 -13 30 0 12 8 11 10 -7 10 -13 0 -23 -4 -23
-10z"/>
<path d="M6885 5669 c-4 -6 -5 -12 -2 -15 2 -3 7 2 10 11 7 17 1 20 -8 4z"/>
<path d="M6902 5653 c-32 -47 -38 -60 -21 -46 15 13 53 73 45 73 -2 0 -13 -12
-24 -27z"/>
<path d="M3330 5616 c0 -8 4 -17 9 -20 5 -4 7 3 4 14 -6 23 -13 26 -13 6z"/>
<path d="M3321 5554 c0 -11 3 -14 6 -6 3 7 2 16 -1 19 -3 4 -6 -2 -5 -13z"/>
<path d="M8524 5541 c11 -12 25 -21 33 -21 8 0 11 -5 8 -10 -4 -6 -3 -9 2 -8
15 5 162 -76 156 -86 -4 -5 -1 -6 6 -2 7 5 21 0 32 -10 10 -9 19 -13 19 -7 0
5 -33 27 -72 50 -40 22 -102 57 -138 78 -45 25 -59 30 -46 16z"/>
<path d="M3810 5470 c0 -5 5 -10 11 -10 5 0 7 5 4 10 -3 6 -8 10 -11 10 -2 0
-4 -4 -4 -10z"/>
<path d="M3840 5440 c0 -6 7 -10 15 -10 8 0 15 2 15 4 0 2 -7 6 -15 10 -8 3
-15 1 -15 -4z"/>
<path d="M3473 5393 c71 -2 183 -2 250 0 67 1 10 3 -128 3 -137 0 -192 -2
-122 -3z"/>
<path d="M3858 5393 c6 -2 18 -2 25 0 6 3 1 5 -13 5 -14 0 -19 -2 -12 -5z"/>
<path d="M8797 5389 c7 -7 15 -10 18 -7 3 3 -2 9 -12 12 -14 6 -15 5 -6 -5z"/>
<path d="M2153 5358 c-6 -7 -39 -62 -75 -123 -240 -403 -369 -772 -427 -1215
-23 -175 -43 -417 -41 -500 2 -84 37 -390 60 -525 53 -309 159 -615 311 -904
71 -133 164 -286 196 -321 12 -14 53 -65 89 -115 130 -175 308 -368 474 -514
227 -200 558 -410 830 -526 47 -20 94 -40 105 -45 47 -21 277 -100 318 -110
24 -5 56 -14 71 -20 15 -5 75 -21 134 -36 93 -22 151 -33 337 -61 22 -3 175
-8 340 -10 332 -5 445 5 745 67 80 16 150 30 155 30 6 0 3 5 -5 11 -12 9 -12
10 3 5 27 -9 98 5 90 17 -4 6 -1 7 6 3 16 -10 140 23 164 42 9 8 17 12 17 9 0
-15 777 270 1060 389 87 36 653 316 947 467 26 13 32 32 7 23 -8 -3 -12 -2 -9
4 3 6 0 10 -8 10 -11 0 -14 13 -13 55 1 30 -3 56 -7 58 -5 1 -18 50 -28 107
-10 58 -23 123 -28 145 -5 22 -19 94 -31 160 -12 66 -28 143 -36 171 -8 28
-14 63 -14 78 0 15 -4 36 -10 46 -8 15 -6 17 13 13 22 -5 22 -5 1 9 -11 7
-229 118 -482 246 l-462 232 0 -165 0 -165 -212 0 c-228 0 -307 11 -391 50
-112 53 -195 168 -216 300 -6 36 -11 140 -11 231 l0 166 -417 209 c-230 115
-425 216 -433 224 -9 8 -32 24 -53 35 -20 11 -94 53 -164 94 -105 62 -124 76
-107 83 14 6 13 7 -8 3 -19 -4 -44 5 -90 32 -34 20 -57 38 -50 41 7 2 9 8 6
14 -4 7 -9 6 -14 -2 -8 -14 -21 -7 -245 125 -66 39 -136 79 -157 90 -20 10
-47 27 -60 38 -20 16 -20 18 -3 12 11 -4 29 -9 40 -12 20 -4 20 -4 1 8 -11 6
-33 12 -50 13 -17 1 -53 14 -81 30 l-50 28 0 192 c1 105 4 196 8 203 4 6 24 9
49 7 116 -10 149 -11 154 -2 3 5 14 6 23 3 10 -3 29 -1 42 4 17 7 -22 10 -132
10 -141 1 -156 -1 -158 -16 -1 -10 -3 -508 -4 -1108 l-2 -1090 -210 -3 c-249
-3 -318 8 -416 67 -47 28 -75 55 -106 100 -83 120 -77 48 -81 1109 l-3 942
-419 0 -420 0 0 186 c0 172 2 191 25 261 14 42 24 77 23 78 -24 17 -378 215
-385 215 -6 0 -15 -6 -20 -12z m2289 -3185 c1 -30 1 -57 -1 -59 -2 -2 -28 -4
-57 -4 -58 0 -64 6 -64 71 0 46 17 57 79 51 l39 -4 4 -55z m-534 0 c3 -55 4
-55 -48 -55 -70 -2 -70 -2 -70 50 0 27 3 52 7 56 4 4 30 6 58 4 l50 -3 3 -52z
m1562 -14 l0 -49 -70 0 -70 0 -2 -257 -3 -258 -55 0 -55 0 -5 255 -5 255 -73
3 -73 3 3 47 3 47 190 5 c105 3 196 3 203 1 7 -2 12 -21 12 -52z m563 47 c3
-8 6 -147 7 -309 1 -330 3 -320 -72 -315 l-43 3 -3 318 -2 317 54 0 c38 0 56
-4 59 -14z m-3133 -46 l0 -49 -72 -3 -73 -3 -5 -255 -5 -255 -50 0 -50 0 -3
257 -2 257 -73 3 -72 3 -3 33 c-6 64 -12 62 208 62 l200 0 0 -50z m1869 -117
c38 -28 69 -99 79 -181 5 -40 6 -74 4 -77 -3 -3 -61 -5 -129 -5 -71 0 -123 -4
-123 -10 0 -24 25 -60 51 -70 16 -7 61 -10 106 -8 l78 3 0 -40 c0 -39 -1 -40
-45 -52 -136 -35 -235 -5 -283 88 -27 51 -29 60 -25 154 3 87 7 105 30 141 38
59 96 87 172 80 35 -2 69 -12 85 -23z m986 5 c62 -32 95 -104 95 -210 l0 -58
-126 0 c-125 0 -125 0 -119 -22 4 -13 18 -34 33 -47 25 -22 31 -23 114 -18
l88 6 0 -44 0 -43 -63 -11 c-86 -15 -131 -14 -174 4 -86 36 -113 90 -113 225
0 137 30 194 117 226 40 15 111 11 148 -8z m617 -4 c56 -29 93 -121 86 -216
l-3 -43 -128 -3 c-112 -2 -128 -5 -123 -18 3 -9 6 -20 6 -24 0 -5 10 -19 23
-30 20 -20 31 -21 117 -18 l95 3 0 -40 0 -40 -70 -14 c-129 -26 -210 4 -255
94 -20 42 -24 64 -24 136 1 131 46 208 135 229 41 10 104 3 141 -16z m420 10
c5 -3 8 -24 8 -46 l0 -41 -58 6 c-74 8 -97 2 -112 -31 -32 -71 -19 -221 22
-243 12 -6 49 -9 84 -7 l64 4 0 -47 c0 -26 -5 -51 -11 -54 -6 -4 -37 -9 -70
-12 -104 -10 -184 38 -209 125 -13 49 -13 187 1 237 12 44 74 111 111 118 25
6 158 -2 170 -9z m-3742 -177 c5 -162 7 -180 24 -193 25 -18 50 -18 86 1 l30
16 0 167 c0 117 4 172 12 180 15 15 63 16 89 2 18 -10 19 -23 19 -230 0 -207
-1 -220 -19 -230 -28 -15 -82 -12 -101 5 -14 12 -21 12 -60 -1 -83 -29 -152
-2 -179 68 -11 30 -17 370 -6 387 4 7 26 11 53 9 l47 -3 5 -178z m408 166 c9
-15 13 -15 53 1 90 36 180 -4 194 -87 3 -18 6 -110 7 -205 l3 -172 -47 0 -48
0 -1 153 c-1 83 -4 165 -8 182 -7 33 -43 52 -82 42 -53 -14 -53 -14 -50 -189
3 -187 1 -191 -71 -186 l-43 3 -3 225 c-1 123 0 230 2 237 8 20 83 17 94 -4z
m440 9 c9 -7 12 -61 10 -238 l-3 -229 -55 0 -55 0 -3 225 c-1 123 0 230 2 237
6 14 83 18 104 5z m330 -8 c20 -6 23 -12 20 -48 l-3 -41 -70 3 c-94 3 -117 -3
-113 -30 2 -14 29 -40 78 -72 89 -61 120 -102 120 -161 0 -79 -53 -115 -170
-115 -30 0 -72 5 -92 11 -36 9 -38 12 -38 50 l0 40 73 -7 c76 -7 117 4 117 30
0 7 -38 42 -85 77 -101 76 -120 107 -112 175 6 53 38 89 87 98 30 5 156 -1
188 -10z m210 -221 l-3 -238 -55 0 -55 0 -3 225 c-1 123 0 230 2 237 4 8 25
13 61 13 l55 0 -2 -237z m2642 227 c51 -14 100 -69 115 -128 20 -75 12 -192
-16 -249 -68 -137 -287 -115 -328 32 -15 53 -14 178 1 228 28 94 127 145 228
117z m250 -5 c0 -18 -4 -18 45 0 52 19 93 18 129 0 27 -14 34 -14 68 0 81 32
168 9 198 -52 9 -19 15 -85 18 -208 2 -100 9 -186 14 -192 8 -10 -1 -13 -40
-13 l-50 0 -6 93 c-3 50 -5 132 -5 180 1 53 -4 94 -10 100 -14 14 -80 12 -95
-3 -7 -7 -13 -73 -16 -183 l-5 -172 -44 -3 c-53 -4 -63 5 -62 54 1 22 -2 101
-5 177 -6 129 -8 139 -28 146 -27 10 -74 -6 -86 -29 -6 -10 -10 -91 -10 -179
l0 -161 -55 0 -54 0 -3 213 c-2 118 -2 221 0 230 5 23 102 25 102 2z m-2833
-1077 c-3 -8 -6 -5 -6 6 -1 11 2 17 5 13 3 -3 4 -12 1 -19z m730 -594 c-3 -3
-12 -4 -19 -1 -8 3 -5 6 6 6 11 1 17 -2 13 -5z"/>
<path d="M4637 1938 c-14 -13 -28 -33 -32 -45 -6 -22 -5 -23 73 -23 79 0 79 0
75 24 -6 30 -29 52 -64 61 -19 5 -33 0 -52 -17z"/>
<path d="M5636 1938 c-14 -13 -27 -34 -28 -48 -3 -25 -2 -25 75 -27 76 -3 77
-2 77 23 0 32 -42 74 -74 74 -14 0 -36 -10 -50 -22z"/>
<path d="M6229 1931 c-16 -16 -29 -39 -29 -50 0 -20 6 -21 80 -21 88 0 93 5
65 59 -25 50 -73 55 -116 12z"/>
<path d="M6979 1941 c-21 -17 -24 -29 -27 -103 -4 -95 7 -133 43 -150 81 -37
140 78 105 204 -18 64 -75 87 -121 49z"/>
<path d="M8168 5063 c7 -3 16 -2 19 1 4 3 -2 6 -13 5 -11 0 -14 -3 -6 -6z"/>
<path d="M5274 4800 c0 -91 2 -128 3 -82 2 45 2 119 0 165 -1 45 -3 8 -3 -83z"/>
<path d="M6108 4557 c5 -87 10 -94 11 -15 1 37 -3 69 -7 72 -5 3 -6 -23 -4
-57z"/>
<path d="M4235 4220 c2 -27 10 -33 12 -10 1 11 -2 22 -6 24 -4 3 -7 -4 -6 -14z"/>
<path d="M4510 4070 c8 -5 20 -10 25 -10 6 0 3 5 -5 10 -8 5 -19 10 -25 10 -5
0 -3 -5 5 -10z"/>
<path d="M4662 3954 c10 -10 20 -15 24 -12 3 4 -5 12 -18 18 -22 12 -22 12 -6
-6z"/>
<path d="M4825 3860 c3 -5 8 -10 11 -10 2 0 4 5 4 10 0 6 -5 10 -11 10 -5 0
-7 -4 -4 -10z"/>
<path d="M7915 2189 c-4 -6 -5 -12 -2 -15 2 -3 7 2 10 11 7 17 1 20 -8 4z"/>
<path d="M7959 2183 c-13 -17 -13 -17 6 -3 11 8 22 16 24 17 2 2 0 3 -6 3 -6
0 -17 -8 -24 -17z"/>
<path d="M8000 2191 c0 -8 50 -34 56 -29 1 2 -11 11 -27 20 -16 9 -29 14 -29
9z"/>
<path d="M8117 2129 c7 -7 15 -10 18 -7 3 3 -2 9 -12 12 -14 6 -15 5 -6 -5z"/>
<path d="M8200 2085 c14 -8 30 -14 35 -14 6 0 -1 6 -15 14 -14 8 -29 14 -35
14 -5 0 1 -6 15 -14z"/>
<path d="M8314 2021 c0 -13 9 -17 33 -17 18 0 31 1 30 2 -1 1 -16 8 -32 17
-28 14 -31 14 -31 -2z"/>
<path d="M8430 1970 c8 -5 20 -10 25 -10 6 0 3 5 -5 10 -8 5 -19 10 -25 10 -5
0 -3 -5 5 -10z"/>
<path d="M8481 1947 c21 -17 79 -45 79 -39 0 5 -16 16 -35 25 -32 15 -56 23
-44 14z"/>
<path d="M8670 1850 c8 -5 20 -10 25 -10 6 0 3 5 -5 10 -8 5 -19 10 -25 10 -5
0 -3 -5 5 -10z"/>
<path d="M8755 1800 c-3 -5 -2 -10 4 -10 5 0 13 5 16 10 3 6 2 10 -4 10 -5 0
-13 -4 -16 -10z"/>
<path d="M8778 1783 c-10 -2 -18 -8 -18 -13 0 -5 -7 -6 -17 -3 -11 4 -14 3 -9
-5 5 -8 0 -12 -14 -12 -12 0 -18 -4 -15 -10 4 -6 26 0 56 15 60 31 66 41 17
28z"/>
<path d="M8647 1748 c-2 -7 1 -21 7 -30 7 -12 14 -14 28 -7 18 10 16 29 -3 29
-6 0 -7 -4 -4 -10 3 -5 0 -7 -9 -4 -8 3 -12 12 -9 20 3 8 3 14 0 14 -3 0 -7
-6 -10 -12z"/>
<path d="M8587 1723 c-12 -12 -7 -22 8 -17 8 4 15 10 15 15 0 11 -14 12 -23 2z"/>
<path d="M8608 1687 c-21 -6 -38 -14 -38 -19 0 -5 -5 -6 -12 -2 -6 4 -8 3 -4
-4 7 -12 -29 -26 -44 -17 -6 4 -9 1 -8 -7 2 -7 -3 -12 -9 -10 -7 1 -13 -2 -13
-7 0 -10 -39 -27 -53 -23 -5 1 -5 -3 -1 -9 5 -8 1 -10 -13 -7 -12 3 -27 2 -34
-3 -12 -7 -12 -9 0 -9 11 0 9 -4 -4 -14 -11 -8 -23 -12 -28 -9 -4 3 -20 -7
-34 -21 -14 -14 -29 -23 -34 -21 -4 3 -10 1 -14 -5 -3 -5 -11 -10 -17 -10 -6
0 -5 7 3 17 12 14 10 14 -14 -2 -15 -10 -25 -20 -22 -23 2 -3 0 -11 -7 -19
-13 -16 90 32 147 68 58 38 264 149 275 149 5 0 12 5 15 10 3 6 5 9 3 9 -2 -1
-20 -6 -40 -12z"/>
<path d="M8485 1670 c-3 -5 -1 -10 4 -10 6 0 11 5 11 10 0 6 -2 10 -4 10 -3 0
-8 -4 -11 -10z"/>
<path d="M8458 1643 c7 -3 16 -2 19 1 4 3 -2 6 -13 5 -11 0 -14 -3 -6 -6z"/>
<path d="M8041 1454 c0 -11 3 -14 6 -6 3 7 2 16 -1 19 -3 4 -6 -2 -5 -13z"/>
<path d="M8175 1460 c-3 -5 -1 -10 4 -10 6 0 11 5 11 10 0 6 -2 10 -4 10 -3 0
-8 -4 -11 -10z"/>
<path d="M8070 1430 c-8 -5 -10 -10 -5 -10 6 0 17 5 25 10 8 5 11 10 5 10 -5
0 -17 -5 -25 -10z"/>
<path d="M8133 1429 c-4 -4 -15 -9 -23 -12 -8 -2 -2 -3 15 -1 16 3 33 8 38 13
10 10 -19 10 -30 0z"/>
</g>
</svg>
